<svg xmlns="http://www.w3.org/2000/svg" viewBox="0 0 396.37 464.66"><defs><style>.cls-1{isolation:isolate;}.cls-2{opacity:0.81;}.cls-3{fill:#f4d9bf;}.cls-4{fill:#50162e;}.cls-5{fill:#1d1d1b;}.cls-6{opacity:0.73;}.cls-7{fill:#c76720;}.cls-8{mix-blend-mode:multiply;}.cls-9{fill:#613305;}.cls-10{fill:#fff;}.cls-11{fill:#f5df4d;}.cls-12{opacity:0.6;}.cls-13{fill:#86c9b3;}.cls-14{opacity:0.82;}.cls-15{opacity:0.8;}</style></defs><g class="cls-1"><g id="Calque_1" data-name="Calque 1"><g class="cls-2"><path class="cls-3" d="M235.39,147.81l26.68.22,13.22.11c4.36,0,8.85-.23,13.19.19l-3.32-.44a9.3,9.3,0,0,1,1.72.39l-3-1.26a8.06,8.06,0,0,1,1.05.55l-2.53-1.95a6,6,0,0,1,.82.77l-2-2.53a4.52,4.52,0,0,1,.55.95l-1.26-3a2.47,2.47,0,0,1,.17.7l-.44-3.32a2.49,2.49,0,0,1,0,.72l.45-3.32a2.66,2.66,0,0,1-.16.55l1.26-3a4.39,4.39,0,0,1-.44.71l2-2.53a3.68,3.68,0,0,1-.4.39l2.53-2a5.84,5.84,0,0,1-1.28.74l3-1.26a11.63,11.63,0,0,1-2.46.6l3.32-.45c-8.23,1-16.55,1.54-24.81,2.3-4.06.38-8.13.71-12.19,1.13-2.66.28-5.34.59-8,1.13a33.94,33.94,0,0,0-7.56,2.71c-10.2,4.81-15.74,17.54-11.3,28a19.47,19.47,0,0,0,7.27,8.64,21.52,21.52,0,0,0,4.49,2.08,11.23,11.23,0,0,0,2.19.58,27.59,27.59,0,0,0,7.74.41c2.64-.3,5.24-.71,7.84-1.25l13.82-2.82c4.65-1,9.29-2,14-2.7l-3.32.45A34.18,34.18,0,0,1,287,171l-3.33-.45a22.78,22.78,0,0,1,5.33,1.41l-3-1.26a18.48,18.48,0,0,1,3.71,2.13l-2.53-2a15.69,15.69,0,0,1,2.66,2.68l-2-2.52a15.6,15.6,0,0,1,1.77,3.07l-1.26-3a18.74,18.74,0,0,1,1.22,4.47l-.45-3.32a26.19,26.19,0,0,1,0,6.62l.44-3.32a34.34,34.34,0,0,1-2.39,8.54l1.26-3a42.14,42.14,0,0,1-5.37,9.17l2-2.53a40.74,40.74,0,0,1-7,7l2.53-2a36.4,36.4,0,0,1-7.8,4.59l3-1.26a31.79,31.79,0,0,1-7.6,2.12l3.33-.45a30.13,30.13,0,0,1-7.88,0l3.32.44A31.75,31.75,0,0,1,259,196l3,1.26a30.78,30.78,0,0,1-6.46-3.78l2.53,1.95a27.14,27.14,0,0,1-4.76-4.76l2,2.53a24.87,24.87,0,0,1-3.05-5.26l1.26,3-.13-.32L244.63,206l28.54-4.29c5.18-.77,10.3-1.29,14.93-4,7.09-4.2,11.93-13.36,9.07-21.56a13.23,13.23,0,0,0-4.48-6.49,11.71,11.71,0,0,0-7.57-2.69l-51.24,3.82c-3.21.24-6.58,1.2-8.84,3.67a12.75,12.75,0,0,0-3.44,7.17,11.93,11.93,0,0,0,1.48,8l2,2.53a12.52,12.52,0,0,0,5.51,3.22L263,207.58c2.87,1.08,7.08.23,9.63-1.26a12.49,12.49,0,0,0,4.49-17.1l-2-2.53a12.42,12.42,0,0,0-5.51-3.22L237.2,171.22l-3.32,24.55L285.12,192l-12.06-9.17a5.89,5.89,0,0,1,.27,1l-.44-3.32a6.37,6.37,0,0,1,0,1.38l.45-3.32a7.21,7.21,0,0,1-.37,1.36l1.26-3a8.64,8.64,0,0,1-.88,1.57l2-2.53a8.69,8.69,0,0,1-1.53,1.56l2.53-2a11.38,11.38,0,0,1-2.09,1.19l3-1.26c-2.84,1.15-6,1.42-9,1.87l-10,1.5-20.25,3c-2.77.41-6.2,3.35-7.47,5.74-1.46,2.77-2.5,6.59-1.26,9.64a39.17,39.17,0,0,0,5.42,9.82,33.42,33.42,0,0,0,5.73,6,42.18,42.18,0,0,0,37.22,8.64,45.12,45.12,0,0,0,16.86-8.41,52.78,52.78,0,0,0,12.69-14.11,60,60,0,0,0,4.4-9.22,33,33,0,0,0,2-7.3,37.82,37.82,0,0,0,.55-10.5,31.42,31.42,0,0,0-3.71-12.37,27.69,27.69,0,0,0-9.07-9.32,31.76,31.76,0,0,0-6.11-2.86,22.3,22.3,0,0,0-4.18-1.15,43,43,0,0,0-12.85-.41c-4.7.59-9.29,1.5-13.92,2.44l-11.16,2.29c-3.38.69-6.77,1.52-10.2,2l3.32-.44a18.65,18.65,0,0,1-4.78.07l3.32.45a10.77,10.77,0,0,1-2.35-.64l3,1.26a8.48,8.48,0,0,1-1.49-.86l2.53,1.95a8.14,8.14,0,0,1-1.22-1.2l1.95,2.53a8.72,8.72,0,0,1-.8-1.35l1.26,3a8.56,8.56,0,0,1-.49-1.8l.45,3.32a9.78,9.78,0,0,1,0-2.23l-.45,3.32a11.93,11.93,0,0,1,.71-2.55l-1.26,3a12.29,12.29,0,0,1,1.35-2.33l-2,2.53a11.59,11.59,0,0,1,1.87-1.9l-2.53,2a16.22,16.22,0,0,1,3.1-1.79l-3,1.26a27.88,27.88,0,0,1,7-1.76l-3.32.45c7.35-.94,14.78-1.42,22.16-2.1l11.6-1.07c5-.46,9.87-.62,14.38-3a15.36,15.36,0,0,0,5.51-21.61,17,17,0,0,0-10.18-7.31,38.38,38.38,0,0,0-8.42-.71L261.32,123l-25.93-.22a12.89,12.89,0,0,0-8.84,3.67,12.66,12.66,0,0,0-3.66,8.83c.3,6.82,5.49,12.45,12.5,12.5Z" transform="translate(-12.5 -42.9)"/><path class="cls-3" d="M261.4,244.16c.2.14.4.28.59.44l-2.53-2a11.48,11.48,0,0,1,1.3,1.31l-1.95-2.53a10.39,10.39,0,0,1,1.3,2.23l-1.26-3a10.58,10.58,0,0,1,.58,2.14l-.45-3.33a9.7,9.7,0,0,1,0,2.22l.44-3.33a11.68,11.68,0,0,1-.78,2.79l1.26-3a58.91,58.91,0,0,1-4.37,7.38c-1.31,2.08-2.8,4.19-3.43,6.61-1.26,4.84-.28,10.39,3.44,14a15.74,15.74,0,0,0,7.56,4.18c2.31.47,4.73.63,7.07.9l9.39,1.09v-25l-20.05-.76a12.5,12.5,0,1,0,0,25l20.05.76A12.5,12.5,0,0,0,288.42,251L285.89,249a12.5,12.5,0,0,0-6.31-1.71c-4.27-.5-8.56-.94-12.82-1.49l3.32.44a7.62,7.62,0,0,1-1.54-.41l3,1.26a2.75,2.75,0,0,1-.52-.31l2.53,2a2.22,2.22,0,0,1-.4-.41l2,2.53-.14-.25,1.26,3-.1-.28.45,3.32a1.63,1.63,0,0,1,0-.79l-.45,3.32.12-.39-1.26,3a54.7,54.7,0,0,1,4.15-6.76,31.3,31.3,0,0,0,4.24-9,19.91,19.91,0,0,0,.68-6,21.59,21.59,0,0,0-1.08-6,21.21,21.21,0,0,0-2.56-5.21,25.4,25.4,0,0,0-6.38-6.24c-2.53-1.77-6.76-2-9.64-1.26a12.51,12.51,0,0,0-8.73,15.38,14.12,14.12,0,0,0,5.75,7.47Z" transform="translate(-12.5 -42.9)"/><path class="cls-3" d="M293.93,255.65l-11.86-1.32a8.28,8.28,0,0,0-5.3,2.19,7.5,7.5,0,0,0,0,10.61l1.52,1.17a7.51,7.51,0,0,0,3.78,1l11.86,1.32a5.75,5.75,0,0,0,2.89-.64,5.62,5.62,0,0,0,2.41-1.56,7.48,7.48,0,0,0,0-10.6l-1.52-1.17a7.51,7.51,0,0,0-3.78-1Z" transform="translate(-12.5 -42.9)"/><path class="cls-3" d="M248.44,269.84A122.87,122.87,0,0,0,298,272.56c1.72-.25,3.64-2,4.48-3.45a7.51,7.51,0,0,0-2.69-10.26,8.8,8.8,0,0,0-5.78-.75l-1.41.19,2-.27a114.32,114.32,0,0,1-29.74,0l2,.27a115.47,115.47,0,0,1-14.38-2.89c-3.78-1-8.32,1.27-9.23,5.24a7.64,7.64,0,0,0,5.24,9.22Z" transform="translate(-12.5 -42.9)"/><path class="cls-3" d="M277.72,218.43a51.29,51.29,0,0,1-7.54-.41l2,.27a51,51,0,0,1-12.83-3.49l1.8.76q-2.25-1-4.4-2.13L251,227.14a62.31,62.31,0,0,0,41.61-6.31,7.56,7.56,0,0,0,2.69-10.26A7.65,7.65,0,0,0,285,207.88q-2.26,1.23-4.64,2.25l1.79-.76a55.25,55.25,0,0,1-14.07,3.83l2-.27a55.46,55.46,0,0,1-14.16,0l2,.27c-1-.14-2-.31-3-.5-3.71-.71-7.33.74-8.85,4.34a7.48,7.48,0,0,0,3.07,9.37,57.78,57.78,0,0,0,28.54,7.05c3.92-.07,7.68-3.39,7.5-7.5s-3.3-7.58-7.5-7.5Z" transform="translate(-12.5 -42.9)"/></g><path class="cls-4" d="M223.77,139.9c-4.89.77-7.77,5.36-9.3,9.68-2,5.74-1.5,11.66.26,17.4,3.2,10.4,10.61,22.06,22.87,22,5.48-.05,10.49-3,14.06-7,4-4.46,6.23-10.07,8.2-15.62s3.9-11.88,2.09-17.75c-1.49-4.85-5.39-8.29-10-10.12a24.46,24.46,0,0,0-8.59-1.57,43,43,0,0,0-8.41.35c-2.36.4-4.54,1.42-6.87,1.87l-4.3.84c-1.22.23-.7,2.1.52,1.86l3.29-.64a46.35,46.35,0,0,0,4.47-1.26,36.28,36.28,0,0,1,13.65-1c4.55.44,9.26,2.39,12.18,6,3.52,4.34,3.2,10.13,1.88,15.24a64.67,64.67,0,0,1-6,15.45c-2.53,4.47-6.2,8.58-11.11,10.45s-10.37.77-14.73-2.15-7.46-7.63-9.52-12.48C216,165.66,214,159,215.55,152.74c1.09-4.54,3.57-10.16,8.74-11C225.51,141.57,225,139.7,223.77,139.9Z" transform="translate(-12.5 -42.9)"/><path class="cls-4" d="M261.27,159.35a15.26,15.26,0,0,1,14-1.17c.29.1.41-.36.13-.46A15.72,15.72,0,0,0,261,158.94a.24.24,0,0,0,.24.41Z" transform="translate(-12.5 -42.9)"/><path class="cls-4" d="M280.82,138.74a6.58,6.58,0,0,0-4.69,2.49,12.29,12.29,0,0,0-1.63,4.67,25.18,25.18,0,0,0-.94,7.17,41.74,41.74,0,0,0,1.55,8.06c2.5,9.31,7,19.72,17.31,22.3A14.16,14.16,0,0,0,305,180.6c3.53-2.88,5.82-7,7.88-11,2.42-4.72,4.94-9.59,5.53-14.94.51-4.68-.63-9.71-4.11-13.07-3.67-3.55-9-4.71-13.92-5a58.08,58.08,0,0,0-19.58,2.19,1,1,0,0,0,.52,1.87A56.77,56.77,0,0,1,297,138.38c4.3,0,8.87.36,12.77,2.34a12.38,12.38,0,0,1,6.79,10.35c.37,4.8-1.34,9.39-3.38,13.64-3.28,6.82-7.63,16.86-16.45,17.25-9.75.42-15.71-8.73-18.43-16.88-.82-2.46-1.52-5-2.09-7.51a19.82,19.82,0,0,1-.39-9,44.26,44.26,0,0,1,1.29-5.1c.72-1.93,2.27-2.63,4.23-2.9,1.23-.18.7-2-.52-1.87Z" transform="translate(-12.5 -42.9)"/><g id="nez"><path class="cls-5" d="M264.42,184.76a7.15,7.15,0,0,0,13.18-3.26c0-.3-.45-.3-.48,0a6.67,6.67,0,0,1-12.29,3c-.17-.25-.58,0-.41.25Z" transform="translate(-12.5 -42.9)"/></g><g id="visage"><path class="cls-4" d="M215.15,177.73a80.94,80.94,0,0,0,14.55,32.91,78.14,78.14,0,0,0,12.17,13,43.35,43.35,0,0,0,15.54,8.9c12,3.51,24.93-1.46,34.59-8.64a61.66,61.66,0,0,0,19.37-24.44,59.8,59.8,0,0,0,4.45-34.7c-.05-.3-.51-.17-.46.13,3.72,20.64-4.73,42.64-20.59,56.19-9,7.71-21.49,13.7-33.59,11.82-11.82-1.85-21.72-10.9-29-19.85a80.75,80.75,0,0,1-16.57-35.46c-.06-.3-.52-.17-.46.13Z" transform="translate(-12.5 -42.9)"/></g><g class="cls-6"><path class="cls-7" d="M266.78,90.23c.1-.3.21-.61.33-.91l-1.21,2.87a13.82,13.82,0,0,1,1.59-2.76l-1.87,2.44a14.61,14.61,0,0,1,2.47-2.5l-2.43,1.88a16.32,16.32,0,0,1,3.33-2l-2.87,1.21a16,16,0,0,1,3.71-1l-3.2.43a14.22,14.22,0,0,1,3.51,0L267,89.45a12.82,12.82,0,0,1,3.09.82l-2.87-1.22a20,20,0,0,1,4.2,2.55l-2.44-1.88c3.64,2.86,6.86,6.32,10.91,8.62,6.12,3.46,13.26,4.57,19.84,1.79a24.19,24.19,0,0,0,9.26-7.08,37.6,37.6,0,0,1,5.13-5.77l-2.43,1.88A9.25,9.25,0,0,1,313.57,88l-2.87,1.21a7.15,7.15,0,0,1,1.44-.4l-3.19.43a7,7,0,0,1,1.65,0l-3.19-.43a7.63,7.63,0,0,1,1.91.52l-2.88-1.21a9.54,9.54,0,0,1,1.71,1l-2.44-1.88c2.47,1.94,4.12,4.65,6.32,6.85a36.41,36.41,0,0,0,13.19,8.15c8.93,3.4,19.21,2.06,27.52-2.35a35.64,35.64,0,0,0,12.2-11.25c1.71-2.42,2-6.52,1.21-9.26a12.3,12.3,0,0,0-5.53-7.19A12.15,12.15,0,0,0,351.36,71l-2.87,1.21a12,12,0,0,0-4.31,4.31c-.23.32-.45.63-.69.94L345.37,75a23.61,23.61,0,0,1-3.8,3.81L344,76.92A24.79,24.79,0,0,1,338.69,80l2.87-1.22A23.26,23.26,0,0,1,336,80.33l3.2-.43a22.91,22.91,0,0,1-5.85,0l3.2.42a24.21,24.21,0,0,1-5.67-1.56L333.75,80a23.67,23.67,0,0,1-5.08-3l2.43,1.88c-2.86-2.24-4.73-5.3-7.35-7.77-5-4.74-11.88-7.27-18.74-5.33a22.08,22.08,0,0,0-10.79,7.42c-1.77,2.14-3.37,4.46-5.56,6.19l2.43-1.88A11.17,11.17,0,0,1,289,78.77l2.88-1.22a8.51,8.51,0,0,1-2.09.56l3.19-.43a10.15,10.15,0,0,1-2.4,0l3.2.43a13.81,13.81,0,0,1-2.76-.78l2.87,1.21a20.45,20.45,0,0,1-4.35-2.56L292,77.82c-3.63-2.84-6.83-6.26-10.83-8.6A24,24,0,0,0,267,65.82c-4.78.5-9.51,1.73-13.42,4.67a29.46,29.46,0,0,0-6.79,6.81,23.63,23.63,0,0,0-3.14,6.54,12,12,0,0,0,17.66,13.58,13.15,13.15,0,0,0,5.52-7.19Z" transform="translate(-12.5 -42.9)"/></g><g class="cls-6"><path class="cls-7" d="M270.69,115.51a83.24,83.24,0,0,1,8.92-4.69L276.74,112a29.72,29.72,0,0,1,7.08-2l-3.19.43a19.92,19.92,0,0,1,4.94,0l-3.2-.43a18.81,18.81,0,0,1,4.42,1.15l-2.87-1.21a14.78,14.78,0,0,1,3.26,1.9l-2.43-1.88a13,13,0,0,1,1.94,1.92l-1.88-2.43a13.68,13.68,0,0,1,1.74,3l-1.21-2.87c1.68,4.2,2.29,8.66,4.61,12.64,3.77,6.48,10.37,10,17.72,10.37,5.43.3,11.16-1.69,15.85-4.26,3.6-2,6.83-4.55,10.63-6.18l-2.87,1.21a18.35,18.35,0,0,1,4.25-1.17l-3.2.43c.41,0,.81-.08,1.22-.1l-12-12A25.09,25.09,0,0,0,329,129.28a22.6,22.6,0,0,0,5.49,4.08,24.1,24.1,0,0,0,13.62,2.8,32.9,32.9,0,0,0,4.82-.77,32,32,0,0,0,4.44-1.75,24,24,0,0,0,5.87-4c2.23-1.92,3.52-5.65,3.52-8.5a12,12,0,0,0-12-12,13.42,13.42,0,0,0-8.5,3.52l-.57.47,2.43-1.88a13.89,13.89,0,0,1-2.86,1.67l2.87-1.22a14.34,14.34,0,0,1-3.2.88l3.2-.43a14.7,14.7,0,0,1-3.69,0l3.2.43a13.66,13.66,0,0,1-3.2-.87l2.87,1.21a13,13,0,0,1-2.5-1.45l2.43,1.88a14.53,14.53,0,0,1-2.31-2.26l1.88,2.43a14.87,14.87,0,0,1-1.83-3.1l1.21,2.87a14.3,14.3,0,0,1-.94-3.46l.43,3.19a13.25,13.25,0,0,1-.05-2.52,12,12,0,0,0-12-12,32.93,32.93,0,0,0-15.36,4.88c-3,1.8-5.88,3.94-9.14,5.33l2.87-1.21a20.41,20.41,0,0,1-5,1.39l3.19-.43a13.75,13.75,0,0,1-3.51,0l3.2.43a10.58,10.58,0,0,1-2.28-.64l2.87,1.21a10.14,10.14,0,0,1-1.77-1l2.43,1.88a9.48,9.48,0,0,1-1.48-1.49l1.88,2.44a12.86,12.86,0,0,1-1.53-2.7l1.21,2.87c-1.78-4.4-2.33-9.21-5-13.28A25.73,25.73,0,0,0,291,87.2a32.44,32.44,0,0,0-17.4.46,71.5,71.5,0,0,0-15.07,7.09,12.43,12.43,0,0,0-5.52,7.19,12.23,12.23,0,0,0,1.21,9.26,12.08,12.08,0,0,0,7.18,5.52,12.59,12.59,0,0,0,9.27-1.21Z" transform="translate(-12.5 -42.9)"/></g><g class="cls-6"><path class="cls-7" d="M244.13,86.36c-12.48,4.15-25.49,8.43-36.22,16.25a69.4,69.4,0,0,0-8.65,7.22,64.94,64.94,0,0,0-6.93,8.5,47.24,47.24,0,0,0-4.59,8.59,40,40,0,0,0-2.88,9.17,52.68,52.68,0,0,0-.82,7.4,48.59,48.59,0,0,0,.68,7.61c.5,3.53,1.39,7,1.89,10.52l-.43-3.2a24.43,24.43,0,0,1,.14,6l.43-3.19a15.77,15.77,0,0,1-1,3.7L187,162a20.26,20.26,0,0,1-2.5,4.1l1.88-2.44c-2.8,3.57-6.27,6.82-8.26,10.94-2.65,5.49-3.58,11.7-1.57,17.58A41.72,41.72,0,0,0,182.28,203a44.17,44.17,0,0,1,5,8.05L186,208.15a14.12,14.12,0,0,1,.94,3.42l-.43-3.19a11.15,11.15,0,0,1,0,2.45l.42-3.19a11.13,11.13,0,0,1-.77,2.82l1.21-2.87a21.74,21.74,0,0,1-2.76,4.45l1.88-2.43c-2.1,2.7-4.4,5.25-6.34,8.08a21.1,21.1,0,0,0-3.78,11.79A19.5,19.5,0,0,0,183,243.85a43.17,43.17,0,0,0,5.71,4.16,44.78,44.78,0,0,1,3.9,2.53l-2.43-1.88a15.09,15.09,0,0,1,2.15,2.08l-1.88-2.44a9.28,9.28,0,0,1,1.11,1.84l-1.21-2.88a8.11,8.11,0,0,1,.39,1.36l-.43-3.19a5.16,5.16,0,0,1,.05,1.24l.43-3.19a4.84,4.84,0,0,1-.27,1l1.21-2.87a5.7,5.7,0,0,1-.54.89l1.88-2.43a5.84,5.84,0,0,1-.93.93l2.43-1.88a6.33,6.33,0,0,1-1.12.66l2.87-1.21a5,5,0,0,1-1.2.33l3.2-.42a5.78,5.78,0,0,1-.93,0l3.2.42a2.78,2.78,0,0,1-.64-.19l2.87,1.22a3.07,3.07,0,0,1-.39-.23l2.44,1.88a3.24,3.24,0,0,1-.5-.48l1.88,2.43a3.12,3.12,0,0,1-.27-.43,12,12,0,1,0-20.75,12.14,14.46,14.46,0,0,0,8.75,6.8,15.29,15.29,0,0,0,8.61-.23c6.67-2.29,11.46-7.94,11.81-15.12.27-5.41-2.58-11-6.63-14.53a41.8,41.8,0,0,0-5.84-4.24,39.54,39.54,0,0,1-3.67-2.37l2.44,1.88a12.78,12.78,0,0,1-2.26-2.21l1.88,2.43a9.26,9.26,0,0,1-.88-1.49l1.22,2.87a8.54,8.54,0,0,1-.52-1.77l.43,3.19a7.88,7.88,0,0,1,0-1.88l-.43,3.2a8.81,8.81,0,0,1,.56-2.07l-1.21,2.88a19,19,0,0,1,2.6-4.2l-1.88,2.43c2.22-2.83,4.66-5.51,6.63-8.53a23.79,23.79,0,0,0,3.88-12.39,26.07,26.07,0,0,0-3.25-12.26,48,48,0,0,0-4-6.27,41.1,41.1,0,0,1-4.48-7.33l1.21,2.87a14.92,14.92,0,0,1-1-3.45l.43,3.19a11.58,11.58,0,0,1,0-2.76l-.43,3.19a11.68,11.68,0,0,1,.81-2.84l-1.21,2.87a18.63,18.63,0,0,1,2.29-3.71l-1.88,2.43c4.23-5.42,9.36-10.28,10.66-17.37a33.41,33.41,0,0,0,.69-7,59.57,59.57,0,0,0-.86-7.3c-.51-3.16-1.29-6.26-1.72-9.43l.43,3.19a30.33,30.33,0,0,1,0-7.85l-.43,3.19a34.4,34.4,0,0,1,2.39-8.49l-1.21,2.87a42.48,42.48,0,0,1,5.38-9.06L212.61,131a49.52,49.52,0,0,1,8.65-8.59l-2.43,1.88a78.68,78.68,0,0,1,17.33-9.72l-2.87,1.21c5.64-2.36,11.43-4.3,17.23-6.23A12.75,12.75,0,0,0,257.7,104a12,12,0,0,0-4.31-16.45c-2.78-1.47-6.19-2.24-9.26-1.21Z" transform="translate(-12.5 -42.9)"/></g><g class="cls-6"><path class="cls-7" d="M176.55,144.46c-5.13.92-9.67,3.67-13.59,7a28.58,28.58,0,0,0-8.29,13,29.53,29.53,0,0,0-1.26,7.86,30,30,0,0,0,.93,8.12A31.35,31.35,0,0,0,162,193.82c2.39,2.64,5.17,4.9,7.37,7.71l-1.88-2.43a16,16,0,0,1,2,3.42l-1.21-2.87a12.28,12.28,0,0,1,.74,2.65l-.43-3.19a12.17,12.17,0,0,1,0,3.19l.43-3.2a15.38,15.38,0,0,1-1,3.46l1.22-2.88a24.06,24.06,0,0,1-3,5l1.88-2.44c-2.7,3.4-6.09,6.12-9,9.31-4.07,4.44-7.63,9.73-8.57,15.81a32.81,32.81,0,0,0-.55,6.33,52.12,52.12,0,0,0,.79,6.36,48,48,0,0,0,2,7.16c1.68,4.9,3.5,9.76,5.25,14.63a12.88,12.88,0,0,0,5.52,7.19,12.35,12.35,0,0,0,9.27,1.21,12.19,12.19,0,0,0,7.18-5.53c1.45-2.73,2.3-6.24,1.21-9.26L177,243.9a58.68,58.68,0,0,1-3.21-11.17l.43,3.2a21.69,21.69,0,0,1-.09-5.4l-.43,3.2a16.74,16.74,0,0,1,1.11-4.12l-1.21,2.88a21.05,21.05,0,0,1,2.58-4.3l-1.88,2.43c4.9-6.24,11.82-10.7,15.35-18.06a27.76,27.76,0,0,0,2.75-8.67,22.92,22.92,0,0,0-.47-9.21c-1.25-4.65-4.05-8.62-7.29-12.1-2.36-2.53-5-4.75-7.15-7.49l1.88,2.43a18.34,18.34,0,0,1-2.27-3.93l1.21,2.87a19.27,19.27,0,0,1-1.13-4.21l.43,3.2a18.88,18.88,0,0,1,0-4.75l-.43,3.2a18,18,0,0,1,1.1-4.21l-1.21,2.87a18.11,18.11,0,0,1,2.23-3.86l-1.88,2.43a19.43,19.43,0,0,1,3.14-3.14l-2.44,1.88a19.23,19.23,0,0,1,4.16-2.42l-2.87,1.21a18.94,18.94,0,0,1,3.55-1c2.81-.51,5.8-3.15,7.19-5.53a12.27,12.27,0,0,0,1.21-9.26,12.14,12.14,0,0,0-5.52-7.18l-2.88-1.22a12.15,12.15,0,0,0-6.39,0Z" transform="translate(-12.5 -42.9)"/></g><g class="cls-6"><path class="cls-7" d="M206.35,225.34l6.43,29.29a12.16,12.16,0,0,0,5.52,7.18,12,12,0,0,0,16.45-4.31,13.1,13.1,0,0,0,1.21-9.26L229.53,219a12,12,0,0,0-22-2.87,13.05,13.05,0,0,0-1.21,9.26Z" transform="translate(-12.5 -42.9)"/></g><g class="cls-6"><path class="cls-7" d="M301.8,222.23c-11.69,10.72-8.88,32.13,5,39.65a12.19,12.19,0,0,0,17.66-7.19,762.23,762.23,0,0,0,19.7-79.1q2.16-11.21,4-22.47H325a94.72,94.72,0,0,1,5.64,21.7l-.43-3.2a97.54,97.54,0,0,1,0,25.49l.43-3.2a95.14,95.14,0,0,1-3.41,15.47c-1.58,5.07-4,9.87-5.41,15a31,31,0,0,0-1.31,9.93,29.36,29.36,0,0,0,2.94,11.47,21.9,21.9,0,0,0,7.66,8.49,20.92,20.92,0,0,0,11.14,3.29,25.38,25.38,0,0,0,11.42-2.86,27.57,27.57,0,0,0,7.59-5.53,39,39,0,0,0,9.33-16.56c3.14-11,1.89-22.94-1.24-33.78-3.32-11.53-8.76-22.5-10.42-34.48l.43,3.19a48.72,48.72,0,0,1-.11-12.48l-.43,3.19a34.42,34.42,0,0,1,2.24-8.46l-1.22,2.87a28,28,0,0,1,3.4-5.91l-1.88,2.43q.35-.47.72-.9l-14.57,1.88c.29.2.57.41.85.62l-2.43-1.88A24,24,0,0,1,350,153l-1.88-2.44a29.53,29.53,0,0,1,3.53,6.21l-1.21-2.88a54.51,54.51,0,0,1,3.36,13.5l-.43-3.2c1,7.41,1.2,14.86,2.35,22.26a57.14,57.14,0,0,0,2.23,9.49A43.93,43.93,0,0,0,363,206.73a35.89,35.89,0,0,0,11.32,10.89,12.08,12.08,0,0,0,13.35-.94c3.68-2.84,5.76-8,4.31-12.64l-17.7-56.12-22,9.27,30.07,40a9.17,9.17,0,0,0,3.1,3.38,9,9,0,0,0,4.08,2.15,12.35,12.35,0,0,0,9.27-1.21,12.17,12.17,0,0,0,5.52-7.19c.67-2.94.69-6.73-1.21-9.26l-30.07-40c-1.87-2.48-4-4.79-7.19-5.52a12.52,12.52,0,0,0-7.83.6c-5.3,2.24-8.77,8.43-7,14.19l17.71,56.11,17.66-13.57a24.93,24.93,0,0,1-2.27-1.52l2.44,1.88a22.72,22.72,0,0,1-4-4l1.88,2.43a29.75,29.75,0,0,1-3.65-6.39l1.21,2.87a55.14,55.14,0,0,1-3.44-13.68l.43,3.19c-.95-7.11-1.2-14.27-2.22-21.38-1-6.85-2.92-13.82-6.57-19.75a37.63,37.63,0,0,0-10.66-11.14l-2.87-1.21A9,9,0,0,0,352,128c-2.42.33-5.29,1.35-6.9,3.31a41.76,41.76,0,0,0-8.74,16.81A52.83,52.83,0,0,0,335,164.79a82.55,82.55,0,0,0,3.35,17.34c1.62,5.33,3.63,10.53,5.45,15.79a89.21,89.21,0,0,1,4.5,17.14l-.43-3.2a48,48,0,0,1,.11,12.61l.43-3.19a34.16,34.16,0,0,1-2.3,8.54l1.21-2.87a28.21,28.21,0,0,1-3.49,6l1.88-2.43a20.18,20.18,0,0,1-3.44,3.41L344.7,232a18.27,18.27,0,0,1-3.52,2.07l2.87-1.21a14.23,14.23,0,0,1-3.44,1l3.19-.43a11.24,11.24,0,0,1-2.78,0l3.19.43a11.08,11.08,0,0,1-2-.55l2.87,1.21a10.11,10.11,0,0,1-2.09-1.2l2.43,1.88a11.84,11.84,0,0,1-1.67-1.65L345.6,236a12.89,12.89,0,0,1-1.55-2.63l1.21,2.87a15.4,15.4,0,0,1-1-3.7l.42,3.2a18.17,18.17,0,0,1,0-4.83l-.43,3.19c.85-5.52,3.51-10.53,5.3-15.77a92.36,92.36,0,0,0,3.91-15.8,114.1,114.1,0,0,0,1.58-19,116.16,116.16,0,0,0-1.9-19,93.82,93.82,0,0,0-5-17.78l-1.21-2.87a9.06,9.06,0,0,0-3.1-3.37,11.42,11.42,0,0,0-7.28-2.58,14.14,14.14,0,0,0-6.07,1.64c-2.33,1.23-5.09,4.51-5.53,7.18a760,760,0,0,1-17.31,79.66q-3,11-6.37,21.91l17.66-7.18a13.14,13.14,0,0,1-1.5-1l2.44,1.88a11.81,11.81,0,0,1-2.07-2l1.88,2.44a13.76,13.76,0,0,1-1.76-3l1.21,2.87a15.69,15.69,0,0,1-.93-3.43l.43,3.2a15.51,15.51,0,0,1,0-3.85l-.43,3.19a14.32,14.32,0,0,1,.89-3.4l-1.21,2.87a12.35,12.35,0,0,1,1.44-2.52l-1.88,2.43a12.61,12.61,0,0,1,1.4-1.52,12,12,0,0,0-17-17Z" transform="translate(-12.5 -42.9)"/></g><g class="cls-6"><path class="cls-7" d="M228.33,66.58a44.36,44.36,0,0,0-23,7.57,79.74,79.74,0,0,0-16.49,15.33c-4.64,5.56-9.12,11.27-13.66,16.91s-9.12,11.16-13.55,16.84c-3.3,4.22-6.06,8.31-7.75,13.47a21.38,21.38,0,0,0,1.87,17.55,12.54,12.54,0,0,0,7.19,5.52,12.23,12.23,0,0,0,9.26-1.21,12.08,12.08,0,0,0,5.52-7.18,12.31,12.31,0,0,0-1.21-9.26,11.71,11.71,0,0,1-.71-1.36l1.21,2.87a9.56,9.56,0,0,1-.54-2.12l.43,3.2a11,11,0,0,1,.06-2.57l-.43,3.19a16.82,16.82,0,0,1,1.1-3.73l-1.21,2.88a32.87,32.87,0,0,1,4.09-6.68l-1.88,2.43c6.34-8.18,13-16.15,19.48-24.21,6-7.45,11.8-15.32,19.38-21.25l-2.43,1.88a41.67,41.67,0,0,1,9.12-5.38l-2.87,1.21A31.51,31.51,0,0,1,229,90.39l-3.19.42c.83-.1,1.67-.16,2.52-.19a12.61,12.61,0,0,0,8.5-3.52,12.27,12.27,0,0,0,3.52-8.5,12,12,0,0,0-12-12Z" transform="translate(-12.5 -42.9)"/></g><g class="cls-6"><path class="cls-7" d="M273.38,75.15a30.86,30.86,0,0,1,4.78-2.55l-2.87,1.21a31.74,31.74,0,0,1,7.84-2.08l-3.2.43a32.45,32.45,0,0,1,8.12,0l-3.19-.43a31.73,31.73,0,0,1,7.83,2.11l-2.88-1.21A80.92,80.92,0,0,1,297.5,77a25.56,25.56,0,0,0,6.41,2.69,21.7,21.7,0,0,0,9.75.14c7.22-1.32,11.88-7.17,17.3-11.49l-2.43,1.88a23.75,23.75,0,0,1,5.08-3l-2.87,1.22a25.85,25.85,0,0,1,6.35-1.72l-3.2.43a27.48,27.48,0,0,1,7,0l-3.2-.43A27,27,0,0,1,344,68.47l-2.88-1.21a24.81,24.81,0,0,1,5.1,2.93l-2.43-1.88c.64.5,1.26,1,1.85,1.59a12.56,12.56,0,0,0,8.5,3.52,12,12,0,0,0,8.5-20.52,32.81,32.81,0,0,0-9.38-6.4,41,41,0,0,0-6.67-2.44A46.74,46.74,0,0,0,339.46,43a36.38,36.38,0,0,0-11.66,1.13,41.16,41.16,0,0,0-6.64,2.5,22.59,22.59,0,0,0-3.78,2.12c-3.62,2.51-6.58,5.69-10,8.39l2.43-1.88a16.06,16.06,0,0,1-3.27,2L309.38,56a10.77,10.77,0,0,1-2.28.65l3.19-.43a10.11,10.11,0,0,1-2.2,0l3.2.43a12,12,0,0,1-2.7-.76l2.87,1.21c-3.33-1.46-6.16-3.82-9.51-5.28a45.64,45.64,0,0,0-7.46-2.72,51.23,51.23,0,0,0-8-1.19,41.92,41.92,0,0,0-13.2,1.22,39.67,39.67,0,0,0-12.06,5.21,12.76,12.76,0,0,0-5.53,7.18,12.3,12.3,0,0,0,1.22,9.27,12,12,0,0,0,16.44,4.31Z" transform="translate(-12.5 -42.9)"/></g><g class="cls-8"><path class="cls-9" d="M237.7,111.25c-10.72-1.12-21,8.51-20.57,19.27,0,.21.34.35.44.12.82-1.94,3.74-1.74,4.71,0,1.28,2.25-.31,4.85-2.16,6.15a20.72,20.72,0,0,1-5.69,2.4c-1.9.62-3.82,1.21-5.68,1.95-3.06,1.23-6.22,2.92-8.13,5.7a11,11,0,0,0-1.87,8.08c.52,2.82,2.43,4.48,5,5.52,1.63.65,3.67,1.2,4.59,2.84,1.19,2.12-.38,4.32-2.05,5.6-2.77,2.12-6.56,2.11-9.34,4.23-2.63,2-2.84,5.3-1.58,8.18,1.76,4,5.72,6.24,8.17,9.74,2,2.88,2.63,8.64-1.68,9.85a.24.24,0,0,0,.12.46c2.82-.79,3.87-3.84,3.58-6.53-.4-3.72-3.5-6.3-6-8.75-2.93-2.88-6.7-8.13-3-12,2.72-2.81,7.21-2.57,10.22-5,2.42-1.94,3.61-5.38.69-7.49-1.42-1-3.19-1.39-4.73-2.16a6.33,6.33,0,0,1-3.37-4.1,10.54,10.54,0,0,1,3.4-10.19c3.42-3,8-4.27,12.2-5.65,3.49-1.15,8.8-3,8.21-7.69a3.28,3.28,0,0,0-2.76-3,2.87,2.87,0,0,0-3.23,1.57l.44.12c-.4-10.53,9.63-19.89,20.1-18.79.3,0,.3-.45,0-.48Z" transform="translate(-12.5 -42.9)"/><path class="cls-9" d="M236.59,88.94a13.67,13.67,0,0,0-19.88,10.7c-.53,4.73,1.89,9.83.15,14.42-2.2,5.84-9.4,5.08-14.38,4.93-4.21-.13-9.52.67-11.26,5.18-1.36,3.53,1.35,6.3,3.72,8.53,1.38,1.3,2.93,2.66,3.61,4.49.92,2.5-.35,4.89-2.15,6.61-3.18,3-8.35,4.18-10.3,8.46-2.49,5.48,2.19,10.94,4.08,15.78,1.07,2.75,1.6,6.08-.5,8.47-1.61,1.83-4.59,3-6.57,1.07-.22-.21-.56.12-.34.34,2.49,2.43,6.32.58,7.92-2,2.55-4.08-.5-9.21-2.4-12.87-1.32-2.53-2.6-5.39-2.35-8.32s2.35-5,4.72-6.52c3.28-2.12,8.14-4.18,8.65-8.64.41-3.63-2.81-6-5.11-8.25-1.4-1.38-2.81-3-2.87-5.1-.08-2.71,2.16-4.87,4.48-5.88,5.06-2.22,10.85.22,16.07-1.37a8.32,8.32,0,0,0,4.78-3.44,10.17,10.17,0,0,0,1.22-6c-.13-2.77-.76-5.49-.78-8.26a13.26,13.26,0,0,1,19.25-12c.27.14.51-.27.24-.41Z" transform="translate(-12.5 -42.9)"/><path class="cls-9" d="M235.14,82.36a30.84,30.84,0,0,0-22.42,1.55c-6,2.85-13.27,8.88-12.09,16.35.54,3.39,2.86,6.55,6.34,7.24l-.1-.4c-3.89,4.36-9.51,6.25-14.85,8.2-4.82,1.77-9.61,3.86-13.12,7.76a12.22,12.22,0,0,0-2.49,13.16c1,2.58,2.42,5,3.12,7.68.88,3.32.06,6.54-1.5,9.52a98.46,98.46,0,0,1-5.95,9.22l-6.67,9.92c-.17.25.24.49.41.24,3.82-5.68,7.86-11.26,11.44-17.08a19.27,19.27,0,0,0,3-7.5,14.29,14.29,0,0,0-1.38-7.46c-1.16-2.71-2.71-5.38-3-8.37a11.2,11.2,0,0,1,2.25-7.67c3.29-4.54,8.52-6.94,13.62-8.82,5.52-2,11.39-3.94,15.43-8.46a.24.24,0,0,0-.11-.4,8,8,0,0,1-5.95-6.58c-.71-3.7,1-7.33,3.46-10,4.64-5.25,11.72-8.27,18.62-8.89A29.92,29.92,0,0,1,235,82.82c.29.1.42-.36.13-.46Z" transform="translate(-12.5 -42.9)"/><path class="cls-9" d="M180.72,167.76c-7.48,2.05-12.26,10-11.74,17.54.28,4.06,2.23,7.28,4.85,10.27,2.87,3.27,6.95,6.73,7.2,11.4.29,5.26-4.58,8.61-8,11.76-3,2.72-6.34,7.3-4.52,11.53,1.48,3.47,5.56,4.62,8.35,6.74,1.59,1.21,2.7,2.9,2.17,5s-2.47,3.47-3.91,4.87-2.88,3.18-3,5.42c-.12,2.76,1.41,5.31,3,7.43s3.91,4.6,4.46,7.5c.49,2.63-.71,6-3.65,6.46-.3.05-.17.51.13.46,4-.62,4.76-5.53,3.48-8.66-1.93-4.69-8.51-8.94-6.7-14.65,1.18-3.75,6.16-5.22,6.72-9.25.48-3.42-2.78-5.27-5.3-6.73a15.08,15.08,0,0,1-4.61-3.49c-1.8-2.34-1.31-5.3,0-7.73,2.39-4.41,7.08-6.71,9.94-10.73,2.51-3.53,2.32-7.59,0-11.15-2.46-3.78-6.23-6.55-8.45-10.5-4.72-8.42.42-20.46,9.67-23a.24.24,0,0,0-.13-.46Z" transform="translate(-12.5 -42.9)"/><path class="cls-9" d="M194.56,201.07A9,9,0,0,0,190,215c1.93,2.54,5,3,7.46,4.74,4.27,3,.8,7.59-2,10.09-2.16,1.91-4.88,4.32-4.66,7.49s3,5,5.3,6.55c2.81,2,6.44,5.65,3.28,9-1.74,1.83-4.29,2.6-6.16,4.26-2.52,2.25-2.08,5.26-.37,7.89s6.19,7.45,2.49,10.33c-.24.19.1.52.34.33,2.06-1.6,1.57-4.42.57-6.51-1.48-3.05-5.85-6.26-4-10.06s9.78-4.39,8.79-9.93c-.57-3.17-3.71-4.92-6.06-6.67-1.49-1.11-3.08-2.47-3.56-4.35-.53-2.06.49-3.95,1.8-5.46,2.17-2.5,5.27-4.27,6.45-7.53,1-2.71-.39-5-2.77-6.32-1.5-.83-3.18-1.33-4.6-2.31a8.68,8.68,0,0,1-3.48-5.18,8.48,8.48,0,0,1,5.88-9.83c.29-.09.16-.55-.13-.46Z" transform="translate(-12.5 -42.9)"/><path class="cls-9" d="M208.36,211.32c2.06,1.06,1.84,3.72,1.19,5.6-.75,2.15-2.32,4-2.63,6.28a5,5,0,0,0,2,4.54c1.94,1.66,3.64,3.12,3.46,5.92-.32,4.82-4.44,8.23-6,12.61a7.38,7.38,0,0,0,0,5.43,10.94,10.94,0,0,0,3.7,3.89c2,1.52,3.68,3.25,3.53,5.92a6.18,6.18,0,0,1-4,5.53c-.29.1-.16.56.13.46a6.73,6.73,0,0,0,4.13-8.13c-1.39-4.54-7.94-5.25-7.47-10.75.45-5.28,5.44-8.8,6.36-14a6.18,6.18,0,0,0-1.2-5.24c-1.8-2.13-4.75-3.15-4.09-6.52.53-2.66,2.54-4.72,3-7.42.26-1.78-.08-3.69-1.8-4.57-.27-.14-.52.27-.24.41Z" transform="translate(-12.5 -42.9)"/><path class="cls-9" d="M226.06,227.5c-2.1,1.36-1.19,4.29.16,5.87,1.15,1.35,2.82,2.49,3.37,4.26a4.59,4.59,0,0,1-.67,3.8c-2.22,3.61-8.07,7.45-4,12a22.89,22.89,0,0,0,4,3.11c1.92,1.36,4.17,3.89,2.89,6.37-.14.27.27.51.41.24,1.34-2.6-.71-5.26-2.73-6.79-2.44-1.83-6.37-3.74-5.38-7.47,1.08-4,7.69-7,5.78-11.73a12.34,12.34,0,0,0-2.88-3.6c-1.29-1.35-2.88-4.27-.75-5.66.26-.17,0-.58-.24-.41Z" transform="translate(-12.5 -42.9)"/><path class="cls-9" d="M162.53,186.43a20.44,20.44,0,0,0-3.59,14.36,10.56,10.56,0,0,0,2.09,3.63c2.28,3,4.89,5.59,6.42,9.07a11.3,11.3,0,0,1,.44,8.76c-.83,2.18-2.67,3.87-2,6.36.74,2.91,3.75,5.75,2.94,8.92-.89,3.49-4.28,5.69-5.7,8.92-1.27,2.88-.2,5.56,1.93,7.67,1.45,1.44,3.15,2.61,4.53,4.13a9.25,9.25,0,0,1,2.34,5.53,10.29,10.29,0,0,1-5.23,9.9c-.27.14,0,.55.24.41,5.37-2.77,7.28-10.55,3.61-15.43-2.13-2.81-6.19-4.51-7.29-8-1.18-3.82,2.26-6.8,4.27-9.58a8.74,8.74,0,0,0,1.88-4.11,7.71,7.71,0,0,0-1-3.93,25.18,25.18,0,0,1-2.05-4.52c-.41-1.62.3-2.66,1.05-4a12,12,0,0,0,1.7-6.58c-.21-3.57-2.11-6.83-4.24-9.61-1-1.35-2.2-2.6-3.25-3.94a16.28,16.28,0,0,1-1.72-2.55,5.88,5.88,0,0,1-.54-2.93,24.7,24.7,0,0,1,.61-6.36,17.53,17.53,0,0,1,3-5.83c.19-.25-.23-.49-.41-.24Z" transform="translate(-12.5 -42.9)"/><path class="cls-9" d="M321,173.39c1.27-1.94,4.07-1.73,5.72-.41,2.08,1.68,2.06,4.79,1.42,7.14-.68,2.52-2.15,4.72-3.22,7.07a18.35,18.35,0,0,0-1.58,6.6c-.27,5.24,1.16,10.49,2.19,15.59a103.7,103.7,0,0,0,3.2,13.6c1.43,4.1,3.64,7.93,7.34,10.36l.06-.43c-5.58,2-8.14,9-6.18,14.37,1.21,3.36,4.13,4.76,6.62,7.05,1.77,1.63,2.69,3.81,1,5.91-1.25,1.54-3.14,2.42-4.26,4.09-.88,1.31-1.11,3,.24,4.09a2,2,0,0,0,3-.18c.17-.25-.24-.49-.41-.24-.69,1-2,.47-2.65-.28-.86-1-.38-2.33.3-3.28,1.07-1.49,2.76-2.35,4-3.72,1.77-2,1.39-4.41-.4-6.27-2.07-2.15-5-3.37-6.42-6.09a11,11,0,0,1-.74-8,10,10,0,0,1,6-6.95.24.24,0,0,0,.06-.44c-4-2.64-6.2-7-7.58-11.47-1.53-5-2.34-10.23-3.38-15.35-1.13-5.64-2.59-11.73-.56-17.34,1.55-4.31,5.35-8.57,3.93-13.47a5.12,5.12,0,0,0-3.91-3.72,4,4,0,0,0-4.23,1.57c-.17.25.25.49.42.24Z" transform="translate(-12.5 -42.9)"/><path class="cls-9" d="M307.61,226.05c-.15-1.78,1.46-3.55,3.32-2.93,2.18.72,2.28,3.22.89,4.73-1.79,1.94-4.7,2.23-6.61,4.07a9.2,9.2,0,0,0-1.47,11.43,9.61,9.61,0,0,0,4.79,3.7,9,9,0,0,0,3.16.52c1.44,0,2.8-.55,4.23-.7s3.48.22,3.93,1.87c.53,1.95-1.67,3.15-3,4-1.69,1-2.94,2.37-2.9,4.47.11,6,6.91,7.16,11.57,7.5.31,0,.31-.46,0-.48-3.13-.23-6.86-.47-9.23-2.82-2-2-2.75-5.45-.41-7.43,1.61-1.36,4.8-2.29,4.52-5-.21-2-2.54-2.74-4.24-2.61-1.5.11-2.94.67-4.45.71a8.56,8.56,0,0,1-4.26-1,8.46,8.46,0,0,1-4.57-6.7A9,9,0,0,1,305.8,232c2-1.78,5.11-2,6.74-4.29a3.21,3.21,0,0,0-1.49-5.07,3.14,3.14,0,0,0-3.91,3.39c0,.3.5.31.47,0Z" transform="translate(-12.5 -42.9)"/><path class="cls-9" d="M332.44,181.35c.52-1.75,2.47-2.26,4.09-1.88a4.3,4.3,0,0,1,3.07,4.43c0,4.57-3.85,7.56-6.06,11.13-1.69,2.73-2.56,6.48-.26,9.13s6.12,3,8.88,5c1.78,1.29,3,3.22,2.27,5.46-.59,1.87-2.07,3.24-3,4.92-1.21,2.18-1.63,5.6,1.32,6.55,1.76.57,3.89-.06,5.42,1.18s1.29,3.21.75,4.77c-1.16,3.41-4.62,5.07-6.44,8.05-2.07,3.41-.39,7,2.34,9.42,3.17,2.83,7.64,4.16,9.83,8,.15.26.57,0,.41-.24-1.88-3.33-5.41-4.84-8.41-6.95a11.06,11.06,0,0,1-4.39-5.24c-.75-2.27.16-4.41,1.64-6.13,2.21-2.56,5.2-4.43,5.78-8a4.65,4.65,0,0,0-.59-3.42,4.56,4.56,0,0,0-3.65-1.59,7.41,7.41,0,0,1-3.13-.57A3,3,0,0,1,341,222.2c.27-2.08,1.65-3.58,2.76-5.25a6.32,6.32,0,0,0,1.32-4.51,5.88,5.88,0,0,0-2.39-3.52c-3-2.32-8.17-2.56-9.87-6.38-2.08-4.66,2.5-8.91,4.93-12.33,2-2.74,3.87-7.69.66-10.35-1.95-1.61-5.62-1.33-6.42,1.36-.09.29.37.42.46.13Z" transform="translate(-12.5 -42.9)"/><path class="cls-9" d="M341.14,163.31c3.63-.36,6,3.39,6.19,6.65.22,3.91-2.06,7.53-3.37,11.07-1,2.78-1.61,6.1-.45,8.93,1,2.33,3,3.62,5.32,4.43s5,1.18,7.25,2.44a4.88,4.88,0,0,1,2.44,2.92c.55,2-.4,3.92-1.59,5.49-2,2.57-4.68,4.47-5.82,7.61-.92,2.53-.21,5.15,2.4,6.23,1.62.68,3.42.7,5.08,1.25a8.79,8.79,0,0,1,4.71,3.81,8.69,8.69,0,0,1-2.53,11.44c-.25.18,0,.59.24.41a9.16,9.16,0,0,0-.62-15.37c-2.8-1.62-8.3-.8-9.15-4.75s3.47-7.15,5.69-9.86c1.77-2.17,3.14-5.09,1.45-7.72-1.25-2-3.69-2.68-5.8-3.28-2.72-.78-5.92-1.39-7.76-3.74-2.54-3.26-1.34-7.88.08-11.33,1.5-3.67,3.74-7.75,2.6-11.83-.79-2.87-3.16-5.59-6.36-5.27-.31,0-.31.5,0,.47Z" transform="translate(-12.5 -42.9)"/><path class="cls-9" d="M348,159.85a4.93,4.93,0,0,1,8.33,4.88c-.57,1.75-2.06,3.15-2.32,5a3.27,3.27,0,0,0,1.79,3.34c1.68.95,3.6.68,5.45.7a7.54,7.54,0,0,1,5.82,2.63,7.24,7.24,0,0,1-2.35,11l.24.41c3.42-2.31,7.42,1,8.27,4.37,1,4.19-.76,8.41-1.36,12.52-.48,3.24-.12,6.44,2,9.06a10.4,10.4,0,0,0,7.77,3.91c.3,0,.3-.47,0-.48a9.94,9.94,0,0,1-8.92-6.41c-1.55-4.3.42-8.82,1.06-13.1.48-3.11.4-6.77-2-9.13-1.85-1.82-4.77-2.69-7.05-1.15a.24.24,0,0,0,.24.41,7.65,7.65,0,0,0-.91-14.11c-1.94-.69-4-.25-5.95-.46-2.56-.28-4.39-2.15-3.22-4.73.71-1.56,1.91-2.91,2.12-4.67a5.66,5.66,0,0,0-.95-3.83,5.47,5.47,0,0,0-8.38-.54c-.22.22.12.56.33.34Z" transform="translate(-12.5 -42.9)"/><path class="cls-9" d="M315.38,140.9c-1.53.32-2.4-1.62-2-2.88s1.9-2.09,3.1-2.6c2.25-.94,5.4-2.19,7.72-.83,2.95,1.72,2.18,5.66,1.09,8.24a53.57,53.57,0,0,0-3.05,7.46c-.95,3.69-.42,8.41,3.16,10.54,2.12,1.27,4.63.84,6.94,1.37,2.52.59,4.05,2.58,5,4.89a27.63,27.63,0,0,1,1.66,7.45c.23,2.63,0,5.44-2.19,7.23-.24.2.1.54.34.34,3.85-3.21,2.35-9.69,1.1-13.82a10.13,10.13,0,0,0-3.36-5.49c-2.62-1.9-6-.8-8.75-2.13s-4-4.77-3.81-7.72c.22-3.57,2.06-6.69,3.43-9.91,1-2.36,1.68-5.25.12-7.55-1.43-2.11-4-2.19-6.3-1.61s-5.52,1.48-6.5,3.75c-.72,1.66.46,4.15,2.48,3.73.3-.06.17-.52-.13-.46Z" transform="translate(-12.5 -42.9)"/><path class="cls-9" d="M247.31,115.4A62.92,62.92,0,0,1,265.4,97.33c3.23-2.11,8.57-5.4,12.18-2.26,3.26,2.84,1.61,7.81-.41,10.81-2.2,3.28-5.44,6.23-6,10.34-.42,2.93,1.15,6,4.27,6.52,3.4.55,3.94-3,6.09-4.65,3.53-2.65,5.11,4.92,6.4,6.81a61.28,61.28,0,0,0,4.74,5.58,27.12,27.12,0,0,0,4.53,4.43c2.79,2,7.12,2.59,9.46-.42.18-.24-.15-.58-.34-.34-3,3.9-8.21,1.3-10.95-1.43-1.6-1.6-3.05-3.36-4.54-5.06A19.31,19.31,0,0,1,287,122.1c-.77-2-1.83-5.48-4.61-4.94-3.24.64-3.26,6.1-7.3,5a4.91,4.91,0,0,1-3.56-4.71,10.87,10.87,0,0,1,2.3-6.33c2.17-3.18,5.27-6.06,5.9-10,.47-2.9-.46-6.19-3.41-7.35-3.29-1.3-7,.56-9.78,2.26a63.42,63.42,0,0,0-19.66,19.13c-.17.25.25.49.41.24Z" transform="translate(-12.5 -42.9)"/><path class="cls-9" d="M245.2,102.35a40.4,40.4,0,0,1,7-10.74,33.16,33.16,0,0,1,10.26-8c2.24-1,5-1.42,7.13,0,1.71,1.12,2.08,3.07,2.48,4.92.49,2.24,1.7,5.35,4.65,4.21,3.71-1.43,3.5-7.11,7.37-8.26,4-1.19,3.12,5.13,3.41,7.22.33,2.38,2.49,3.93,4.64,2.24a8.76,8.76,0,0,0,2.51-4.15c.78-2.1,2.31-5,5.05-3.64,2.31,1.14,2.87,3.84,3.87,6a7,7,0,0,0,3.88,3.72c4.54,1.7,9-.9,12.76-3.25.26-.16,0-.57-.24-.41-3.83,2.4-8.82,5.31-13.31,2.77-3.66-2.08-3-7.73-7-9.34-3.41-1.37-4.85,2.59-5.77,5-.68,1.77-3.11,5.15-5.16,2.89-.94-1-.81-2.79-.82-4.08,0-2.08-.12-5.39-2.93-5.53-3.73-.2-4.84,5.11-6.83,7.25-1.63,1.75-4,1.74-5-.63-.6-1.48-.67-3.13-1.21-4.63-1.2-3.31-4.87-4.26-8-3.33-4.31,1.28-8.28,4.81-11.33,8a40.85,40.85,0,0,0-7.75,11.56c-.12.28.29.52.41.24Z" transform="translate(-12.5 -42.9)"/><path class="cls-9" d="M242,83.88a29.42,29.42,0,0,1,9.78-16.28c2.44-2,5.52-4.18,8.82-4.21s4.85,2.46,4.94,5.38c.11,3.6-2.07,9.08,1,12a5,5,0,0,0,5.85.42c2.53-1.35,3.79-3.84,4.74-6.44,1.3-3.53,2.59-8.17,6.82-9.18,4.43-1.06,6.14,4,5.07,7.45l.47.06a6.29,6.29,0,0,1,5.64-6.53,6.52,6.52,0,0,1,6.59,4.85c.66,2.06.85,4.53,2.43,6.16s3.86,1.57,5.79.69C314.84,76,316.24,67.49,322.54,68c3.78.32,3.41,4.3,3.56,7.07.11,2.08.83,4,2.88,4.89a6.66,6.66,0,0,0,6.48-1.06c2.34-1.83,3.53-4.67,4.65-7.33l-.47-.07a10.78,10.78,0,0,0,17.05,9c.26-.18,0-.59-.24-.42a10.3,10.3,0,0,1-16.33-8.58c0-.29-.38-.29-.47-.06-1.2,2.87-2.6,6.29-5.54,7.77-2.51,1.27-6.23.87-7.21-2.15-.76-2.34.14-5-.93-7.25a4.32,4.32,0,0,0-4.77-2.22c-6,.94-6.78,8.78-12.34,10.51a4.23,4.23,0,0,1-4.4-.92,8.48,8.48,0,0,1-1.77-4c-.57-2.17-1.13-4.32-3-5.74A6.68,6.68,0,0,0,289,73.06a.24.24,0,0,0,.47.07c.72-2.29.48-5.13-1.3-6.89-2-2-4.93-1.41-7,.18-2.73,2.14-3.52,5.5-4.7,8.59s-4.07,7.49-8.12,6.29c-2.89-.87-3.06-4.09-2.85-6.59s.73-4.8.36-7.18A5.14,5.14,0,0,0,261.66,63c-3-.48-6,1.16-8.37,2.84a29.76,29.76,0,0,0-11.77,17.93c-.07.29.39.42.46.12Z" transform="translate(-12.5 -42.9)"/><path class="cls-9" d="M315.36,117.54c1.56-3.41,3.52-7.72,7.53-8.71a6.13,6.13,0,0,1,5,.78c2,1.46,1.78,4,1.52,6.16-.29,2.4-.2,6.48,3.1,6.68,3.87.24,4.9-4.91,7.48-6.72s5.44.22,6.37,2.72c1,2.7,0,5.71-.86,8.3a.24.24,0,0,0,.35.27l9.8-5.48-.35-.27c-1.19,5.55-2.35,13.74,3.95,16.82,5.6,2.74,10.66-2.94,13.65-6.94.19-.25-.23-.49-.41-.24-2.89,3.87-7.92,9.56-13.31,6.61-5.78-3.16-4.55-10.85-3.42-16.13a.24.24,0,0,0-.35-.27l-9.8,5.49.35.27c1.24-3.81,2.52-9-1.61-11.62a4.1,4.1,0,0,0-4.46,0c-1.59,1-2.39,2.81-3.48,4.28-.82,1.12-2.07,2.36-3.54,2.46a2.94,2.94,0,0,1-2.91-2.43c-.66-2.23.29-4.49.1-6.75-.27-3.31-3.28-5-6.38-4.58-4.68.55-7,5.29-8.72,9.09-.13.28.28.52.41.24Z" transform="translate(-12.5 -42.9)"/><path class="cls-9" d="M314.68,101.22c3.32-3.6,9.13-9,14.18-4.92,3.43,2.8,3,8.26,2.57,12.19,0,.28.38.3.46.06,1-2.82,2.18-6,4.8-7.72,2.39-1.59,5.57-1.57,7.38.88,2.67,3.64,1.39,8.63,2.45,12.76a7.4,7.4,0,0,0,2.74,4.42,5.86,5.86,0,0,0,5.64.33c5.12-2.15,6.46-8.48,11.39-10.83a5.72,5.72,0,0,1,5-.18c1.14.58,2.07,1.56,3.29,2,1.42.47,3.33-.06,3.52-1.73,0-.3-.44-.3-.47,0-.22,1.86-2.6,1.51-3.71.89a23.53,23.53,0,0,0-3-1.79,6.78,6.78,0,0,0-5.95,1c-4.44,2.83-5.94,9.31-11.44,10.62-6.3,1.51-7-6.08-7.22-10.37-.14-3.35-.8-7.93-4.44-9.26a6.57,6.57,0,0,0-6.47,1.64c-2.11,1.88-3.11,4.68-4.06,7.27l.47.06c.5-4.2.82-10.12-3.14-12.86-5.32-3.68-11,1.54-14.41,5.25-.21.23.12.57.33.34Z" transform="translate(-12.5 -42.9)"/><path class="cls-9" d="M283.13,63.65c-3.12-4.24-.26-10.74,5.18-10.66a6.86,6.86,0,0,1,6.13,3.83c.88,1.78,1.48,4,3.51,4.75a5.55,5.55,0,0,0,5.18-1.07,10.3,10.3,0,0,0,3.45-5.29c.92-2.75,1.45-5.75,3.4-8a10.67,10.67,0,0,1,6.88-3.56c6.17-.65,11.38,4.78,11,10.85a.24.24,0,0,0,.44.12c1.59-3.45,4-8.06,8.55-7.36s3.28,5.63,2.61,8.69c-.53,2.4-1,5.38,1.09,7.21s5.08,1.38,7.16.08c3.34-2.1,4.23-6.5,4.93-10.09l-.46-.06A15.5,15.5,0,0,0,376.9,65.19c.25-.18,0-.59-.24-.41a15,15,0,0,1-24-11.71c0-.26-.41-.34-.47-.06-.7,3.57-1.57,8.15-5.11,10-3.28,1.74-7.55.44-7.6-3.7,0-2.94,1.55-5.77,1.17-8.73a4.54,4.54,0,0,0-5.42-3.84c-3.93.55-5.84,4.36-7.33,7.59l.44.12a10.62,10.62,0,0,0-20.17-5.4c-1.38,2.79-1.65,6.05-3.25,8.75-1.38,2.3-4.83,4.74-7.48,3-1.27-.85-1.77-2.38-2.38-3.71a7.57,7.57,0,0,0-2.17-3,7.7,7.7,0,0,0-5.77-1.51c-5.19.74-7.43,7.2-4.42,11.29.18.25.59,0,.41-.24Z" transform="translate(-12.5 -42.9)"/><path class="cls-9" d="M349.9,85.66a2.93,2.93,0,0,1,2.5-2.4,4.09,4.09,0,0,1,4,1.54c2,2.38,2,5.66,2.64,8.54.5,2.22,1.55,4.49,3.68,5.58a4.52,4.52,0,0,0,5.11-.76c2-1.7,3-4.33,5.2-5.82,1.29-.88,3.12-1.46,4.42-.23,1.05,1,1.06,2.55,1,3.91,0,2-.24,4,.94,5.8a7.64,7.64,0,0,0,4.78,3c5.77,1.21,10.33-3.37,13.93-7.2.21-.22-.13-.56-.34-.33-3.71,3.94-8.61,8.83-14.54,6.77a6.07,6.07,0,0,1-4.35-6c0-1.88.48-4.21-.72-5.85s-3.44-1.49-5.08-.51c-2.17,1.31-3.19,3.6-4.87,5.39A5,5,0,0,1,364.63,99a5.08,5.08,0,0,1-4-2.7c-1.63-2.65-1.35-6-2.32-8.86-.69-2.07-2.13-4.32-4.48-4.65-1.9-.27-4.06.76-4.37,2.79-.05.3.41.43.46.13Z" transform="translate(-12.5 -42.9)"/><path class="cls-9" d="M359.74,117.27a5,5,0,0,1,7.28,0c1.93,2.27.81,5.8,2.83,8.06,1.56,1.73,4.24,1.9,6.31,1.13,2.67-1,4.49-3.4,6.15-5.58l-.44,0a10.92,10.92,0,0,0,9.06,9.13c.3,0,.42-.41.12-.46a10.46,10.46,0,0,1-8.72-8.8c0-.23-.33-.2-.43-.06-2,2.6-4.36,5.65-7.92,5.77a4.61,4.61,0,0,1-4.17-1.93c-.87-1.37-.89-3.08-1.2-4.62a5.31,5.31,0,0,0-9.2-2.93c-.2.24.13.57.33.34Z" transform="translate(-12.5 -42.9)"/><path class="cls-9" d="M292.58,117.39c3.62-2.08,7.68-4.4,12-3.65a7.69,7.69,0,0,1,4.9,2.74c1.28,1.67,1.49,3.81,1.77,5.83.37,2.65,1.28,6.22,4.29,7,2.81.73,4.82-1.94,7.12-3a3.41,3.41,0,0,1,4.64,1.72c.88,1.74.78,3.65.71,5.54-.12,2.91.21,5.64,2.71,7.45,2,1.42,4.45,2,6.73,2.72s5.25,1.74,6.19,4.3c1.15,3.15-1.93,8.24,1.46,10.66,2.17,1.54,5.15-.65,4.8-3.13,0-.3-.5-.17-.46.13.32,2.26-2.65,4-4.36,2.36-1.47-1.42-1.17-3.76-.91-5.56.39-2.68.39-5.24-1.88-7-3.71-2.94-9.95-2.21-12.79-6.33-2.11-3.07-.26-7-1.39-10.38-.76-2.22-2.67-3.9-5.1-3.09-2.65.88-5.11,4.56-8.17,2.84-3.48-2-2.8-6.76-3.81-10a7.91,7.91,0,0,0-7.1-5.35c-4.21-.42-8.09,1.79-11.61,3.81a.24.24,0,0,0,.24.41Z" transform="translate(-12.5 -42.9)"/><path class="cls-9" d="M343.93,143c1.3-3.14,5.44-3.28,8.1-1.95,3.31,1.67,4.69,5.63,5.78,8.91,1,3,2,6.13,4.09,8.61a9,9,0,0,0,7.56,3.12c2.92-.1,7.06-1.32,9.44,1,2.83,2.71.49,7.11-.17,10.25-1.45,6.89,4.46,11,9.65,14.12l6.51,3.94c2.08,1.26,4.13,2.67,6.32,3.73a6.64,6.64,0,0,0,5,.65,3.81,3.81,0,0,0,2.68-2.95c.05-.3-.41-.43-.46-.12-.39,2.41-3.08,3.2-5.18,2.68s-4-1.9-5.79-3c-3.67-2.22-7.4-4.36-11-6.69-3-1.91-6.23-4.39-7.23-8s1-6.81,1.44-10.24c.32-2.54-.72-5-3.3-5.87-2.85-.93-6,.09-8.93,0-8.21-.23-9-9.86-11.78-15.59-1.39-2.87-3.57-5.29-6.86-5.77-2.55-.37-5.27.49-6.31,3-.12.28.34.4.46.13Z" transform="translate(-12.5 -42.9)"/></g><path class="cls-5" d="M285.73,161.75a11.61,11.61,0,0,1,11.43-5.16c2,.31,4.3,1.08,6.15-.12a2.94,2.94,0,0,0,1.32-3.72c-.14-.28-.57,0-.43.25a2.44,2.44,0,0,1-1.14,3,5.31,5.31,0,0,1-3.82.43,17.39,17.39,0,0,0-5.52-.39,12.13,12.13,0,0,0-8.41,5.42c-.17.27.25.52.42.25Z" transform="translate(-12.5 -42.9)"/><path class="cls-5" d="M297.63,156.73a3.49,3.49,0,0,0,3.9-2.48,3,3,0,0,0,.05-1.44c-.06-.31-.54-.18-.48.13a2.94,2.94,0,0,1-3.34,3.31c-.31-.06-.44.41-.13.48Z" transform="translate(-12.5 -42.9)"/><path class="cls-5" d="M250.39,161.11a19.05,19.05,0,0,0-14.33-3.71A18.33,18.33,0,0,0,229,160c-1.41.88-2.95,2.1-4.7,2.05-1.58-.05-3.48-1.85-2.36-3.43.18-.26-.25-.51-.43-.25-1.16,1.64.41,3.68,2.12,4.09,2.79.66,5.46-2.16,7.8-3.21A18.59,18.59,0,0,1,250,161.46c.24.2.6-.15.35-.35Z" transform="translate(-12.5 -42.9)"/><path class="cls-5" d="M229.91,159c-1.64,1.67-5.09.35-5.17-2a.25.25,0,0,0-.49,0c.07,2.17,2.48,3.58,4.48,3.18a2.91,2.91,0,0,0,1.53-.82.25.25,0,0,0-.35-.35Z" transform="translate(-12.5 -42.9)"/><path class="cls-10" d="M224.49,263.79s-18.42,5.06-22.25,8.07-11,9.17-13,22.65-9.64,75.58-9.64,75.58,1.72,5.62-3.58,10.92-7.41,8.25-30.17,4l-38.5-7.14s8.16,6.73,6.95,15.32-1.38,10.94-3.84,14.11-7.08,8.41-13.9,9.72l15,7.77,17.53,7.49s22.34,8,35.54,8.6,23.3.8,27.34-.56a11.6,11.6,0,0,0,6-5l2.34-6.28-.94,10.47-12.19,30.57-4,11.21s-1,5.89,3.49,9.08,34.51,18.05,74.74,16.88,52.16-6.62,60.13-11.95a195.59,195.59,0,0,0,22.58-18.74c1.95-2.17,2.86-3.23,2.86-3.23l2.35-2.47,3.87-3.87c2.74-2.75,2.77-5.25,2.77-5.25s2.89-4.92-9.17-22.86l-8.23-12.25s6.88-3.47,9.63-7.8,6-4.68,6.81-20.09,1.24-46.09-.39-63.14-2.77-24.72-4.48-36c-1.55-10.19-12.13-23.93-23.72-29.57l-11.59-5.63a28,28,0,0,1-11.14,7.83c-7.06,2.68-32.57,2.44-32.57,2.44s-20.41-1.55-23.11-2.18-15.34-4.13-21.8-9.49Z" transform="translate(-12.5 -42.9)"/><g class="cls-2"><path class="cls-11" d="M135.05,427.68a259,259,0,0,1,51.78-1.34c4.87.36,9.72.87,14.56,1.5a17.46,17.46,0,0,0,11.13-4.61,16,16,0,0,0,4.61-11.13c-.18-4.07-1.52-8.3-4.61-11.14l-3.18-2.46a15.76,15.76,0,0,0-8-2.15,258.86,258.86,0,0,0-51.76-1.59q-7.31.5-14.58,1.43a11.79,11.79,0,0,0-6.06,1.35,11.74,11.74,0,0,0-5.07,3.26,16,16,0,0,0-4.61,11.13c.18,4.07,1.52,8.3,4.61,11.14l3.19,2.46a15.69,15.69,0,0,0,7.94,2.15Z" transform="translate(-12.5 -42.9)"/></g><g class="cls-2"><path class="cls-11" d="M208.79,310.67A111.17,111.17,0,0,0,245.72,323a124.68,124.68,0,0,0,21.83,1.49,126,126,0,0,0,21.71-2.79,95.21,95.21,0,0,0,9.53-2.61,59.07,59.07,0,0,1,10.28-2.75l-5.32.72a20.14,20.14,0,0,1,4.72,0l-5.32-.72a17.4,17.4,0,0,1,3.83,1l-4.78-2a13.12,13.12,0,0,1,2.76,1.55l-4-3.13a11.48,11.48,0,0,1,2,2l-3.13-4.05a10.14,10.14,0,0,1,1,1.77l-2-4.78a9.83,9.83,0,0,1,.68,2.44l-.71-5.31a11.18,11.18,0,0,1,0,2.52l.71-5.31a13.1,13.1,0,0,1-.84,3.12l2-4.78a16.35,16.35,0,0,1-2.05,3.46l3.13-4.05a17,17,0,0,1-2.66,2.64l4.05-3.13a15.25,15.25,0,0,1-3.18,1.89l4.77-2a23.09,23.09,0,0,1-5.42,1.45l5.32-.72a41,41,0,0,1-10.5-.25l5.31.71c-8-1.09-16-2.63-23.95-4l-24-4.05-12.27-2.06a91.2,91.2,0,0,0-13.58-1.63A42,42,0,0,0,213,291.11c-5.17,1.55-10.82,4.4-14.35,8.62A30.25,30.25,0,0,0,192,311.2a23.94,23.94,0,0,0-1.13,9.66A39.45,39.45,0,0,0,192,328a48.74,48.74,0,0,0,2.69,6.53,30.81,30.81,0,0,0,5.71,7.78c7.21,7.5,17.5,10.7,27.16,13.67q11.34,3.5,22.94,6.06a165.66,165.66,0,0,0,26.09,4.1c10.3.59,20.92-1.3,30-6.33a50.78,50.78,0,0,0,11.54-9.22,72.83,72.83,0,0,1,6.91-6.7L321,347a18.63,18.63,0,0,1,3.83-2.3l-4.78,2a13,13,0,0,1,3.05-.82l-5.32.72a10.92,10.92,0,0,1,2.74,0l-5.31-.72a10.43,10.43,0,0,1,2.12.59l-4.78-2a11.16,11.16,0,0,1,2.34,1.36l-4.05-3.13a12.86,12.86,0,0,1,2.13,2.17l-3.12-4.05a15.33,15.33,0,0,1,1.84,3.22l-2-4.78a17.09,17.09,0,0,1,1.08,4l-.71-5.31a16.7,16.7,0,0,1,0,4.12l.71-5.32a14.06,14.06,0,0,1-.9,3.38l2-4.77a17,17,0,0,1-2,3.41L313,334.7a20.88,20.88,0,0,1-3.41,3.43l4.05-3.13a26.06,26.06,0,0,1-5.45,3.18l4.77-2a35.31,35.31,0,0,1-8.68,2.35l5.32-.71c-11,1.47-22-1.71-32.93-.4-4,.48-8.26.83-12.09,2.32a50.3,50.3,0,0,0-7.79,3.48,42.33,42.33,0,0,0-6.59,5,40.68,40.68,0,0,0-5,6.17,34.16,34.16,0,0,0-3.64,7.55,27.13,27.13,0,0,0-1.29,13.8,28.07,28.07,0,0,0,4,12c3.05,4.73,5.92,7.29,10.41,10.55,2.84,2.05,6.24,3.28,9.45,4.57a39.16,39.16,0,0,0,5.7,1.77c6.22,1.43,12.65,1.93,19,2.73,5.79.75,11.58,1.52,17.38,2.23,2.39.29,4.79.52,7.19.58a67.38,67.38,0,0,0,12.1-1.08,39,39,0,0,0,10.78-3.81,27.69,27.69,0,0,0,4.7-3.21,26.09,26.09,0,0,0,4.44-3.94,22.37,22.37,0,0,0,5.86-14.14l-.72-5.32a15.05,15.05,0,0,0-3.58-6.8,10,10,0,0,0-3.59-3.59,15.05,15.05,0,0,0-6.8-3.58l-5.31-.71a19.91,19.91,0,0,0-10.1,2.73c-26.5,13-53.71,24.39-80.9,35.89l-23.48,9.93a22.38,22.38,0,0,0-9.19,11.95l-.72,5.32a19.87,19.87,0,0,0,2.73,10.09,59.61,59.61,0,0,0,7.14,10.45A38.93,38.93,0,0,0,222.2,456a67.33,67.33,0,0,0,10.13,7.31,65.7,65.7,0,0,0,11.54,5,61.86,61.86,0,0,0,12.52,2.27,36,36,0,0,0,8.23-.07,62.25,62.25,0,0,0,12.64-2.38A66.13,66.13,0,0,0,288.9,463a59.1,59.1,0,0,0,19.77-18.81,20,20,0,0,0,2.74-10.09,22.36,22.36,0,0,0-5.86-14.15,20.09,20.09,0,0,0-8.83-5.14l-9.1-3.21-5.32-.71a15.06,15.06,0,0,0-7.71,1.72,10,10,0,0,0-4.41,2.57,15.11,15.11,0,0,0-5.15,5.61l-2,4.78-.71,5.32A22.22,22.22,0,0,0,268.16,445c6.77,5.83,14.5,10.4,23.29,12.44A57.37,57.37,0,0,0,304.89,459a53.38,53.38,0,0,0,6.54-.62,56.53,56.53,0,0,0,6.86-1.19l-24.6-14a28.82,28.82,0,0,1,.83,3.88l-.72-5.31a28,28,0,0,1,0,7.08l.71-5.31a32.13,32.13,0,0,1-2.19,7.92l2-4.77a39.53,39.53,0,0,1-5,8.53l3.13-4a44.06,44.06,0,0,1-7.34,7.36l4-3.13a46.81,46.81,0,0,1-10.29,5.93l4.78-2a72.76,72.76,0,0,1-18.23,4.74l5.31-.71a147,147,0,0,1-15.83,1.14,97.45,97.45,0,0,1-14.8-.38l5.31.71a29.65,29.65,0,0,1-7.06-1.8l4.78,2a20.22,20.22,0,0,1-4.27-2.43l4,3.13a18.3,18.3,0,0,1-3.12-3.1l3.12,4.05a20.94,20.94,0,0,1-2.66-4.61l2,4.78a35,35,0,0,1-2.18-8.54l.71,5.32a91,91,0,0,1-.63-9.75L206,468.08a109.27,109.27,0,0,0,13.49,11.17,80.79,80.79,0,0,0,10.76,6.54,101.13,101.13,0,0,0,28.49,9.78,117.91,117.91,0,0,0,17.68,1.84,112.9,112.9,0,0,0,17.5-1.46,69.57,69.57,0,0,0,12.26-2.8,107,107,0,0,0,10-4,49,49,0,0,0,5.32-2.79,74.48,74.48,0,0,0,9.15-6.76,33.38,33.38,0,0,0,4.53-4.6c2.34-2.9,4.8-5.86,6.39-9.27A43.5,43.5,0,0,0,345.45,455a15.22,15.22,0,0,0,.36-8,14.84,14.84,0,0,0-2.38-7.44,22.38,22.38,0,0,0-11.95-9.19c-5.12-1.17-10.86-.91-15.41,2-4.14,2.67-8.3,6.9-9.19,11.95a24.22,24.22,0,0,1-1.44,5l2-4.78a26.4,26.4,0,0,1-3.46,5.89l3.13-4.05a34.73,34.73,0,0,1-6,5.88l4.05-3.13a48.1,48.1,0,0,1-10.35,5.93l4.78-2a67.15,67.15,0,0,1-16.9,4.41l5.32-.72a81.88,81.88,0,0,1-21.33-.06l5.31.72a85,85,0,0,1-21.33-5.84l4.78,2a81.86,81.86,0,0,1-17.78-10.35l4,3.13a77.43,77.43,0,0,1-7.45-6.57l-4.05-3.12-4.78-2-5.31-.71a15,15,0,0,0-7.71,1.72,19.81,19.81,0,0,0-8,6.16,9.9,9.9,0,0,0-2.57,4.41,15,15,0,0,0-1.72,7.71,95.11,95.11,0,0,0,2,18.74,41.44,41.44,0,0,0,10.77,19.91,46.93,46.93,0,0,0,6.36,5.06,18.7,18.7,0,0,0,2.95,1.68,45.84,45.84,0,0,0,11.38,3.94,105.82,105.82,0,0,0,19.54,1.3,157,157,0,0,0,16.07-1c6.83-.82,13.67-1.74,20.24-3.86a96.5,96.5,0,0,0,11.93-4.86,43.75,43.75,0,0,0,6.16-3.55,72.79,72.79,0,0,0,9.07-7.25,71.33,71.33,0,0,0,7.46-8.9,38.81,38.81,0,0,0,4-6.41,58.1,58.1,0,0,0,4.43-11.38A50.52,50.52,0,0,0,334,445a64,64,0,0,0-.94-8.51,28.64,28.64,0,0,0-.83-3.89,22.38,22.38,0,0,0-9.19-11.95,21,21,0,0,0-15.41-2,35.59,35.59,0,0,1-4.21.83l5.32-.72a35.12,35.12,0,0,1-8.93,0l5.31.71a36.21,36.21,0,0,1-8.62-2.35l4.77,2a34.73,34.73,0,0,1-7.4-4.27L298,418c-.51-.4-1-.81-1.51-1.23L277,450.15l9.11,3.21L274.14,424c-.49.73-1,1.44-1.54,2.14l3.12-4.05a38.11,38.11,0,0,1-6.66,6.59l4-3.12a40.88,40.88,0,0,1-8.44,4.91l4.78-2a39.35,39.35,0,0,1-9.77,2.69l5.32-.72a36.5,36.5,0,0,1-9.34,0l5.32.72a38.05,38.05,0,0,1-9.58-2.63l4.78,2a40,40,0,0,1-8.58-5l4,3.13a39.79,39.79,0,0,1-6.78-6.76l3.13,4a36.72,36.72,0,0,1-3.9-6.25L236.92,447c27.36-11.58,55-22.75,82-35.16q11.28-5.17,22.42-10.66l-24.24-31.42a15.5,15.5,0,0,1-2.41,2.38L318.7,369a16.83,16.83,0,0,1-3.44,2l4.78-2a23.72,23.72,0,0,1-5.94,1.54l5.32-.71c-5.65.7-11.31-.06-16.92-.78q-11-1.4-21.91-2.8l5.32.71a45.1,45.1,0,0,1-11.5-2.87l4.78,2a22.07,22.07,0,0,1-4.61-2.61l4.05,3.12a14.61,14.61,0,0,1-2.5-2.47l3.13,4a12,12,0,0,1-1.32-2.24l2,4.77a11.45,11.45,0,0,1-.81-3l.71,5.31a11.9,11.9,0,0,1,0-2.6l-.71,5.32a13.51,13.51,0,0,1,.91-3.23l-2,4.78a15.5,15.5,0,0,1,1.74-2.93l-3.13,4a16.3,16.3,0,0,1,2.68-2.7l-4.05,3.13a19.09,19.09,0,0,1,3.9-2.29l-4.77,2a27.66,27.66,0,0,1,6.92-1.85l-5.32.72c9.83-1.29,19.66,1.05,29.5.67,12.39-.48,24.46-4.3,33.65-12.88a18.28,18.28,0,0,0,1.66-1.75,56.67,56.67,0,0,0,4.55-6,32.66,32.66,0,0,0,2-4.36,27.75,27.75,0,0,0,1.67-4.48,54.7,54.7,0,0,0,1-7.2,15.48,15.48,0,0,0,0-2.36,60.46,60.46,0,0,0-1-7.22,15.32,15.32,0,0,0-.6-2.28,34.17,34.17,0,0,0-3.89-8.5,48.72,48.72,0,0,0-4.28-5.46,37.9,37.9,0,0,0-5.47-4.41,24.69,24.69,0,0,0-8.31-3.72,39.08,39.08,0,0,0-7-1,35.16,35.16,0,0,0-7.53.82,14.19,14.19,0,0,0-2.73.77,41.73,41.73,0,0,0-6.88,3.12,59.4,59.4,0,0,0-6,4.54c-.79.63-1.54,1.31-2.27,2-2.92,2.79-5.5,5.94-8.67,8.46l4.05-3.13a26.46,26.46,0,0,1-5.6,3.29l4.78-2a32.77,32.77,0,0,1-8.09,2.15l5.32-.71a59.35,59.35,0,0,1-15.41-.31l5.32.71a219.62,219.62,0,0,1-24.22-5q-6.33-1.62-12.59-3.53c-3.9-1.19-7.85-2.36-11.62-3.92l4.78,2a27.34,27.34,0,0,1-5.83-3.27l4.05,3.13a17,17,0,0,1-2.8-2.76l3.12,4.05a16,16,0,0,1-1.89-3.28l2,4.78a13.21,13.21,0,0,1-.78-2.88l.72,5.32a11.53,11.53,0,0,1,0-2.56l-.71,5.32a9.92,9.92,0,0,1,.56-2.14l-2,4.78a10.26,10.26,0,0,1,1.16-2.07l-3.12,4.05a9.89,9.89,0,0,1,1.8-1.8l-4.05,3.13a12.55,12.55,0,0,1,2.5-1.41l-4.78,2a18.45,18.45,0,0,1,4.44-1.13l-5.31.72a36.24,36.24,0,0,1,9.13.16l-5.31-.71c5.39.73,10.75,1.78,16.11,2.68L258,334.71l17.18,2.89c6.89,1.16,13.77,2.41,20.72,3.16a37.82,37.82,0,0,0,7.67.16A64.35,64.35,0,0,0,312,339.7a45.07,45.07,0,0,0,8.07-3.07,16.92,16.92,0,0,0,2.37-1.29,44.92,44.92,0,0,0,6.15-4.85,47.3,47.3,0,0,0,4.71-5.83,16.24,16.24,0,0,0,1.57-2.59c2.4-5.08,3.82-9.21,3.92-14.93a29.37,29.37,0,0,0-3.94-14.83,30.65,30.65,0,0,0-10.9-10.8,40.26,40.26,0,0,0-7-3.05,17.07,17.07,0,0,0-3.16-.74,41,41,0,0,0-8.65-.81,60.49,60.49,0,0,0-9.19,1.28c-2.95.64-5.8,1.68-8.67,2.6a94.17,94.17,0,0,1-16.16,3.63l5.32-.71a98.09,98.09,0,0,1-25.39,0l5.31.72a97.21,97.21,0,0,1-24.49-6.64l4.77,2q-3.9-1.65-7.65-3.65a21,21,0,0,0-15.41-2,22.45,22.45,0,0,0-12,9.19c-2.45,4.64-3.68,10.27-2,15.41,1.57,4.85,4.57,9.49,9.19,12Z" transform="translate(-12.5 -42.9)"/></g><path class="cls-4" d="M338.53,426.72c4.33,7.2,9.61,13.75,13.93,21a31.73,31.73,0,0,1,3.32,6.77,13.46,13.46,0,0,1,.15,7.26c-.95,4-3.44,6.82-6.6,9.35-2.49,2-4.4,4.59-6.59,6.91a111.3,111.3,0,0,1-9.19,8.72A82.86,82.86,0,0,1,311.94,500c-18.14,7.49-38.59,7.9-57.9,6.81-19.61-1.11-39.56-3.54-57.87-11.05-3.74-1.54-7.67-3.36-10.34-6.51a10.07,10.07,0,0,1-2.45-6.07,18.74,18.74,0,0,1,1.71-7.46c3.77-9.64,7.69-19.22,11.53-28.83l2.94-7.33c.06-.15-.19-.22-.24-.07L187.12,470c-1,2.45-2,4.89-2.91,7.39a14.77,14.77,0,0,0-1,6.73c.46,3.59,3,6.36,5.88,8.32,3.56,2.42,7.73,3.94,11.75,5.39a131.28,131.28,0,0,0,14.81,4.3,206.4,206.4,0,0,0,30,4.37c20.31,1.63,41.61,2.11,61.2-4.34a79.25,79.25,0,0,0,22.37-11.74,99.6,99.6,0,0,0,9.84-8.38q2.42-2.34,4.7-4.81c1.43-1.54,2.71-3.31,4.23-4.75.92-.87,2-1.59,3-2.42A16.89,16.89,0,0,0,354.5,466a14.6,14.6,0,0,0,1.7-11c-1.22-4.59-4.22-8.79-6.82-12.69-2.2-3.3-4.58-6.46-6.81-9.74q-2-2.94-3.82-6a.13.13,0,0,0-.22.12Z" transform="translate(-12.5 -42.9)"/><path class="cls-4" d="M290.09,229.45c-1.52,6.07.06,12.34,3.25,17.61,3.41,5.61,8.53,9.82,14.08,13.2,11.63,7.1,25.8,11.09,34.76,21.94,4.53,5.51,6.88,12.35,8.29,19.26a229.33,229.33,0,0,1,3.08,22.77,460.47,460.47,0,0,1,2.36,48.27c0,7.72-.15,15.47-.69,23.18-.46,6.59-1.42,13.4-4.57,19.31-6.52,12.2-21.19,15.35-33.92,13.36-7.5-1.17-14.66-3.8-21.77-6.35a222.44,222.44,0,0,0-22.3-6.85A195.34,195.34,0,0,0,250,411q-5.64-.69-11.33-1l-2.84-.16c-.73,0-2.36.23-2.79-.48a5.32,5.32,0,0,1-.2-1.4c-.09-.61-.18-1.22-.26-1.83-.14-1.09-.26-2.19-.36-3.28-.59-6.94.33-14.57,5.87-19.43a12.68,12.68,0,0,1,9.71-3,117,117,0,0,1,12.44,2.22l47.87,9.2,11.73,2.26a.13.13,0,0,0,.14-.19,102.22,102.22,0,0,1-8-62.29,99.21,99.21,0,0,1,4.81-17.06c.05-.15-.19-.21-.25-.06a102.46,102.46,0,0,0-.14,71.64c.48,1.28,1,2.54,1.51,3.8.31.72.62,1.44.94,2.16l.36.78c.33.71.59.85-.29.79a45.81,45.81,0,0,1-4.89-.94l-5.37-1-21-4-21.49-4.14-10.26-2c-3.27-.63-6.63-1.52-10-1.44-5.78.14-10.23,4.23-12.42,9.36-2.75,6.45-1.65,13.73-.65,20.44a.13.13,0,0,0,.12.09,195.3,195.3,0,0,1,36.59,4.71q8.77,2,17.35,4.79c5.61,1.84,11.11,4,16.72,5.83,9.83,3.21,20.33,5.34,30.53,2.57A27.84,27.84,0,0,0,346,421.51a27.37,27.37,0,0,0,7.09-11.76,61.15,61.15,0,0,0,2.4-14.47c.39-5.94.53-11.9.62-17.85q.27-18.87-1-37.71a339.07,339.07,0,0,0-3.92-35.84A57.46,57.46,0,0,0,346.78,289a35.28,35.28,0,0,0-9.47-12c-8.2-6.82-18.36-10.46-27.54-15.67s-18-12.86-19.78-23.86a20,20,0,0,1,.34-8c0-.16-.2-.23-.24-.07Z" transform="translate(-12.5 -42.9)"/><path class="cls-4" d="M176,381a12.5,12.5,0,0,1-8.79,6.44c-3.74.74-7.66.26-11.37-.41s-7.21-1.57-10.84-2.24l-17.55-3.26-20-3.7a.13.13,0,0,0-.12.21c9.53,9.15,9,25.07-.82,33.85a22.2,22.2,0,0,1-9.91,5.08.13.13,0,0,0,0,.23c17,9.42,35,17.53,54.08,21.64a120.18,120.18,0,0,0,28.48,2.8q3.79-.1,7.56-.46c1.92-.19,4.44-.1,6.15-1.05a15.62,15.62,0,0,0,4.59-3.56c1.31-1.59,1.86-3.87,2.54-5.79,3.86-11,5.84-22.51,9-33.71,0-.16-.2-.22-.24-.07-2.87,10.33-4.78,20.93-8.09,31.14a40.85,40.85,0,0,1-2.78,7.47,10.74,10.74,0,0,1-9.33,5.13c-1.34.15-2.68.28-4,.38q-3.76.29-7.54.3c-20.37.12-40.28-5.51-58.79-13.7-4.67-2.06-9.26-4.29-13.79-6.63q-3.36-1.74-6.67-3.57c-.59-.32-.91-.27-.25-.49.44-.14.89-.24,1.32-.38a21.8,21.8,0,0,0,2.13-.82,23.13,23.13,0,0,0,12.23-13.38,23.69,23.69,0,0,0-.77-18,22.56,22.56,0,0,0-2.56-4.13c-.5-.63-1-1.24-1.6-1.83s-.5-.42.19-.26,1.63.3,2.44.45l16.57,3.07,16.57,3.08c3.6.66,7.15,1.51,10.74,2.21,6,1.17,13.36,2.17,18.44-2.07a13.3,13.3,0,0,0,3.08-3.87A.13.13,0,0,0,176,381Z" transform="translate(-12.5 -42.9)"/><path class="cls-4" d="M253.59,231.82c.47,6.32.39,12.64-3.51,18-2.92,4-7.25,6.6-11.71,8.57s-9.25,3.62-13.92,5.19c-4.48,1.5-9.08,2.6-13.55,4.15a34.87,34.87,0,0,0-11.66,6.24c-3.83,3.31-6.23,7.8-7.9,12.52a77.91,77.91,0,0,0-3.51,16.41c-.76,6-1.39,12.06-2.19,18.08l-6.12,45.66c0,.16.23.16.25,0l5.46-40.75c.84-6.27,1.66-12.53,2.36-18.81a106.58,106.58,0,0,1,3-17.37c1.51-5.34,3.8-10.72,7.84-14.65,3.5-3.41,8-5.51,12.55-7.09s9.07-2.65,13.55-4.15,9-3.08,13.34-4.94c4.63-2,9.14-4.59,12.23-8.66,4.1-5.41,4.24-11.87,3.75-18.37,0-.16-.26-.16-.25,0Z" transform="translate(-12.5 -42.9)"/><path class="cls-4" d="M227.29,263.9c10.79,7.75,24.14,10.07,37.15,10.72,6.24.31,12.52.42,18.77.42a70.89,70.89,0,0,0,17-1.57A26.45,26.45,0,0,0,315,264.53c.1-.13-.08-.31-.18-.18-7.2,9.07-19.29,10.35-30.1,10.44-5.9,0-11.84-.11-17.74-.32a108.14,108.14,0,0,1-19.58-2.21,53.88,53.88,0,0,1-20-8.58c-.13-.09-.25.12-.12.22Z" transform="translate(-12.5 -42.9)"/><path class="cls-3" d="M233.6,122.91l49.28-.16c2.43,0,2.41-3.65,0-3.75l-48-2.07v3.75l11.4-.59c3.12-.16,6.19-.43,8.64-2.55a1.9,1.9,0,0,0-1.33-3.21l-19.24.7v3.75c8.4-1,17.73-2,25,3.34l.45-3.43L256,120.3c-1.85.77-1.77,3.63.5,3.68l13,.33c2.41.06,2.41-3.69,0-3.75l-13-.33.5,3.69,3.85-1.61a1.91,1.91,0,0,0,.45-3.43c-7.77-5.72-17.82-4.89-26.86-3.85a1.94,1.94,0,0,0-1.87,1.88,1.89,1.89,0,0,0,1.87,1.87l19.24-.7-1.32-3.2c-1.93,1.67-5.1,1.42-7.47,1.54l-9.92.51a1.88,1.88,0,0,0,0,3.75l48,2.07V119l-49.28.16c-2.41,0-2.41,3.76,0,3.75Z" transform="translate(-12.5 -42.9)"/><g class="cls-2"><g class="cls-12"><path class="cls-13" d="M201,278.49a149.91,149.91,0,0,0,52.09,17.08,155.62,155.62,0,0,0,54.68-2.26,147.6,147.6,0,0,0,29.49-10,2.52,2.52,0,0,0,.9-3.42,2.57,2.57,0,0,0-3.42-.9,144.09,144.09,0,0,1-51.11,12.7,150.65,150.65,0,0,1-52.6-6,141.5,141.5,0,0,1-27.51-11.54c-2.82-1.55-5.35,2.77-2.52,4.32Z" transform="translate(-12.5 -42.9)"/></g><g class="cls-12"><path class="cls-13" d="M192.1,290a55.47,55.47,0,0,0,27.68,12.37,2.58,2.58,0,0,0,3.07-1.74c.32-1.17-.4-2.89-1.74-3.08a51,51,0,0,1-25.48-11.09,2.57,2.57,0,0,0-3.53,0,2.52,2.52,0,0,0,0,3.54Z" transform="translate(-12.5 -42.9)"/></g><g class="cls-12"><path class="cls-13" d="M189.1,310.94A42.21,42.21,0,0,0,205,320.17c5.75,1.81,14,3,16.69-4a2.53,2.53,0,0,0-1.75-3.08,2.56,2.56,0,0,0-3.07,1.75c-.7,1.81-3.36,1.9-4.92,1.76a29.76,29.76,0,0,1-7.18-1.8,36.53,36.53,0,0,1-12.16-7.43c-2.36-2.17-5.91,1.35-3.53,3.54Z" transform="translate(-12.5 -42.9)"/></g><g class="cls-12"><path class="cls-13" d="M185.87,331.11a37.6,37.6,0,0,0,14.9,10.1c5.73,2.15,13.68,3.12,17.28-3.1,1.62-2.79-2.7-5.31-4.32-2.52-2.49,4.3-9.27,1.85-12.76.36a32.81,32.81,0,0,1-11.57-8.38c-2.15-2.4-5.67,1.14-3.53,3.54Z" transform="translate(-12.5 -42.9)"/></g><g class="cls-12"><path class="cls-13" d="M182.67,352.18l12.59,6.47a2.5,2.5,0,1,0,2.52-4.32l-12.59-6.47a2.5,2.5,0,0,0-2.52,4.32Z" transform="translate(-12.5 -42.9)"/></g><g class="cls-12"><path class="cls-13" d="M176.45,387.78a30.94,30.94,0,0,1,15.29,12.16,31.6,31.6,0,0,1,4.7,21.06,2.51,2.51,0,0,0,2.5,2.5,2.57,2.57,0,0,0,2.5-2.5,35.9,35.9,0,0,0-5.59-23.91A36.61,36.61,0,0,0,177.78,383a2.51,2.51,0,0,0-3.07,1.74,2.56,2.56,0,0,0,1.74,3.08Z" transform="translate(-12.5 -42.9)"/></g><g class="cls-12"><path class="cls-13" d="M170,389.78q1.85,13.56,3.71,27.13c.89,6.5,1.82,15.94-5.55,19.12a2.53,2.53,0,0,0-.9,3.43,2.56,2.56,0,0,0,3.42.89c3.67-1.59,6.13-5,7.49-8.62,1.6-4.33,1.28-9.1.71-13.59-1.27-9.91-2.71-19.8-4.06-29.69a2.53,2.53,0,0,0-3.08-1.75,2.57,2.57,0,0,0-1.74,3.08Z" transform="translate(-12.5 -42.9)"/></g><g class="cls-12"><path class="cls-13" d="M153.84,391.5a60.61,60.61,0,0,1,.75,22.22,63.85,63.85,0,0,1-2.74,11.06q-.9,2.6-2,5.1a12.29,12.29,0,0,1-1.09,2.06c-.16.23-.39.4-.55.62s-.6.08,0,.17a2.58,2.58,0,0,0-3.07,1.75,2.51,2.51,0,0,0,1.74,3.07c5.06.77,7-4.32,8.59-8.16a63.74,63.74,0,0,0,3.69-12.61,67,67,0,0,0-.46-26.61c-.7-3.14-5.52-1.81-4.82,1.33Z" transform="translate(-12.5 -42.9)"/></g><g class="cls-12"><path class="cls-13" d="M134.78,387.68a37.63,37.63,0,0,1-19.14,35.4c-2.82,1.54-.3,5.86,2.53,4.31a42.54,42.54,0,0,0,21.61-39.71,2.57,2.57,0,0,0-2.5-2.5,2.51,2.51,0,0,0-2.5,2.5Z" transform="translate(-12.5 -42.9)"/></g><g class="cls-12"><path class="cls-13" d="M114.59,384.18c4.74,11.46,1.06,25.92-9.13,33.24a2.57,2.57,0,0,0-.9,3.42,2.52,2.52,0,0,0,3.42.9c11.88-8.54,17.08-25.23,11.43-38.89a2.59,2.59,0,0,0-3.08-1.75,2.52,2.52,0,0,0-1.74,3.08Z" transform="translate(-12.5 -42.9)"/></g><g class="cls-12"><path class="cls-13" d="M320.71,321.52A73.72,73.72,0,0,0,350,316a2.59,2.59,0,0,0,1.74-3.08,2.51,2.51,0,0,0-3.07-1.74,70.06,70.06,0,0,1-27.93,5.33c-3.22,0-3.22,5,0,5Z" transform="translate(-12.5 -42.9)"/></g><g class="cls-12"><path class="cls-13" d="M315.65,343a169.1,169.1,0,0,0,22.62,3.28c3.49.27,7.11.55,10.37-1a8.29,8.29,0,0,0,5-7.7,2.56,2.56,0,0,0-2.5-2.5,2.51,2.51,0,0,0-2.5,2.5c.15,2.3-2.12,3.48-4.12,3.79-2.8.43-5.85-.06-8.65-.32a160.26,160.26,0,0,1-18.86-2.9c-3.14-.67-4.48,4.14-1.33,4.82Z" transform="translate(-12.5 -42.9)"/></g><g class="cls-12"><path class="cls-13" d="M314.84,363.45a32.1,32.1,0,0,0,20.66,6.36,32.84,32.84,0,0,0,19.87-8.09,2.5,2.5,0,0,0-3.54-3.53,27.26,27.26,0,0,1-16.74,6.64,27.83,27.83,0,0,1-17.72-5.7A2.51,2.51,0,0,0,314,360a2.57,2.57,0,0,0,.89,3.43Z" transform="translate(-12.5 -42.9)"/></g><g class="cls-12"><path class="cls-13" d="M318.57,385.4c10.66,8.08,26.66,7.08,36.55-1.75,2.4-2.15-1.14-5.68-3.54-3.54-8.35,7.46-21.66,7.66-30.49,1a2.51,2.51,0,0,0-3.42.9,2.56,2.56,0,0,0,.9,3.42Z" transform="translate(-12.5 -42.9)"/></g><g class="cls-12"><path class="cls-13" d="M316.79,400.88a30,30,0,0,0,14.61,25.66c2.79,1.63,5.3-2.69,2.53-4.32a24.88,24.88,0,0,1-12.14-21.34c0-3.22-5-3.22-5,0Z" transform="translate(-12.5 -42.9)"/></g><g class="cls-12"><path class="cls-13" d="M295.92,394a28.38,28.38,0,0,0,7.9,31.16,2.54,2.54,0,0,0,4.18-1.1l.44-1.41c1-3.08-3.86-4.39-4.82-1.33l-.44,1.41,4.18-1.1a23.57,23.57,0,0,1-6.62-26.3,2.52,2.52,0,0,0-1.74-3.08,2.57,2.57,0,0,0-3.08,1.75Z" transform="translate(-12.5 -42.9)"/></g><g class="cls-12"><path class="cls-13" d="M275.37,387c-6.24,8.52-5.23,21.13,1.91,28.8,2.2,2.35,5.73-1.19,3.54-3.54-5.73-6.14-6-16-1.13-22.74a2.52,2.52,0,0,0-.9-3.42,2.56,2.56,0,0,0-3.42.9Z" transform="translate(-12.5 -42.9)"/></g><g class="cls-12"><path class="cls-13" d="M257.15,383.31c-6.31,7.69-6,19.62,1.11,26.74,2.28,2.28,5.81-1.26,3.54-3.54-5.07-5.08-5.71-14.07-1.11-19.66a2.57,2.57,0,0,0,0-3.54,2.54,2.54,0,0,0-3.54,0Z" transform="translate(-12.5 -42.9)"/></g><g class="cls-12"><path class="cls-13" d="M184.58,486.17c26,8.95,53.34,16,81.07,15.26,22.72-.6,45.62-6.87,64.34-20.06a86.29,86.29,0,0,0,25.17-27.05c1.62-2.79-2.7-5.31-4.32-2.53C340.18,470.22,322,483.06,302.11,490c-23.25,8.07-48.32,7.86-72.3,3.4a307.51,307.51,0,0,1-43.9-12,2.5,2.5,0,0,0-1.33,4.82Z" transform="translate(-12.5 -42.9)"/></g><g class="cls-12"><path class="cls-13" d="M190.93,472.43a276,276,0,0,0,69.84,8.63c21.34-.13,43.68-2.75,62.14-14.32a63.26,63.26,0,0,0,22.2-22.89c1.55-2.82-2.77-5.35-4.32-2.52C331.62,458.11,314.05,468,296,472.42a147.47,147.47,0,0,1-32.1,3.6,268.22,268.22,0,0,1-71.59-8.41c-3.12-.8-4.45,4-1.33,4.82Z" transform="translate(-12.5 -42.9)"/></g><g class="cls-12"><path class="cls-13" d="M196.82,456.68a182.84,182.84,0,0,0,53.49,4,186.68,186.68,0,0,0,52.43-11.43,183.25,183.25,0,0,0,27.45-13c2.77-1.62.26-5.94-2.53-4.32a178.35,178.35,0,0,1-48.61,19.35,181.59,181.59,0,0,1-51.69,4.63,174.34,174.34,0,0,1-29.21-4.07c-3.13-.71-4.47,4.11-1.33,4.82Z" transform="translate(-12.5 -42.9)"/></g><g class="cls-12"><path class="cls-13" d="M210.48,441.16A155.36,155.36,0,0,0,274.69,434,158.79,158.79,0,0,0,292,427a2.52,2.52,0,0,0,.89-3.42,2.56,2.56,0,0,0-3.42-.9,150.39,150.39,0,0,1-61,14.23,154.45,154.45,0,0,1-18-.73,2.52,2.52,0,0,0-2.5,2.5,2.55,2.55,0,0,0,2.5,2.5Z" transform="translate(-12.5 -42.9)"/></g><g class="cls-12"><path class="cls-13" d="M213.87,421.66a55,55,0,0,0,47.46-.64c2.88-1.44.35-5.76-2.53-4.32a49.61,49.61,0,0,1-42.4.64,2.58,2.58,0,0,0-3.43.9,2.52,2.52,0,0,0,.9,3.42Z" transform="translate(-12.5 -42.9)"/></g><g class="cls-12"><path class="cls-13" d="M213.41,403.21a12.59,12.59,0,0,0,10.9,2.7,2.52,2.52,0,0,0,1.74-3.08,2.54,2.54,0,0,0-3.07-1.74c-.31.06-.62.12-.93.16l.67-.09a10.44,10.44,0,0,1-2.56,0l.67.09a11.45,11.45,0,0,1-1.32-.28,5.58,5.58,0,0,1-.58-.18l-.32-.11-.07,0c.42.17,0,0-.07,0l-.24-.12c-.2-.1-.4-.21-.59-.33s-.38-.24-.56-.37l-.22-.16c.61.41.22.18.08.06a2.64,2.64,0,0,0-1.77-.73,2.5,2.5,0,0,0-1.76,4.26Z" transform="translate(-12.5 -42.9)"/></g><g class="cls-12"><path class="cls-13" d="M229.47,311.05a135.24,135.24,0,0,0,64.86,4.78,129.29,129.29,0,0,0,17.87-4.35c3.06-1,1.75-5.8-1.33-4.82a129.84,129.84,0,0,1-62.47,4.07,131.62,131.62,0,0,1-17.6-4.5c-3.07-1-4.38,3.81-1.33,4.82Z" transform="translate(-12.5 -42.9)"/></g><g class="cls-12"><path class="cls-13" d="M225.64,328.48a99.51,99.51,0,0,0,65.82,5.75,96.71,96.71,0,0,0,17.85-6.57,2.5,2.5,0,1,0-2.52-4.32,93.92,93.92,0,0,1-61.64,6.58,90.21,90.21,0,0,1-17-5.76,2.57,2.57,0,0,0-3.42.9,2.52,2.52,0,0,0,.9,3.42Z" transform="translate(-12.5 -42.9)"/></g><g class="cls-12"><path class="cls-13" d="M221.93,350.71c19.48,11.37,43.79,13.69,65.23,6.83a77.43,77.43,0,0,0,17.38-8c2.72-1.7.21-6-2.53-4.32-18,11.27-40.76,14.09-61.16,8.22a72.67,72.67,0,0,1-16.4-7c-2.79-1.63-5.31,2.69-2.52,4.32Z" transform="translate(-12.5 -42.9)"/></g><g class="cls-12"><path class="cls-13" d="M246.37,375.27a89,89,0,0,0,56.17-1.62,2.58,2.58,0,0,0,1.74-3.08,2.52,2.52,0,0,0-3.07-1.75,84.43,84.43,0,0,1-53.51,1.63c-3.08-.93-4.4,3.89-1.33,4.82Z" transform="translate(-12.5 -42.9)"/></g></g><g id="bouche"><path class="cls-10" d="M287.73,199.16A19.22,19.22,0,0,1,251.38,201Z" transform="translate(-12.5 -42.9)"/><path class="cls-5" d="M287.5,199.09a19,19,0,0,1-35.89,1.85l-.23.3,31.88-1.62,4.47-.23c.3,0,.31-.49,0-.47l-31.87,1.61-4.48.23c-.13,0-.29.15-.23.3A20.15,20.15,0,0,0,265,212.83a19.26,19.26,0,0,0,17.42-4.74,19.6,19.6,0,0,0,5.57-8.87A.24.24,0,0,0,287.5,199.09Z" transform="translate(-12.5 -42.9)"/></g><g class="cls-2"><g class="cls-14"><g class="cls-15"><path class="cls-3" d="M100.45,391.43c-.3-2-.09.27-.11.25q.18-1.2,0-.39-.21.6,0,0c.18-.4.17-.42,0-.07a2.57,2.57,0,0,1,1-1,2.78,2.78,0,0,1,2.57-.07c-.38-.25-.4-.26-.08,0s.3.21,0-.1-.34-.37.08.16c-.14-.2-.28-.4-.43-.59a16.56,16.56,0,0,0-2.19-2.67,7.31,7.31,0,0,0-11.62,1.53c-1.16,2-.8,4.09.07,6.11,1,2.28,4.19,2.91,6.24,2.05a5,5,0,0,0,2.9-5.9,17.41,17.41,0,0,0-3.17-6.44A9.38,9.38,0,0,0,89,381a7.79,7.79,0,0,0-6.81,3.52,7.48,7.48,0,0,0-.34,7.59,5,5,0,0,0,5.64,2.3,5.14,5.14,0,0,0,3.67-4.83c0-4.9-2.65-10.08-7.72-11.35s-11.37,2.75-10.87,8.36c.19,2.13,1.41,4.31,3.67,4.82,2,.46,4.72-.25,5.65-2.3a7.8,7.8,0,0,0-.34-7.88,9.06,9.06,0,0,0-7.17-4.11c-5.32-.11-8.86,4.2-10.53,8.79l7.35-3c-6.25-3.11-12.9-1.89-19.32,0a5,5,0,1,0,2.66,9.64c1.15-.34,2.31-.67,3.48-.95.62-.15,1.25-.29,1.88-.41l.84-.15c1-.17-.48,0,.14,0s1.1-.1,1.66-.1c.38,0,1.56-.18,1.85.07-.17-.15-.84-.17-.13,0l.79.19c.33.08.65.21,1,.3.69.19-1-.49.13.08a5.1,5.1,0,0,0,7.35-3c.19-.51.15-.45-.11.2.1-.22.21-.44.32-.65s.24-.42.37-.62c.32-.45.27-.4-.14.14a5.79,5.79,0,0,1,.48-.51q.61-.54-.21.12a5.73,5.73,0,0,1,.59-.35c-.62.24-.76.3-.4.19s.22-.09-.5,0c.56,0,.43,0-.37-.1.51.16.42.1-.28-.17.45.28.39.2-.21-.24a3.92,3.92,0,0,1,.46.45c-.44-.61-.53-.69-.26-.24a2.74,2.74,0,0,1,0-2.74l9.31,2.52c-.06-.69-.1.26-.16.46.26-.95-.4.81-.14.29s-.65.78-.24.35-.8.65-.31.24.24-.09-.23.07c.71-.24-.29.11-.44,0a3.1,3.1,0,0,0,.61,0l-.73-.09c.39.13.38.11,0,0-1,0,.62,0-.25-.14-.27-.23-.31-.26-.11-.08l.24.23c.4.3-.53-.94-.06-.08,0,.09.25.57.33.6-.17-.06-.32-1-.12-.23.06.22.12.45.19.68.3,1.05,0-.73,0-.12,0,.29,0,.57,0,.86L90.51,387a3,3,0,0,1,0,3c.4-.7-.53.47-.78.64.72-.47-.6.24-.91.25-.7-.12-.77-.11-.21,0-.54-.24-.65-.26-.33-.08s.22.14-.24-.18c.32.35.37.38.14.09-.42-.47.3.59.39.72.16.32.13.25-.08-.23.08.2.15.4.22.6.17.47.31.94.45,1.42l9.14-3.86c1,2.23.2,5.28-2.44,5.19a2,2,0,0,1-1-.22,1.37,1.37,0,0,1-.71-.48c.11,0,1.47,1.35.41.34a5.57,5.57,0,0,1,.64.89c1.76,2.38,4,4.46,7.13,4.6a7.43,7.43,0,0,0,6.78-3.79,10.72,10.72,0,0,0,1-7.21c-.4-2.6-3.79-4.26-6.15-3.5-2.83.92-3.92,3.37-3.5,6.15Z" transform="translate(-12.5 -42.9)"/></g><g class="cls-15"><path class="cls-3" d="M16.81,391.41a96.91,96.91,0,0,0,30,.93l-2.16-1.24.94,1.73a2.52,2.52,0,0,0,3.42.9l3.35-2.57H49.8a24.9,24.9,0,0,0,10.51,2.67c3.9.28,7.82.43,11.73.63l24.16,1.26a2.53,2.53,0,0,0,2.41-3.16,17.6,17.6,0,0,0-8.72-12.31,28.66,28.66,0,0,0-8.38-2.71l-9.37-1.81a2.58,2.58,0,0,0-3.08,1.75,2.54,2.54,0,0,0,1.75,3.08l8.26,1.59a31.15,31.15,0,0,1,7.54,2,12.88,12.88,0,0,1,7.18,9.71l2.41-3.17L73,389.51c-3.74-.19-7.48-.37-11.21-.59-3.26-.18-6.59-.46-9.49-2.08a2.49,2.49,0,0,0-2.53,0l-3.34,2.57,3.42.9-.94-1.73a2.44,2.44,0,0,0-2.16-1.24,92.34,92.34,0,0,1-28.64-.75,2.57,2.57,0,0,0-3.08,1.74,2.53,2.53,0,0,0,1.75,3.08Z" transform="translate(-12.5 -42.9)"/></g></g><path class="cls-4" d="M109.5,385.65c-11-2.66-19.87-11.54-31.43-12.28s-20.79,8.28-31.47,11.37a22.15,22.15,0,0,1-9.29.82c-2.12-.32-4.81-1.34-6.69.2-1.08.89-1.7,2.59-.57,3.7a4.46,4.46,0,0,0,2.41.94c1.62.3,3.24.56,4.86.85l19,3.29a143.58,143.58,0,0,0,18,2.42c6.64.32,13.67-1.09,19.83,2.07,4.61,2.36,8.55,6.38,13.93,6.87.16,0,.16-.23,0-.25-4.8-.44-8.49-3.77-12.49-6.11-4.44-2.6-9.15-3-14.2-2.84a97.55,97.55,0,0,1-17.74-1.17c-5.84-.92-11.65-2-17.48-3L37.39,391,33,390.24c-1.48-.26-3.82-.75-3.24-2.8,1-3.52,5.5-1.87,8-1.57a21.93,21.93,0,0,0,7.61-.54c10.52-2.53,19-11.05,30.08-11.72,12.59-.76,22.29,9.45,34,12.28.16,0,.22-.21.07-.24Z" transform="translate(-12.5 -42.9)"/><path class="cls-4" d="M57,380.1a61.19,61.19,0,0,0-11.55.79c-1.2.21-2.62.64-3.12,1.89A1.92,1.92,0,0,0,43,385.2c.14.08.26-.14.13-.22-1.32-.76-.62-2.54.4-3.19,1.2-.76,2.91-.81,4.28-1a70.61,70.61,0,0,1,9.2-.46.13.13,0,0,0,0-.25Z" transform="translate(-12.5 -42.9)"/><path class="cls-4" d="M29.32,386.76l-8.57-1.38c-2-.32-4.41-1.07-6.4-.4a2.59,2.59,0,0,0-1.73,3.28c.56,1.93,2.62,2.84,4.32,3.52,5.06,2,10.63,2.31,16,2.84l17.89,1.77c6.11.61,12.42,1.43,18.39-.47.15-.05.09-.3-.07-.25-4.7,1.51-9.64,1.29-14.5.85s-10-1-15-1.49-10.21-.84-15.26-1.61a33.83,33.83,0,0,1-6.74-1.64,13.91,13.91,0,0,1-3.07-1.45c-1.35-.92-2.65-2.94-1.25-4.44,1.67-1.79,5.34-.6,7.36-.27L29.26,387c.16,0,.22-.22.06-.25Z" transform="translate(-12.5 -42.9)"/></g><g class="cls-2"><path class="cls-3" d="M235.12,382.65a247.16,247.16,0,0,0-17.92-20.59c-3.12-3.18-6.3-6.31-9.48-9.43a5.57,5.57,0,0,0-2.52-1.71c-2-.49-4,1.59-4.1,3.7s1.24,4,2.78,5.46,3.35,2.58,4.79,4.13,2.47,3.69,2,5.74a5.86,5.86,0,0,1-4,3.84,16,16,0,0,1-5.7.54A95.88,95.88,0,0,1,186.22,373a65.24,65.24,0,0,1-15.83-5.06,8.38,8.38,0,0,0-3.6-1.1,2.67,2.67,0,0,0-2.73,2.14c-.13,1.54,1.51,2.57,2.92,3.23,21,9.84,42.09,19.68,63.37,29" transform="translate(-12.5 -42.9)"/><path class="cls-4" d="M235.21,382.57c-3.71-4.59-7.41-9.2-11.35-13.6-4.37-4.87-9-9.49-13.67-14.09-1.51-1.48-3.58-4.5-6-4.12-2.13.32-3.39,2.64-3.15,4.64.32,2.64,2.43,4.57,4.39,6.14,2.48,2,6,4.69,5.11,8.37-1,3.85-5.61,4.38-8.87,4.31a106,106,0,0,1-10.69-.69,67.54,67.54,0,0,1-20.5-5.75c-1.82-.84-4.42-2-6,0-1.32,1.58.16,3.24,1.56,4.06,3,1.75,6.31,3,9.42,4.46l9.86,4.59c14.94,7,29.92,13.82,45,20.45.15.06.28-.16.13-.22-12.67-5.56-25.27-11.3-37.83-17.12q-9.3-4.31-18.6-8.65l-4.48-2.09a24.14,24.14,0,0,1-4-2,2.57,2.57,0,0,1-1.31-2.55,2.5,2.5,0,0,1,2-1.66c1.86-.42,3.77.86,5.4,1.58a66.3,66.3,0,0,0,17.94,5c3.32.45,6.66.69,10,.81,2.7.1,5.7.35,8.19-.93a5.3,5.3,0,0,0,3.14-4.88c-.12-2.46-1.86-4.41-3.65-5.92-2.29-1.93-5.26-3.76-5.9-6.93a4.1,4.1,0,0,1,2-4.45c2-1.08,3.68.78,5,2.08,5.05,5,10.11,9.95,14.87,15.21,4.13,4.56,8,9.37,11.85,14.15.1.13.28-.05.18-.17Z" transform="translate(-12.5 -42.9)"/><path class="cls-3" d="M192.13,373.45,191,365.27a2.7,2.7,0,0,1,2.53-3.51l8.64-2.74" transform="translate(-12.5 -42.9)"/><path class="cls-4" d="M192.25,373.45l-.75-5.64c-.11-.89-.24-1.77-.35-2.66a2.41,2.41,0,0,1,.88-2.59,7.91,7.91,0,0,1,2.11-.85l2.7-.86,5.41-1.71c.15-.05.08-.29-.07-.24l-6,1.88c-1,.31-1.93.6-2.89.92a4.91,4.91,0,0,0-1.78.9c-1.24,1.11-.59,3.09-.4,4.5l.84,6.35c0,.16.27.16.25,0Z" transform="translate(-12.5 -42.9)"/><path class="cls-3" d="M211.18,355.89a8.79,8.79,0,0,1,4.27,1.51,1.68,1.68,0,0,1,.69.89.73.73,0,0,1-.52.88" transform="translate(-12.5 -42.9)"/><path class="cls-4" d="M211.18,356a9.94,9.94,0,0,1,3.22.88,4.43,4.43,0,0,1,1.31.9.94.94,0,0,1,.32.73.56.56,0,0,1-.44.52c-.16,0-.09.27.07.24a.85.85,0,0,0,.6-1A2.4,2.4,0,0,0,215,357a9.57,9.57,0,0,0-3.86-1.2c-.16,0-.16.23,0,.25Z" transform="translate(-12.5 -42.9)"/><path class="cls-3" d="M204.92,364.44,201,365.83a2.25,2.25,0,0,0-1.36.92,2.74,2.74,0,0,0,.05,1.74c.12.58.09,1.3-.43,1.6" transform="translate(-12.5 -42.9)"/><path class="cls-4" d="M204.88,364.32l-2.69,1-1.3.46a3.42,3.42,0,0,0-.9.44,1.57,1.57,0,0,0-.55,1.69c.11.65.47,1.66-.24,2.11-.13.09,0,.31.13.22,1.37-.87-.41-2.76.69-3.73A2.73,2.73,0,0,1,201,366l1.35-.48,2.64-.94c.15-.05.09-.29-.07-.24Z" transform="translate(-12.5 -42.9)"/><path class="cls-3" d="M204.14,371.31,205,370a4.6,4.6,0,0,1,2.27-2.23" transform="translate(-12.5 -42.9)"/><path class="cls-4" d="M204.25,371.37c.44-.71.87-1.45,1.36-2.13a3.47,3.47,0,0,1,1.67-1.38c.15-.05.09-.29-.07-.24a3.59,3.59,0,0,0-1.72,1.36c-.54.72-1,1.51-1.46,2.27-.08.13.13.26.22.12Z" transform="translate(-12.5 -42.9)"/></g></g></g></svg>