<svg id="Calque_1" data-name="Calque 1" xmlns="http://www.w3.org/2000/svg" xmlns:xlink="http://www.w3.org/1999/xlink" viewBox="0 0 103.2 92.49"><defs><style>.cls-1{fill:#f3e38c;}.cls-2{fill:#50162e;}.cls-24,.cls-3{fill:none;}.cls-10,.cls-14,.cls-16,.cls-18,.cls-22,.cls-24,.cls-26,.cls-28,.cls-3,.cls-30,.cls-34,.cls-36,.cls-38,.cls-40,.cls-42,.cls-8{stroke:#50162e;}.cls-10,.cls-11,.cls-12,.cls-13,.cls-14,.cls-15,.cls-16,.cls-17,.cls-18,.cls-19,.cls-20,.cls-21,.cls-22,.cls-23,.cls-24,.cls-25,.cls-26,.cls-27,.cls-28,.cls-29,.cls-3,.cls-30,.cls-31,.cls-32,.cls-33,.cls-34,.cls-35,.cls-36,.cls-37,.cls-38,.cls-39,.cls-40,.cls-41,.cls-42,.cls-7,.cls-8,.cls-9{stroke-miterlimit:10;}.cls-3{stroke-width:0.19px;}.cls-4{fill:#86c9b3;}.cls-5{fill:url(#Dégradé_sans_nom_12);}.cls-6{opacity:0.53;}.cls-11,.cls-13,.cls-15,.cls-17,.cls-19,.cls-21,.cls-23,.cls-25,.cls-27,.cls-29,.cls-31,.cls-33,.cls-35,.cls-37,.cls-39,.cls-41,.cls-7,.cls-9{stroke:#f3e38c;}.cls-7{stroke-width:0.06px;fill:url(#Dégradé_sans_nom_28);}.cls-10,.cls-12,.cls-14,.cls-16,.cls-18,.cls-20,.cls-22,.cls-24,.cls-26,.cls-28,.cls-30,.cls-32,.cls-34,.cls-36,.cls-38,.cls-40,.cls-42,.cls-8{stroke-width:0.75px;}.cls-8{fill:url(#Dégradé_sans_nom_23);}.cls-9{stroke-width:0.06px;fill:url(#Dégradé_sans_nom_28-2);}.cls-10{fill:url(#Dégradé_sans_nom_20);}.cls-11{stroke-width:0.05px;fill:url(#Dégradé_sans_nom_6);}.cls-12,.cls-20,.cls-32{stroke:#f5df4d;}.cls-12{fill:url(#Dégradé_sans_nom_22);}.cls-13{stroke-width:0.04px;fill:url(#Dégradé_sans_nom_26);}.cls-14{fill:url(#Dégradé_sans_nom_24);}.cls-15{stroke-width:0.05px;fill:url(#Dégradé_sans_nom_26-2);}.cls-16{fill:url(#Dégradé_sans_nom_24-2);}.cls-17{stroke-width:0.04px;fill:url(#Dégradé_sans_nom_26-3);}.cls-18{fill:url(#Dégradé_sans_nom_24-3);}.cls-19,.cls-21,.cls-23,.cls-25,.cls-27{stroke-width:0.04px;}.cls-19{fill:url(#Dégradé_sans_nom_28-3);}.cls-20{fill:url(#Dégradé_sans_nom_23-2);}.cls-21{fill:url(#Dégradé_sans_nom_6-2);}.cls-22{fill:url(#Dégradé_sans_nom_21);}.cls-23{fill:url(#Dégradé_sans_nom_11);}.cls-25{fill:url(#Dégradé_sans_nom_6-3);}.cls-26{fill:url(#Dégradé_sans_nom_22-2);}.cls-27{fill:url(#Dégradé_sans_nom_28-4);}.cls-28{fill:url(#Dégradé_sans_nom_23-3);}.cls-29{stroke-width:0.04px;fill:url(#Dégradé_sans_nom_28-5);}.cls-30{fill:url(#Dégradé_sans_nom_24-4);}.cls-31,.cls-33,.cls-35,.cls-37,.cls-39,.cls-41{stroke-width:0.05px;}.cls-31{fill:url(#Dégradé_sans_nom_26-4);}.cls-32{fill:url(#Dégradé_sans_nom_23-4);}.cls-33{fill:url(#Dégradé_sans_nom_37);}.cls-34{fill:url(#Dégradé_sans_nom_22-3);}.cls-35{fill:url(#Dégradé_sans_nom_6-4);}.cls-36{fill:url(#Dégradé_sans_nom_22-4);}.cls-37{fill:url(#Dégradé_sans_nom_6-5);}.cls-38{fill:url(#Dégradé_sans_nom_21-2);}.cls-39{fill:url(#Dégradé_sans_nom_17);}.cls-40{fill:url(#Dégradé_sans_nom_21-3);}.cls-41{fill:url(#Dégradé_sans_nom_6-6);}.cls-42{fill:url(#Dégradé_sans_nom_22-5);}</style><radialGradient id="Dégradé_sans_nom_12" cx="36.82" cy="-157.88" r="8.63" gradientTransform="matrix(0.8, -0.49, 0.49, 0.8, 103.32, 195.2)" gradientUnits="userSpaceOnUse"><stop offset="0" stop-color="#fff"/><stop offset="0.24" stop-color="#fffefc"/><stop offset="0.42" stop-color="#fefcf2"/><stop offset="0.58" stop-color="#fcf8e2"/><stop offset="0.73" stop-color="#faf2cb"/><stop offset="0.87" stop-color="#f7ebae"/><stop offset="1" stop-color="#f3e38c"/></radialGradient><radialGradient id="Dégradé_sans_nom_28" cx="21.8" cy="-151.55" r="2.32" gradientTransform="translate(150.68 211.78) rotate(-40.52)" gradientUnits="userSpaceOnUse"><stop offset="0" stop-color="#f4a6a7"/><stop offset="0.34" stop-color="#f4a9a6"/><stop offset="0.56" stop-color="#f4b2a2"/><stop offset="0.75" stop-color="#f4c19b"/><stop offset="0.92" stop-color="#f3d692"/><stop offset="1" stop-color="#f3e38c"/></radialGradient><radialGradient id="Dégradé_sans_nom_23" cx="21.8" cy="-151.55" r="1.44" gradientTransform="translate(150.68 211.78) rotate(-40.52)" gradientUnits="userSpaceOnUse"><stop offset="0" stop-color="#fff"/><stop offset="0.44" stop-color="#fffffd"/><stop offset="0.59" stop-color="#fefdf6"/><stop offset="0.71" stop-color="#fdfaeb"/><stop offset="0.8" stop-color="#fbf6da"/><stop offset="0.88" stop-color="#f9f1c4"/><stop offset="0.94" stop-color="#f6eaa9"/><stop offset="1" stop-color="#f3e38c"/></radialGradient><radialGradient id="Dégradé_sans_nom_28-2" cx="29.68" cy="-155.41" r="3.33" xlink:href="#Dégradé_sans_nom_28"/><radialGradient id="Dégradé_sans_nom_20" cx="29.68" cy="-155.41" r="2.06" gradientTransform="translate(150.68 211.78) rotate(-40.52)" gradientUnits="userSpaceOnUse"><stop offset="0" stop-color="#fff"/><stop offset="0.2" stop-color="#fffefb"/><stop offset="0.39" stop-color="#fdfbf1"/><stop offset="0.56" stop-color="#fcf7de"/><stop offset="0.73" stop-color="#f9f1c5"/><stop offset="0.9" stop-color="#f5e9a4"/><stop offset="1" stop-color="#f3e38c"/></radialGradient><linearGradient id="Dégradé_sans_nom_6" x1="31.71" y1="-151.76" x2="37.5" y2="-151.76" gradientTransform="translate(150.68 211.78) rotate(-40.52)" gradientUnits="userSpaceOnUse"><stop offset="0" stop-color="#f4a6a7"/><stop offset="1" stop-color="#f3e38c"/></linearGradient><radialGradient id="Dégradé_sans_nom_22" cx="34.61" cy="-151.76" r="1.81" gradientTransform="translate(150.68 211.78) rotate(-40.52)" gradientUnits="userSpaceOnUse"><stop offset="0" stop-color="#fff"/><stop offset="0.27" stop-color="#fffefc"/><stop offset="0.45" stop-color="#fefcf3"/><stop offset="0.6" stop-color="#fcf9e4"/><stop offset="0.74" stop-color="#faf3cf"/><stop offset="0.86" stop-color="#f7edb4"/><stop offset="0.98" stop-color="#f4e593"/><stop offset="1" stop-color="#f3e38c"/></radialGradient><radialGradient id="Dégradé_sans_nom_26" cx="30.34" cy="-164.4" r="2.64" gradientTransform="translate(150.68 211.78) rotate(-40.52)" gradientUnits="userSpaceOnUse"><stop offset="0" stop-color="#f4a6a7"/><stop offset="0.39" stop-color="#f4a8a6"/><stop offset="0.6" stop-color="#f4b0a2"/><stop offset="0.76" stop-color="#f4be9c"/><stop offset="0.9" stop-color="#f3d194"/><stop offset="1" stop-color="#f3e38c"/></radialGradient><radialGradient id="Dégradé_sans_nom_24" cx="30.34" cy="-164.36" r="1.63" gradientTransform="translate(150.68 211.78) rotate(-40.52)" gradientUnits="userSpaceOnUse"><stop offset="0" stop-color="#fff"/><stop offset="0.22" stop-color="#fffefc"/><stop offset="0.4" stop-color="#fefcf2"/><stop offset="0.57" stop-color="#fcf8e0"/><stop offset="0.73" stop-color="#f9f2c8"/><stop offset="0.88" stop-color="#f6eaa9"/><stop offset="1" stop-color="#f3e38c"/></radialGradient><radialGradient id="Dégradé_sans_nom_26-2" cx="27.94" cy="-160.84" r="2.97" xlink:href="#Dégradé_sans_nom_26"/><radialGradient id="Dégradé_sans_nom_24-2" cx="27.94" cy="-160.84" r="1.84" xlink:href="#Dégradé_sans_nom_24"/><radialGradient id="Dégradé_sans_nom_26-3" cx="23.32" cy="-161.43" r="2.59" xlink:href="#Dégradé_sans_nom_26"/><radialGradient id="Dégradé_sans_nom_24-3" cx="23.33" cy="-161.44" r="1.6" xlink:href="#Dégradé_sans_nom_24"/><radialGradient id="Dégradé_sans_nom_28-3" cx="24.86" cy="-157.22" r="2.4" xlink:href="#Dégradé_sans_nom_28"/><radialGradient id="Dégradé_sans_nom_23-2" cx="24.86" cy="-157.22" r="1.49" xlink:href="#Dégradé_sans_nom_23"/><linearGradient id="Dégradé_sans_nom_6-2" x1="30.48" y1="-159.98" x2="35.42" y2="-159.98" xlink:href="#Dégradé_sans_nom_6"/><radialGradient id="Dégradé_sans_nom_21" cx="32.81" cy="-159.98" r="1.49" gradientTransform="translate(150.68 211.78) rotate(-40.52)" gradientUnits="userSpaceOnUse"><stop offset="0" stop-color="#fff"/><stop offset="0.25" stop-color="#fffefc"/><stop offset="0.43" stop-color="#fefcf3"/><stop offset="0.59" stop-color="#fcf8e3"/><stop offset="0.73" stop-color="#faf3cd"/><stop offset="0.87" stop-color="#f7ecb1"/><stop offset="0.99" stop-color="#f3e48f"/><stop offset="1" stop-color="#f3e38c"/></radialGradient><radialGradient id="Dégradé_sans_nom_11" cx="34.61" cy="-156.4" r="2.4" gradientTransform="translate(150.68 211.78) rotate(-40.52)" gradientUnits="userSpaceOnUse"><stop offset="0" stop-color="#fff"/><stop offset="1" stop-color="#f3e38c"/></radialGradient><linearGradient id="Dégradé_sans_nom_6-3" x1="27.3" y1="-150.32" x2="32.25" y2="-150.32" xlink:href="#Dégradé_sans_nom_6"/><radialGradient id="Dégradé_sans_nom_22-2" cx="29.78" cy="-150.32" r="1.49" xlink:href="#Dégradé_sans_nom_22"/><radialGradient id="Dégradé_sans_nom_28-4" cx="25.47" cy="-153.08" r="2.4" xlink:href="#Dégradé_sans_nom_28"/><radialGradient id="Dégradé_sans_nom_23-3" cx="25.47" cy="-153.08" r="1.49" xlink:href="#Dégradé_sans_nom_23"/><radialGradient id="Dégradé_sans_nom_28-5" cx="20.68" cy="-156.49" r="2.37" xlink:href="#Dégradé_sans_nom_28"/><radialGradient id="Dégradé_sans_nom_24-4" cx="20.68" cy="-156.49" r="1.47" xlink:href="#Dégradé_sans_nom_24"/><radialGradient id="Dégradé_sans_nom_26-4" cx="25.47" cy="-148.81" r="2.2" xlink:href="#Dégradé_sans_nom_26"/><radialGradient id="Dégradé_sans_nom_23-4" cx="25.47" cy="-148.81" r="1.36" xlink:href="#Dégradé_sans_nom_23"/><radialGradient id="Dégradé_sans_nom_37" cx="29.22" cy="-146.63" r="2.2" gradientTransform="translate(150.68 211.78) rotate(-40.52)" gradientUnits="userSpaceOnUse"><stop offset="0" stop-color="#f4a6a7"/><stop offset="0.44" stop-color="#f4a8a6"/><stop offset="0.64" stop-color="#f4afa3"/><stop offset="0.78" stop-color="#f4bc9d"/><stop offset="0.9" stop-color="#f3ce95"/><stop offset="1" stop-color="#f3e38c"/></radialGradient><radialGradient id="Dégradé_sans_nom_22-3" cx="29.22" cy="-146.63" r="1.36" xlink:href="#Dégradé_sans_nom_22"/><linearGradient id="Dégradé_sans_nom_6-4" x1="30.86" y1="-147.46" x2="35.29" y2="-147.46" xlink:href="#Dégradé_sans_nom_6"/><radialGradient id="Dégradé_sans_nom_22-4" cx="33.07" cy="-147.46" r="1.36" xlink:href="#Dégradé_sans_nom_22"/><linearGradient id="Dégradé_sans_nom_6-5" x1="36.37" y1="-154.99" x2="40.8" y2="-154.99" xlink:href="#Dégradé_sans_nom_6"/><radialGradient id="Dégradé_sans_nom_21-2" cx="38.58" cy="-154.99" r="1.36" xlink:href="#Dégradé_sans_nom_21"/><radialGradient id="Dégradé_sans_nom_17" cx="37.5" cy="-159.76" r="2.2" gradientTransform="translate(150.68 211.78) rotate(-40.52)" gradientUnits="userSpaceOnUse"><stop offset="0" stop-color="#f4a6a7"/><stop offset="0.49" stop-color="#f4a8a6"/><stop offset="0.67" stop-color="#f4afa3"/><stop offset="0.8" stop-color="#f4bb9e"/><stop offset="0.91" stop-color="#f3cb96"/><stop offset="0.99" stop-color="#f3e18d"/><stop offset="1" stop-color="#f3e38c"/></radialGradient><radialGradient id="Dégradé_sans_nom_21-3" cx="37.5" cy="-159.76" r="1.36" xlink:href="#Dégradé_sans_nom_21"/><linearGradient id="Dégradé_sans_nom_6-6" x1="36.37" y1="-150.22" x2="40.8" y2="-150.22" xlink:href="#Dégradé_sans_nom_6"/><radialGradient id="Dégradé_sans_nom_22-5" cx="38.58" cy="-150.22" r="1.36" xlink:href="#Dégradé_sans_nom_22"/></defs><path class="cls-1" d="M32.09,40.8,22.84,57c-2.22,3.86-4.47,7.85-5,12.26C16.67,78,22.27,86,27.58,93c5,6.63,10.15,13.39,17.08,18s16.12,6.6,23.64,3.07c2.78-1.31,5.2-3.31,8-4.48,3.37-1.39,7.11-1.52,10.72-2a43.12,43.12,0,0,0,21.68-9.13,32.46,32.46,0,0,0,11.64-20.18c.94-6.85-.65-13.86-3.4-20.2s-6.63-12.13-10.49-17.87c-2.61-3.9-5.26-7.83-8.72-11s-7.86-5.54-12.55-5.66c-6-.14-11.53,3.3-17.5,3.46-4.18.11-8.24-1.39-12.4-1.78-9.85-.9-17.17,6.36-22.46,14.54Z" transform="translate(-17.56 -23.46)"/><path class="cls-2" d="M32,40.76,23,56.49c-2.49,4.35-5.11,8.87-5.41,14-.58,10,6.87,18.74,12.62,26.16,6,7.74,13,15.46,22.68,18.27a22.56,22.56,0,0,0,13.58,0,33.56,33.56,0,0,0,6.44-3.39A22.28,22.28,0,0,1,81,108.44c2.72-.45,5.48-.62,8.2-1.11a47,47,0,0,0,7.28-1.92,40.21,40.21,0,0,0,12.52-7c7.37-6.18,12-15.34,11.77-25-.3-11-5.95-20.8-11.85-29.73-5.28-8-11.22-18.26-21.59-20-4.89-.8-9.5,1.15-14.14,2.37a22.18,22.18,0,0,1-8.65.7c-2.78-.37-5.48-1.13-8.26-1.49-9-1.14-16.18,4.5-21.29,11.36-1,1.37-1.93,2.8-3,4.17-.07.09.09.18.16.09,2.35-3.12,4.41-6.37,7.24-9.1a22.1,22.1,0,0,1,11-6.2c5.12-1,10,1,15,1.46,4.89.46,9.33-1.39,14-2.58a19.18,19.18,0,0,1,7.86-.6A18.59,18.59,0,0,1,94.1,26.5c4.49,2.81,7.77,7.06,10.72,11.36,5.92,8.63,12.19,17.61,14.69,27.93a32.25,32.25,0,0,1,.18,15.56,31.86,31.86,0,0,1-6.5,12.53c-6.28,7.52-15.54,11.93-25.11,13.45-2.53.4-5.09.55-7.61,1a20.76,20.76,0,0,0-6.9,2.56,44.42,44.42,0,0,1-6.77,3.69,19.89,19.89,0,0,1-7,1.18c-10,0-18.42-6.31-24.8-13.52-3.31-3.75-6.34-7.77-9.28-11.81S20,82.12,18.62,77.31a20.7,20.7,0,0,1,1.54-15.18c2.3-4.83,5.21-9.41,7.87-14.05l4.14-7.23A.09.09,0,1,0,32,40.76Z" transform="translate(-17.56 -23.46)"/><path class="cls-3" d="M42.87,28.78c2.67,8.81,8.73,15.58,14.23,22.7.68.89,1.36,1.79,2,2.7C64.68,63.71,70,73.38,77.25,82l2.13,2.94c5,6.88,9.81,13.8,13,21.63" transform="translate(-17.56 -23.46)"/><path class="cls-3" d="M50.29,25.49C53.41,32.17,56,39.25,58.62,46c.45,1.14.91,2.28,1.38,3.41.35.85.71,1.7,1.07,2.55,3.41,10.91,9.26,20.62,14.54,30.59.59,1.17,1.21,2.33,1.84,3.49,3.77,7,8,13.58,9.26,21.55" transform="translate(-17.56 -23.46)"/><path class="cls-3" d="M55.44,25.28a81.76,81.76,0,0,1,8.28,19.53c.34,1.14.65,2.28.94,3.44,0,12.55,7.37,22.91,10.76,34.9.27,1.2.54,2.4.83,3.59a74.38,74.38,0,0,0,8.34,21.13" transform="translate(-17.56 -23.46)"/><line class="cls-3" x1="23.1" y1="7.2" x2="76.56" y2="82.6"/><path class="cls-3" d="M35.09,36.31c5.64,3.52,9.66,8.41,13.81,13.6.83,1,1.66,2.09,2.51,3.14C57,61.18,64.27,68.2,71.63,75c.92.86,1.83,1.71,2.7,2.57a174.31,174.31,0,0,0,25.83,26.2" transform="translate(-17.56 -23.46)"/><path class="cls-3" d="M32.87,39.76C40.48,46.39,49.14,53,56,60.39c4.4,4.57,8.8,9.14,13.46,13.29l2.32,2.15L74,78l2.27,2.11C85,87.51,94,94.55,101.46,103.29" transform="translate(-17.56 -23.46)"/><path class="cls-3" d="M28.06,47.75c1.07,1.32,2.33,1.65,3.86,2.3C41,52.24,47.78,57.36,54.41,62.72L57.24,65c6.83,6.56,15.79,10.17,23,16.33,1.1.85,2.21,1.68,3.32,2.51,7.79,5.77,15.85,11,25.23,14.61" transform="translate(-17.56 -23.46)"/><path class="cls-3" d="M25.87,51.68C34,59,44,62.57,53.7,66.64c1.08.46,2.16.91,3.23,1.39,8.87,5,18,10,27.57,13.39l3.59,1.64c8.35,3.86,15.81,7.32,23.16,13.1" transform="translate(-17.56 -23.46)"/><path class="cls-3" d="M24.66,53.79c.48.51,16.23,7.71,29.64,13.79l2.48,1.13c8.78,4.06,17.42,8.43,26.76,11.77l2.3,1c11.84,5,28.65,12,27.94,11.65" transform="translate(-17.56 -23.46)"/><path class="cls-3" d="M23.29,56.18s18.63,7.36,32.93,13.11l2.47,1c3.53,1.4,7,2.86,10.45,4.26l3.46,1.37c3.42,1.64,7.06,2.45,10.94,3.55,11.11,3.25,22.43,5.19,32.81,10.13" transform="translate(-17.56 -23.46)"/><path class="cls-3" d="M19.3,64.51c9.09.32,17.25,4.13,26.11,6l2.86.55,8.94,1.7,4,.76c3.67.75,7.07,1.28,10.7,2.09-4.79-9.62-5.31-20-7.62-30.2l-.66-2.58-4.4-17" transform="translate(-17.56 -23.46)"/><path class="cls-3" d="M64.87,26.85,67,41.69c.11.82.24,1.66.36,2.51.72,9.74.79,19,3.2,28.69a18.25,18.25,0,0,1,0,9c-.15,1.28-.33,2.55-.53,3.82a161.81,161.81,0,0,1-8.3,30.09" transform="translate(-17.56 -23.46)"/><path class="cls-3" d="M18.69,67.87c14.36,4.67,29.59,4.6,44.45,6.18,1.35.14,6.91,1.57,8.26,1.74,3.9,9.42,5.67,22.09,5.31,33.65" transform="translate(-17.56 -23.46)"/><path class="cls-3" d="M81.79,23.81c1.15,2.46,1.15,4.62,1.31,7a21.39,21.39,0,0,1,0,3.49A10.46,10.46,0,0,1,82,38.64c-6,12-14.3,24-9.43,36,.66,1.63,2.86,2.33,5.5,2.79.88.15,1.81.27,2.75.4,12.52,1.6,25.48,3.57,37.06,8.91" transform="translate(-17.56 -23.46)"/><path class="cls-3" d="M100.38,32.23l-2,3.14c-.64,1-1.4,2.17-2.27,3.49-8.4,11.59-17.23,23-23.27,36.06.78.24,1.56.44,2.35.61s1.6.33,2.41.47c12,.76,23.77,2.47,35.23,7.12,1.11.28,2.11.49,2.94.66a20.67,20.67,0,0,0,3.19.42" transform="translate(-17.56 -23.46)"/><path class="cls-3" d="M104.38,36.87c-5.68,11-16,18.39-23.46,28.21l-2.47,3.2c-1.64,2.14-3.25,4.29-4.85,6.44,2.09-1.69,4.11-3.43,6.08-5.21,1-.89,2-1.79,2.94-2.69,8.67-8.69,17.61-14.11,25.9-23.56" transform="translate(-17.56 -23.46)"/><path class="cls-3" d="M110.69,46.54c-10.14,6.38-19.13,14.78-28.43,22.25-1.94,1.17-3.93,2.86-6.09,3.91-1.11.74-2.24,1.49-3.38,2.22,1.11-.21,2.2-.45,3.3-.71,14.13-2.42,28.86-6.29,42.25-12.69" transform="translate(-17.56 -23.46)"/><path class="cls-3" d="M19.18,79.05c11.21-2.7,22.85-2.84,34.51-2.63l2.63-.2,4.13-.32c4.83-.33,9.77-.56,14.73-.78L78.9,75c13.13-2.76,25.83-2.83,39.3-1.44l2.45-.08" transform="translate(-17.56 -23.46)"/><path class="cls-3" d="M24.29,88.65c7.63-4.78,17.12-4.56,25.52-7.07.92-.28,1.82-.58,2.7-.87L69,75.23" transform="translate(-17.56 -23.46)"/><path class="cls-3" d="M36.24,102.45C41,96.21,49.72,96.11,56,91.38c1-.77,2-1.55,3-2.34A72.13,72.13,0,0,0,72.31,75.5" transform="translate(-17.56 -23.46)"/><path class="cls-3" d="M48.76,113.19C53,101.12,60.93,91.43,68,81.06l1.88-3.18L71.63,75l-6.79,2.73-2.14.87C54,82.17,45.54,85.47,37,89.07l-2.19.9c-4.16,1.72-7,2.92-7.18,3.07" transform="translate(-17.56 -23.46)"/><path class="cls-3" d="M50.11,113.85c8.42-12,16-23.87,20.74-37.53" transform="translate(-17.56 -23.46)"/><circle class="cls-1" cx="58.74" cy="42.18" r="3.88"/><circle class="cls-4" cx="62.95" cy="46.65" r="3.88"/><circle class="cls-1" cx="63.85" cy="52.38" r="3.88"/><circle class="cls-1" cx="56.25" cy="60.65" r="3.88"/><circle class="cls-1" cx="45.03" cy="55.64" r="3.88"/><circle class="cls-4" cx="61.05" cy="57.64" r="3.88"/><circle class="cls-4" cx="49.84" cy="60.04" r="3.88"/><circle class="cls-4" cx="44.38" cy="48.44" r="3.88"/><circle class="cls-1" cx="48.04" cy="43.67" r="3.88"/><circle class="cls-4" cx="53.31" cy="41.36" r="3.88"/><circle class="cls-5" cx="55.55" cy="51.1" r="8.08"/><g class="cls-6"><path class="cls-1" d="M80.74,69.81c0,.08.15,0,.18,0S80.7,69.84,80.74,69.81Z" transform="translate(-17.56 -23.46)"/><polygon class="cls-1" points="62.09 45.48 62.16 45.46 61.91 45.41 62.09 45.48"/><path class="cls-1" d="M78.79,68.05c-.09.28.35.28.44.5v.07l.22-.08C79.22,68.38,78.88,68.24,78.79,68.05Z" transform="translate(-17.56 -23.46)"/><path class="cls-1" d="M78.62,67.18c0,.11-.17,0,.11.13v0Z" transform="translate(-17.56 -23.46)"/><path class="cls-1" d="M78.72,67.27c.11.08,0-.12,0,0Z" transform="translate(-17.56 -23.46)"/><path class="cls-1" d="M78.17,67l.2,0c0-.07-.13-.17-.05-.17C78.13,66.73,78.13,66.81,78.17,67Z" transform="translate(-17.56 -23.46)"/><path class="cls-1" d="M77.92,67l.1,0S78,67,77.92,67Z" transform="translate(-17.56 -23.46)"/><path class="cls-1" d="M78.23,67.07,78,67s0,.12.09,0C78.05,67.12,78.12,67.07,78.23,67.07Z" transform="translate(-17.56 -23.46)"/><path class="cls-1" d="M78.3,67.17c0,.1.13.21-.07.18C78.52,67.52,78.6,67.34,78.3,67.17Z" transform="translate(-17.56 -23.46)"/><path class="cls-1" d="M78.56,68.22a.74.74,0,0,1,0,.14h.14C78.67,68.36,78.61,68.15,78.56,68.22Z" transform="translate(-17.56 -23.46)"/><path class="cls-1" d="M77.25,66.26s0,.16,0,.23h.15C77.32,66.43,77.22,66.34,77.25,66.26Z" transform="translate(-17.56 -23.46)"/><path class="cls-1" d="M77.21,66.49H77C77.15,66.58,77.2,66.55,77.21,66.49Z" transform="translate(-17.56 -23.46)"/><polygon class="cls-1" points="60.17 43.79 60.55 43.79 60.12 43.76 60.17 43.79"/><polygon class="cls-1" points="58.98 42.48 59.14 42.4 58.88 42.51 58.98 42.48"/><path class="cls-1" d="M76.05,65.78c.12-.08,0-.21,0-.25a.84.84,0,0,0-.41.08A.44.44,0,0,1,76.05,65.78Z" transform="translate(-17.56 -23.46)"/><path class="cls-1" d="M75.48,65.68a1.28,1.28,0,0,0,.21-.07A.65.65,0,0,0,75.48,65.68Z" transform="translate(-17.56 -23.46)"/><path class="cls-1" d="M76.7,66.32a.23.23,0,0,0-.08-.2v.17Z" transform="translate(-17.56 -23.46)"/><path class="cls-1" d="M76.63,66.3h0l-.15-.07Z" transform="translate(-17.56 -23.46)"/><path class="cls-1" d="M76.72,66.33h0S76.71,66.35,76.72,66.33Z" transform="translate(-17.56 -23.46)"/><path class="cls-1" d="M77.38,66.87c-.15,0-.4,0-.26.23C77.24,67,77.16,66.91,77.38,66.87Z" transform="translate(-17.56 -23.46)"/><path class="cls-1" d="M76.73,66.55l.17.12s0-.11.07-.12Z" transform="translate(-17.56 -23.46)"/><polygon class="cls-1" points="59.06 43.1 59.17 43.09 59.11 43.05 59.06 43.1"/><path class="cls-1" d="M75.79,65.93a.55.55,0,0,1-.31,0,1.09,1.09,0,0,0,.33.15S75.92,66,75.79,65.93Z" transform="translate(-17.56 -23.46)"/><path class="cls-1" d="M76.2,66.11h0S76.19,66.13,76.2,66.11Z" transform="translate(-17.56 -23.46)"/><polygon class="cls-1" points="56.85 42.23 56.86 42.26 56.87 42.23 56.85 42.23"/><path class="cls-1" d="M75.82,66.1a.15.15,0,0,0,.2,0,.76.76,0,0,1-.21,0S75.79,66.1,75.82,66.1Z" transform="translate(-17.56 -23.46)"/><path class="cls-1" d="M75.16,65.67l.14.12C75.26,65.73,75.19,65.63,75.16,65.67Z" transform="translate(-17.56 -23.46)"/><path class="cls-1" d="M76.17,66.06h0S76.16,66,76.17,66.06Z" transform="translate(-17.56 -23.46)"/><path class="cls-1" d="M76.17,66.06a.37.37,0,0,0-.15,0h.16A.11.11,0,0,1,76.17,66.06Z" transform="translate(-17.56 -23.46)"/><path class="cls-1" d="M74,66.67a.24.24,0,0,1,.42-.07c.2-.08.17-.58,0-.88,0,.07,0,.12-.24.19.07.07.41.25.23.35s-.2-.08-.32-.17c.08.19-.35.24-.32.51l.22-.07S73.91,66.63,74,66.67Z" transform="translate(-17.56 -23.46)"/><path class="cls-1" d="M74.8,65.81h.09a.84.84,0,0,1-.26-.25c-.15,0-.19.09-.2.14l.4.09Z" transform="translate(-17.56 -23.46)"/><path class="cls-1" d="M75.26,65.89c-.1.13-.31.17-.23.35.23.05.19-.08.35-.11-.39-.07.13-.06-.12-.23l.22,0a.83.83,0,0,1-.18-.13v0h0s0,0,0,0h0l0,0c-.1-.06,0,0,0,0v0h0c-.13,0-.28,0-.41,0A1.39,1.39,0,0,0,75.26,65.89Z" transform="translate(-17.56 -23.46)"/><path class="cls-1" d="M76.78,67.31s0,0,0,0S76.74,67.29,76.78,67.31Z" transform="translate(-17.56 -23.46)"/><path class="cls-1" d="M76.69,67.15s.08-.05.15,0,0,.07,0,.12.21,0,.1-.16h0c-.11-.12-.2-.39-.17-.4A1.24,1.24,0,0,0,76.69,67.15Z" transform="translate(-17.56 -23.46)"/><path class="cls-1" d="M76,66.52l-.33,0,.11.18,0-.09C76,66.68,76,66.58,76,66.52Z" transform="translate(-17.56 -23.46)"/><path class="cls-1" d="M74.38,65.61l.07-.16a2.29,2.29,0,0,0-.23.21Z" transform="translate(-17.56 -23.46)"/><polygon class="cls-1" points="56.38 42.12 56.41 41.98 56.29 42.05 56.38 42.12"/><path class="cls-1" d="M69.75,80.91h0Z" transform="translate(-17.56 -23.46)"/><path class="cls-1" d="M69.26,80.61l-.05.06S69.27,80.63,69.26,80.61Z" transform="translate(-17.56 -23.46)"/><path class="cls-1" d="M65.08,70.5c-.19.07-.46.13-.3.18l.16,0A.32.32,0,0,1,65.08,70.5Z" transform="translate(-17.56 -23.46)"/><path class="cls-1" d="M65.56,77.33l0-.06-.17,0Z" transform="translate(-17.56 -23.46)"/><path class="cls-1" d="M66.22,77.17l0,.18A.4.4,0,0,0,66.22,77.17Z" transform="translate(-17.56 -23.46)"/><path class="cls-1" d="M72.75,81.57l.09-.16C72.71,81.41,72.76,81.49,72.75,81.57Z" transform="translate(-17.56 -23.46)"/><path class="cls-1" d="M69.57,66.33a.81.81,0,0,0-.33,0C69.42,66.39,69.59,66.47,69.57,66.33Z" transform="translate(-17.56 -23.46)"/><path class="cls-1" d="M68.7,82.3a.14.14,0,0,0,.12,0C68.75,82.25,68.7,82.26,68.7,82.3Z" transform="translate(-17.56 -23.46)"/><path class="cls-1" d="M68.92,66.53H69a.53.53,0,0,1,.24-.17A.27.27,0,0,0,68.92,66.53Z" transform="translate(-17.56 -23.46)"/><path class="cls-1" d="M80.26,74.88l0,0S80.26,74.86,80.26,74.88Z" transform="translate(-17.56 -23.46)"/><path class="cls-1" d="M81.14,71s0,.1.08.15A.27.27,0,0,0,81.14,71Z" transform="translate(-17.56 -23.46)"/><path class="cls-1" d="M72.17,65.52c.09,0,0,0,0,0Z" transform="translate(-17.56 -23.46)"/><path class="cls-1" d="M72.66,66.12a.1.1,0,0,0,0,.08S72.64,66.13,72.66,66.12Z" transform="translate(-17.56 -23.46)"/><path class="cls-1" d="M68.68,67.85h0S68.7,67.86,68.68,67.85Z" transform="translate(-17.56 -23.46)"/><path class="cls-1" d="M72.32,65.58l-.13,0A.24.24,0,0,0,72.32,65.58Z" transform="translate(-17.56 -23.46)"/><path class="cls-1" d="M72.29,65.51h.08S72.37,65.47,72.29,65.51Z" transform="translate(-17.56 -23.46)"/><path class="cls-1" d="M72,65.54h.15s0,0,0,0Z" transform="translate(-17.56 -23.46)"/><path class="cls-1" d="M77.88,80.45h0C77.92,80.35,77.9,80.38,77.88,80.45Z" transform="translate(-17.56 -23.46)"/><polygon class="cls-1" points="48.38 49.65 48.37 49.64 48.36 49.65 48.38 49.65"/><path class="cls-1" d="M66,73.4c-.18-.15-.14-.21-.08-.29h-.47Z" transform="translate(-17.56 -23.46)"/><path class="cls-1" d="M71,81.39l-.14-.19c.29-.17.4,0,.31-.29-.19.49-.66-.17-.87.28l-.08-.14s0,0,.08,0c-.12-.31-.31.26-.57,0-.08-.08-.11-.18,0-.2h-.28c-.06,0,0-.11.06-.07l-.33-.16h0a1.51,1.51,0,0,1-.34.08c0-.11.07,0,.08-.08l-.24,0c0-.15.22-.15.33-.07.13-.51-.22,0-.36-.47l.18.06c.08-.3-.09-.31-.14-.57,0,.1,0,.61-.21.57,0-.07-.07-.13-.23-.13.12-.14,0-.18-.11-.28l.17-.16c-.15-.06-.23,0-.37.05-.11-.14,0-.29.09-.43-.15-.23-.1.35-.34.13-.08-.25-.27-.29-.55-.44,0-.19.14-.06.16-.15h-.24s0-.06.07-.07c-.13-.06-.2.13-.37,0-.27.09.11-.55-.26-.61,0-.09.14,0,.21-.11a3.6,3.6,0,0,0-.61-.33l.05-.28c-.09.23-.38.11-.62,0a.82.82,0,0,0-.12.22,2.09,2.09,0,0,1-.24-.28c0-.06.11,0,.22,0l-.07,0c0-.14.19-.12.34-.09l-.1.16a.81.81,0,0,0,.47,0,.24.24,0,0,1-.1-.08.11.11,0,0,0,.1,0s0,0-.11-.06l.23-.15-.11,0,0-.44a1.86,1.86,0,0,1-1-.84c.21.09.32,0,.55,0-.22.17.17.34.17.58,0-.13.11-.13.15-.1l-.3-.37c.19,0,.12-.11.19-.23-.36.13-.27-.29-.41-.45.13,0,.26,0,.25.22.26-.25-.48-.27-.23-.52,0,0,0,.08,0,.1-.11-.12,0-.42.09-.35v0c0-.34.07-1-.24-1.13a2.93,2.93,0,0,1,.43.13,10.08,10.08,0,0,1-.93-.83c.26.12.93.05,1,.36a.37.37,0,0,0,.06-.34c-.06,0-.42,0-.43,0,.36-.13.2-.11.52-.28-.07.06-.46-.15-.41-.28.06,0,.41.12.44.18a3.79,3.79,0,0,1-.29-.45c0,.11.33.13.46.11-.09,0,.11-.25.11-.35l-.14.09c.18-.31-.4-.58-.2-.92.06.08.42.34.56.2-.17-.17-.71-.85-.64-1.26h.14c0-.11,0-.22,0-.32.14.34.47,1.12.57,1.43.16-.06.15,0,.25-.13.13,0,.09.18.06.23l.31-.34c-.22-.13,0-.43-.18-.54a5.22,5.22,0,0,0-.07.57c-.22-.11-.45-.66-.17-.91.13,0,.31.32.38.36s.07-.35.14-.33V70c.18-.08-.06-.46.28-.46.07,0,.39.06.29,0a3,3,0,0,1-1-.93,1.92,1.92,0,0,1,.7-.08c.25.08.19.53.41.59a.29.29,0,0,1,0-.2c.1,0,.11.18.23,0-.14-.21.29-.22-.08-.22.1-.17.18-.09.34-.22-.15-.09-.17-.56,0-.73,0,.06.11.11.15.13.32-.22.58-.19.89-.36.06,0,.24,0,.22.15,0-.06,0-.15.13-.2.28.12-.2.12,0,.3,0-.14.17-.29.28-.43-.13-.2-.35.1-.45.24a.89.89,0,0,1,.3-1c.28-.18.2.15.24.09.57-.11.33-.7.88-.59.24.16.1.39.17.52-.23.12-.4,0-.57,0l.23,0a.34.34,0,0,1-.31.16c.2.11,1-.22,1.4-.1.07-.07.2-.15.13-.23l-.14.05c-.15-.15.24-.25.05-.31.18-.12.39-.35.68-.25l.06.23a.19.19,0,0,0-.26-.07c.11-.1.42.31.55,0L73,66c.2-.11.46-.37.71-.26-.1-.24,0,0-.23-.26.15.33-.66,0-.41.33-.19-.3-.32-.14-.58-.38,0,.08.09.14-.13.12a.12.12,0,0,1,0,.07h0a.25.25,0,0,1,.12.1c-.09.19-.42.22-.52.32s0-.1,0-.17l-.15.16c0-.16-.38-.21-.1-.36l-.27,0a.6.6,0,0,0-.53,0c-.13,0-.26.27-.19.12l-.38.22,0,0c-.41.12-.69.56-1.25.51a1,1,0,0,1-.44.29l-.12-.1c-.13.13-.54.18-.53.35-.4-.22-.77.48-1.06.64l.12.15a1.82,1.82,0,0,0-.42.59l.13.1c-.06.25-.47.37-.7.68,0-.06,0-.12.11-.15-.6.12-.3.92-.74,1.11a.2.2,0,0,1-.11.21v0l0,0-.14.08.13-.06a1,1,0,0,0-.08.3l-.19,0v0c-.12.07,0,.11.18.12a.58.58,0,0,0,0,.18c-.3,0,0,.31-.35.31.1.12-.1.58.2.73,0,0-.07,0-.05,0a.36.36,0,0,0-.09.34h-.23a4,4,0,0,0,.23.34c-.16.13-.26.18-.4,0,.19.45,0,.34.25.71l-.15,0c0,.12.18.33.05.39-.33.24-.11,1.31-.26,2,.4-.2-.15.35.2.32-.09.06-.13.17-.24.07.17.33-.06.58.29.75-.08.07-.16,0-.21,0s.12.09.07.15-.1,0-.16-.08c.13.37.44.3.73.23-.08.22,0,.3.2.35-.06.09-.12.23-.24,0,0,.12.17.78.4.68,0,.06.07.16.11.18a3.06,3.06,0,0,0,.26.51v-.08c.29,0,.17.16.32.32h0c.12.53.19.13.31.66l.12-.13c.33-.21.11.48.41.61v-.15c.19,0-.07.67,0,.83s-.07,0-.13,0c.16.47.2-.13.47,0,0,.14-.27.19-.12.36s.75.08.85.44c0-.11,0-.23.16-.21s.32.65.66.48a.14.14,0,0,1,0,.09c.19,0,.56.14.72,0-.1.63,1.08.11.89.63L71,83l0,0a.53.53,0,0,0,.61-.11c.07,0,0,.09,0,.12.46.21.53.17,1-.07l0,.19c.1-.08.71.32,1.2.08a.25.25,0,0,1,0,.08c.51-.24,1.42.33,1.47-.38a3.61,3.61,0,0,0,.3-.25c-.45.08,0-.3-.22-.36.15-.09.49.06.29.16l0,0c0,.36.57,0,.64.17a10.58,10.58,0,0,0,2.43-1.13l-.24-.15.24-.18c.1,0,.21.1,0,.23.19,0,.2-.34.16-.38.39-.19.08.34.18.27l.13-.13h0c0-.18,0-.26.15-.44s.18.06.23,0,0,0,.08-.06l.28-.27-.26,0c0-.19.25-.25,0-.29.22,0,.47-.22.68-.48a3.59,3.59,0,0,1,.43-.61,1.24,1.24,0,0,1,.24-.71c-.07,0-.31,0-.17-.23.42.3.37-.31.78-.37-.28.09.19-.68-.23-.52.09-.19.18,0,.34-.07,0-.52.4-1,.4-1.66-.06,0-.17.07-.26-.06l.36-.3c0-.12-.36-.13-.13-.34-.06,0-.14.08-.16,0A3.4,3.4,0,0,0,81.63,73a6.18,6.18,0,0,1-.25-1.85c-.06.2-.11.11-.16,0,0,.09-.15.06-.23.11,0-.18,0-.37,0-.56-.27,0-.28-.47-.51-.4l.11.12c-.34-.05-.4.54-.74.67.4.05-.21.69.35.82,0,.09-.13,0-.2,0,.18,0,.24.11.23.31h0a2.86,2.86,0,0,1,.09,1.35l.17-.07a.45.45,0,0,1-.1.23c.28.12,0-.36.28-.26-.33.21.08.92-.35,1,0,.19.21-.06.21.14l-.12.05.15,0a.25.25,0,0,1-.27.18s0-.08,0-.11c-.15.15,0,.45-.05.5l.09-.17c.07.54-.23,1.13-.16,1.69l.09,0c0,.44-.2.27-.29.71l0,0a.39.39,0,0,1,0,.35c0-.14-.27.1-.3-.08,0,.45,0,.25.15.65h-.15a.4.4,0,0,1,0,.4c0-.22-.25,0-.27-.25-.48.21-.17.73-.64.62.17.41.42-.18.41,0,.16,0,.11.32,0,.41s-.54-.13-.78.14c0,0,0-.05,0-.08-.17,0-.09.3-.33.29.08.23-.17.12,0,.37l.21-.27c-.09.17,0,.56-.37.64a.61.61,0,0,1,0-.26c-.13,0-.1.17-.23.15-.15-.24.28-.32.28-.62-.15,0-.15.41-.27.1.14.42-.3.19-.33.57l-.08-.16c0,.05,0,.16-.1.2l0-.26c-.06.27-.4.07-.51.24.34-.19.19.15.4.17-.31.45-.48-.26-.9.06,0-.05.28,0,.22.1A.53.53,0,0,1,76,81c-.31.17.12.14,0,.3-.2-.15-.13.15-.26.28l-.06-.17c-.43,0,0,.39-.39.38l.08-.29-.17.12,0-.21a.4.4,0,0,1-.44.19.24.24,0,0,1-.14.36c-.15-.08,0-.18-.22-.1,0-.13.08-.28.22-.14,0-.06,0-.12,0-.18-.15-.09-.33,0-.42.06a.2.2,0,0,1,.11,0,3.17,3.17,0,0,1-.34.3c-.06-.06,0-.12,0-.17s-.12.11-.23.14c0-.15,0-.3.14-.39l-.33.2c0-.06-.19-.16-.15-.21-.18-.09-.46.29-.71.16a.2.2,0,0,1-.1.07c-.24-.07-.43-.23-.74-.1l-.11-.29c-.23,0,.16.36-.24.39s0-.23-.12-.33c-.15.1-.45.29-.63,0C70.9,81.33,71,81.38,71,81.39Zm-2.51-1.21c.06,0,.22,0,.19.09S68.55,80.28,68.52,80.18Zm-2.77-3.39c.07,0,.06.09,0,.18A.21.21,0,0,1,65.75,76.79Zm5.44-11h0C71,65.8,71.08,65.81,71.19,65.83Zm.32,0s0,0,0-.07-.08.06-.16.06S71.42,65.9,71.51,65.84Zm7.85,14.9h-.07C79.34,80.62,79.35,80.68,79.36,80.74Z" transform="translate(-17.56 -23.46)"/><path class="cls-1" d="M66.14,77.19l-.08.06S66.13,77.24,66.14,77.19Z" transform="translate(-17.56 -23.46)"/><path class="cls-1" d="M72.73,81.6h0a0,0,0,0,1,0,0Z" transform="translate(-17.56 -23.46)"/><path class="cls-1" d="M68.25,69.06a.22.22,0,0,1-.14,0S68.18,69.1,68.25,69.06Z" transform="translate(-17.56 -23.46)"/><path class="cls-1" d="M73.14,65.39l-.21,0a.25.25,0,0,1,.19.06S73.08,65.4,73.14,65.39Z" transform="translate(-17.56 -23.46)"/><path class="cls-1" d="M74.69,66.66s0,0,.08,0v-.08C74.67,66.55,74.58,66.61,74.69,66.66Z" transform="translate(-17.56 -23.46)"/><path class="cls-1" d="M73.31,66c0,.15.14.09.27.08h0C73.61,65.86,73.46,65.91,73.31,66Z" transform="translate(-17.56 -23.46)"/><path class="cls-1" d="M73.61,66.07h.12C73.76,66,73.69,66.05,73.61,66.07Z" transform="translate(-17.56 -23.46)"/><path class="cls-1" d="M71.88,65.68c.07,0,0-.2.06-.14C72,65.34,71.53,65.82,71.88,65.68Z" transform="translate(-17.56 -23.46)"/><polygon class="cls-1" points="55.85 43.02 55.81 42.84 55.73 42.99 55.85 43.02"/><path class="cls-1" d="M72.39,66.38l.21,0s0,0,.05-.07C72.53,66.35,72.39,66.33,72.39,66.38Z" transform="translate(-17.56 -23.46)"/><path class="cls-1" d="M72.65,66.34a.29.29,0,0,0,.17,0Z" transform="translate(-17.56 -23.46)"/><polygon class="cls-1" points="55.57 43.08 55.51 43.04 55.37 43.03 55.57 43.08"/><path class="cls-1" d="M70.23,66.83,70,67c0,.07.08.08.14,0S70.28,66.87,70.23,66.83Z" transform="translate(-17.56 -23.46)"/><path class="cls-1" d="M71,67.11c-.07,0-.08-.06-.13-.11l.06.23Z" transform="translate(-17.56 -23.46)"/><path class="cls-1" d="M70.45,67.35c0,.07-.21.29,0,.17C70.47,67.45,70.65,67.33,70.45,67.35Z" transform="translate(-17.56 -23.46)"/><polygon class="cls-1" points="50.03 45.34 50.06 45.3 49.8 45.03 50.03 45.34"/><path class="cls-1" d="M66.72,71.53c.19-.16-.18-.15,0-.29-.06-.09-.17.11-.21,0C66.55,71.44,66.47,71.48,66.72,71.53Z" transform="translate(-17.56 -23.46)"/><path class="cls-1" d="M66.53,71.27a.29.29,0,0,0,0-.09A.17.17,0,0,0,66.53,71.27Z" transform="translate(-17.56 -23.46)"/><polygon class="cls-1" points="63.47 46.86 63.45 46.65 63.39 46.82 63.47 46.86"/><path class="cls-1" d="M80.61,70.15,80.8,70l-.24,0S80.64,70.09,80.61,70.15Z" transform="translate(-17.56 -23.46)"/><path class="cls-1" d="M68.53,79.55l0,0c0,.06,0,.09,0,.14Z" transform="translate(-17.56 -23.46)"/><polygon class="cls-1" points="52.46 57.32 52.43 57.3 52.39 57.53 52.46 57.32"/><path class="cls-1" d="M71.63,81.07c-.06,0-.15,0-.21,0C71.56,81.05,71.59,81.33,71.63,81.07Z" transform="translate(-17.56 -23.46)"/></g><path class="cls-7" d="M69.82,80.49A2,2,0,0,0,67.76,80c-1.25.61-1.26,2.66-.36,3.93a2,2,0,0,0,1.85.92,2.07,2.07,0,0,0,1.66-2.84A3.26,3.26,0,0,0,69.82,80.49Z" transform="translate(-17.56 -23.46)"/><path class="cls-8" d="M69.43,81.22a1.27,1.27,0,0,0-1.28-.28c-.77.38-.78,1.65-.22,2.44a1.22,1.22,0,0,0,1.14.56,1.27,1.27,0,0,0,1-1.75A2,2,0,0,0,69.43,81.22Z" transform="translate(-17.56 -23.46)"/><path class="cls-9" d="M75.37,73.1a2.85,2.85,0,0,1,0,3c-1.3,1.72-4.25,1.5-5.76.06a2.55,2.55,0,0,1-.69-2.75,3.45,3.45,0,0,1,4.62-2.06A3.92,3.92,0,0,1,75.37,73.1Z" transform="translate(-17.56 -23.46)"/><path class="cls-10" d="M74.19,73.58a1.77,1.77,0,0,1,0,1.86,2.52,2.52,0,0,1-3.57,0,1.56,1.56,0,0,1-.43-1.7A2.13,2.13,0,0,1,73,72.5,2.42,2.42,0,0,1,74.19,73.58Z" transform="translate(-17.56 -23.46)"/><path class="cls-11" d="M81.12,72.81a2.53,2.53,0,0,1-.05,2.64C79.91,77,77.32,76.8,76,75.54a2.22,2.22,0,0,1-.6-2.41,3.07,3.07,0,0,1,4.08-1.84A3.3,3.3,0,0,1,81.12,72.81Z" transform="translate(-17.56 -23.46)"/><path class="cls-12" d="M80.08,73.24a1.54,1.54,0,0,1,0,1.63,2.23,2.23,0,0,1-3.14.06,1.38,1.38,0,0,1-.36-1.5,1.9,1.9,0,0,1,2.53-1.13A2,2,0,0,1,80.08,73.24Z" transform="translate(-17.56 -23.46)"/><path class="cls-13" d="M69.45,66a2.21,2.21,0,0,1-.14,2.36,3.32,3.32,0,0,1-4.6.26c-.7-.55-.65-1.29-.45-2.14A3,3,0,0,1,68,64.7,2.62,2.62,0,0,1,69.45,66Z" transform="translate(-17.56 -23.46)"/><path class="cls-14" d="M68.52,66.45a1.37,1.37,0,0,1-.09,1.46,2.05,2.05,0,0,1-2.85.16c-.44-.34-.4-.79-.28-1.32a1.86,1.86,0,0,1,2.33-1.11A1.67,1.67,0,0,1,68.52,66.45Z" transform="translate(-17.56 -23.46)"/><path class="cls-15" d="M70.21,70.21a2.53,2.53,0,0,1-.06,2.68C69,74.44,66.32,74.28,65,73a2.26,2.26,0,0,1-.59-2.45,3.17,3.17,0,0,1,4.17-1.89A3.32,3.32,0,0,1,70.21,70.21Z" transform="translate(-17.56 -23.46)"/><path class="cls-16" d="M69.15,70.65a1.55,1.55,0,0,1,0,1.66,2.28,2.28,0,0,1-3.2.07,1.37,1.37,0,0,1-.36-1.52,2,2,0,0,1,2.57-1.16A2.06,2.06,0,0,1,69.15,70.65Z" transform="translate(-17.56 -23.46)"/><path class="cls-17" d="M62.12,71.58a2.2,2.2,0,0,1,2.32-.18,3.25,3.25,0,0,1,.86,4.44c-.44.75-1.16.79-2,.72a3,3,0,0,1-2.23-3.42A2.61,2.61,0,0,1,62.12,71.58Z" transform="translate(-17.56 -23.46)"/><path class="cls-18" d="M62.66,72.46a1.33,1.33,0,0,1,1.43-.11,2,2,0,0,1,.54,2.74c-.28.47-.72.49-1.25.45A1.82,1.82,0,0,1,62,73.42,1.64,1.64,0,0,1,62.66,72.46Z" transform="translate(-17.56 -23.46)"/><path class="cls-19" d="M69.73,75.11a2.07,2.07,0,0,1-.13,2.17,3,3,0,0,1-4.2.23c-.64-.5-.59-1.17-.41-2a2.73,2.73,0,0,1,3.43-1.63A2.42,2.42,0,0,1,69.73,75.11Z" transform="translate(-17.56 -23.46)"/><path class="cls-20" d="M68.85,75.5a1.27,1.27,0,0,1-.08,1.34,1.88,1.88,0,0,1-2.6.14c-.39-.31-.36-.72-.25-1.21a1.7,1.7,0,0,1,2.12-1A1.5,1.5,0,0,1,68.85,75.5Z" transform="translate(-17.56 -23.46)"/><path class="cls-21" d="M74.08,67.75A2,2,0,0,1,74,69.91a3,3,0,0,1-4.19.24c-.64-.5-.59-1.18-.42-2a2.74,2.74,0,0,1,3.44-1.63A2.41,2.41,0,0,1,74.08,67.75Z" transform="translate(-17.56 -23.46)"/><path class="cls-22" d="M73.1,68.22A1.27,1.27,0,0,1,73,69.56a1.89,1.89,0,0,1-2.61.15c-.39-.31-.36-.73-.25-1.21a1.7,1.7,0,0,1,2.13-1A1.49,1.49,0,0,1,73.1,68.22Z" transform="translate(-17.56 -23.46)"/><path class="cls-23" d="M77.67,69.4a2,2,0,0,1-.13,2.16,3,3,0,0,1-4.2.23c-.64-.5-.59-1.17-.41-2a2.73,2.73,0,0,1,3.43-1.63A2.41,2.41,0,0,1,77.67,69.4Z" transform="translate(-17.56 -23.46)"/><path class="cls-24" d="M76.79,69.78a1.27,1.27,0,0,1-.08,1.34,1.87,1.87,0,0,1-2.6.14c-.39-.31-.36-.72-.25-1.21A1.7,1.7,0,0,1,76,69,1.53,1.53,0,0,1,76.79,69.78Z" transform="translate(-17.56 -23.46)"/><path class="cls-25" d="M78,77.16a2,2,0,0,1-.13,2.16,3,3,0,0,1-4.2.24c-.64-.5-.58-1.18-.41-2A2.75,2.75,0,0,1,76.65,76,2.46,2.46,0,0,1,78,77.16Z" transform="translate(-17.56 -23.46)"/><path class="cls-26" d="M77.07,77.54A1.25,1.25,0,0,1,77,78.88a1.89,1.89,0,0,1-2.61.15c-.39-.31-.36-.73-.25-1.21a1.7,1.7,0,0,1,2.13-1A1.49,1.49,0,0,1,77.07,77.54Z" transform="translate(-17.56 -23.46)"/><path class="cls-27" d="M72.88,77.86A2,2,0,0,1,72.76,80a3,3,0,0,1-4.2.24c-.64-.5-.59-1.18-.42-2a2.74,2.74,0,0,1,3.44-1.63A2.41,2.41,0,0,1,72.88,77.86Z" transform="translate(-17.56 -23.46)"/><path class="cls-28" d="M72,78.25a1.27,1.27,0,0,1-.08,1.34,1.88,1.88,0,0,1-2.6.14c-.4-.31-.37-.73-.26-1.21a1.7,1.7,0,0,1,2.13-1A1.53,1.53,0,0,1,72,78.25Z" transform="translate(-17.56 -23.46)"/><path class="cls-29" d="M66.92,78.5a2,2,0,0,1,0,2.14c-.92,1.23-3,1.06-4.1,0a1.84,1.84,0,0,1-.5-2,2.45,2.45,0,0,1,3.29-1.45A2.81,2.81,0,0,1,66.92,78.5Z" transform="translate(-17.56 -23.46)"/><path class="cls-30" d="M66.08,78.84a1.25,1.25,0,0,1,0,1.33,1.81,1.81,0,0,1-2.54,0A1.15,1.15,0,0,1,63.22,79a1.51,1.51,0,0,1,2-.89A1.69,1.69,0,0,1,66.08,78.84Z" transform="translate(-17.56 -23.46)"/><path class="cls-31" d="M74.55,80.2a1.87,1.87,0,0,0-2-.23,2.73,2.73,0,0,0-.73,3.75c.38.66,1,.72,1.71.69a2.4,2.4,0,0,0,1.9-2.84A2.36,2.36,0,0,0,74.55,80.2Z" transform="translate(-17.56 -23.46)"/><path class="cls-32" d="M74.09,80.93a1.15,1.15,0,0,0-1.21-.15,1.7,1.7,0,0,0-.46,2.33c.24.41.62.44,1.06.42a1.48,1.48,0,0,0,1.18-1.75A1.46,1.46,0,0,0,74.09,80.93Z" transform="translate(-17.56 -23.46)"/><path class="cls-33" d="M78.81,79.42a1.87,1.87,0,0,0-2-.23,2.74,2.74,0,0,0-.73,3.75c.38.66,1,.72,1.72.69a2.4,2.4,0,0,0,1.89-2.84A2.32,2.32,0,0,0,78.81,79.42Z" transform="translate(-17.56 -23.46)"/><path class="cls-34" d="M78.36,80.15A1.17,1.17,0,0,0,77.14,80a1.69,1.69,0,0,0-.45,2.33c.23.41.61.44,1.06.42A1.48,1.48,0,0,0,78.92,81,1.46,1.46,0,0,0,78.36,80.15Z" transform="translate(-17.56 -23.46)"/><path class="cls-35" d="M81.2,76.29a1.84,1.84,0,0,0-2-.24,2.73,2.73,0,0,0-.73,3.75c.37.66,1,.72,1.71.69a2.39,2.39,0,0,0,1.89-2.84A2.29,2.29,0,0,0,81.2,76.29Z" transform="translate(-17.56 -23.46)"/><path class="cls-36" d="M80.75,77a1.16,1.16,0,0,0-1.22-.14,1.69,1.69,0,0,0-.45,2.32c.23.41.61.45,1.06.43a1.47,1.47,0,0,0,1.17-1.76A1.44,1.44,0,0,0,80.75,77Z" transform="translate(-17.56 -23.46)"/><path class="cls-37" d="M80.5,67a1.87,1.87,0,0,0-2-.23,2.74,2.74,0,0,0-.73,3.75c.38.66,1,.72,1.72.69a2.4,2.4,0,0,0,1.89-2.84A2.32,2.32,0,0,0,80.5,67Z" transform="translate(-17.56 -23.46)"/><path class="cls-38" d="M80.05,67.71a1.17,1.17,0,0,0-1.22-.15,1.69,1.69,0,0,0-.45,2.33c.23.4.61.44,1.06.42a1.49,1.49,0,0,0,1.17-1.76A1.47,1.47,0,0,0,80.05,67.71Z" transform="translate(-17.56 -23.46)"/><path class="cls-39" d="M76.58,64.06a1.88,1.88,0,0,0-2-.24,2.74,2.74,0,0,0-.73,3.76,1.62,1.62,0,0,0,1.71.68,2.34,2.34,0,0,0,1-4.2Z" transform="translate(-17.56 -23.46)"/><path class="cls-40" d="M76.12,64.79a1.13,1.13,0,0,0-1.21-.15A1.69,1.69,0,0,0,74.45,67a1,1,0,0,0,1.06.42,1.49,1.49,0,0,0,1.18-1.76A1.44,1.44,0,0,0,76.12,64.79Z" transform="translate(-17.56 -23.46)"/><path class="cls-41" d="M83.6,70.61a1.88,1.88,0,0,0-2-.24,2.74,2.74,0,0,0-.73,3.75c.38.66,1,.72,1.72.69A2.39,2.39,0,0,0,84.51,72,2.32,2.32,0,0,0,83.6,70.61Z" transform="translate(-17.56 -23.46)"/><path class="cls-42" d="M83.15,71.33a1.16,1.16,0,0,0-1.22-.14,1.68,1.68,0,0,0-.45,2.32c.23.41.61.45,1.06.43a1.46,1.46,0,0,0,.61-2.61Z" transform="translate(-17.56 -23.46)"/></svg>