<svg xmlns="http://www.w3.org/2000/svg" xmlns:xlink="http://www.w3.org/1999/xlink" viewBox="0 0 84.93 84.59"><defs><style>.cls-1{isolation:isolate;}.cls-2{fill:#86c9b3;}.cls-3{fill:#50162e;}.cls-4{mix-blend-mode:multiply;}.cls-27,.cls-5{fill:none;}.cls-11,.cls-13,.cls-17,.cls-19,.cls-21,.cls-25,.cls-27,.cls-29,.cls-31,.cls-33,.cls-37,.cls-39,.cls-41,.cls-43,.cls-45,.cls-5{stroke:#50162e;}.cls-10,.cls-11,.cls-12,.cls-13,.cls-14,.cls-15,.cls-16,.cls-17,.cls-18,.cls-19,.cls-20,.cls-21,.cls-22,.cls-23,.cls-24,.cls-25,.cls-26,.cls-27,.cls-28,.cls-29,.cls-30,.cls-31,.cls-32,.cls-33,.cls-34,.cls-35,.cls-36,.cls-37,.cls-38,.cls-39,.cls-40,.cls-41,.cls-42,.cls-43,.cls-44,.cls-45,.cls-5{stroke-miterlimit:10;}.cls-5{stroke-width:0.16px;}.cls-6{fill:#f3e38c;}.cls-7{fill:#f4a6a7;}.cls-8{fill:url(#Dégradé_sans_nom_12);}.cls-9{opacity:0.53;}.cls-10,.cls-12,.cls-14,.cls-16,.cls-18,.cls-20,.cls-22,.cls-24,.cls-26,.cls-28,.cls-30,.cls-32,.cls-34,.cls-36,.cls-38,.cls-40,.cls-42,.cls-44{stroke:#f3e38c;}.cls-10{stroke-width:0.05px;fill:url(#Dégradé_sans_nom_28);}.cls-11,.cls-13,.cls-15,.cls-17,.cls-19,.cls-21,.cls-23,.cls-25,.cls-27,.cls-29,.cls-31,.cls-33,.cls-35,.cls-37,.cls-39,.cls-41,.cls-43,.cls-45{stroke-width:0.66px;}.cls-11{fill:url(#Dégradé_sans_nom_23);}.cls-12{stroke-width:0.05px;fill:url(#Dégradé_sans_nom_28-2);}.cls-13{fill:url(#Dégradé_sans_nom_20);}.cls-14{stroke-width:0.04px;fill:url(#Dégradé_sans_nom_6);}.cls-15,.cls-23,.cls-35{stroke:#f5df4d;}.cls-15{fill:url(#Dégradé_sans_nom_22);}.cls-16{stroke-width:0.04px;fill:url(#Dégradé_sans_nom_26);}.cls-17{fill:url(#Dégradé_sans_nom_24);}.cls-18{stroke-width:0.04px;fill:url(#Dégradé_sans_nom_26-2);}.cls-19{fill:url(#Dégradé_sans_nom_24-2);}.cls-20{stroke-width:0.04px;fill:url(#Dégradé_sans_nom_26-3);}.cls-21{fill:url(#Dégradé_sans_nom_24-3);}.cls-22,.cls-24,.cls-26,.cls-28,.cls-30{stroke-width:0.04px;}.cls-22{fill:url(#Dégradé_sans_nom_28-3);}.cls-23{fill:url(#Dégradé_sans_nom_23-2);}.cls-24{fill:url(#Dégradé_sans_nom_6-2);}.cls-25{fill:url(#Dégradé_sans_nom_21);}.cls-26{fill:url(#Dégradé_sans_nom_11);}.cls-28{fill:url(#Dégradé_sans_nom_6-3);}.cls-29{fill:url(#Dégradé_sans_nom_22-2);}.cls-30{fill:url(#Dégradé_sans_nom_28-4);}.cls-31{fill:url(#Dégradé_sans_nom_23-3);}.cls-32{stroke-width:0.03px;fill:url(#Dégradé_sans_nom_28-5);}.cls-33{fill:url(#Dégradé_sans_nom_24-4);}.cls-34,.cls-36,.cls-38,.cls-40,.cls-42,.cls-44{stroke-width:0.05px;}.cls-34{fill:url(#Dégradé_sans_nom_26-4);}.cls-35{fill:url(#Dégradé_sans_nom_23-4);}.cls-36{fill:url(#Dégradé_sans_nom_37);}.cls-37{fill:url(#Dégradé_sans_nom_22-3);}.cls-38{fill:url(#Dégradé_sans_nom_6-4);}.cls-39{fill:url(#Dégradé_sans_nom_22-4);}.cls-40{fill:url(#Dégradé_sans_nom_6-5);}.cls-41{fill:url(#Dégradé_sans_nom_21-2);}.cls-42{fill:url(#Dégradé_sans_nom_17);}.cls-43{fill:url(#Dégradé_sans_nom_21-3);}.cls-44{fill:url(#Dégradé_sans_nom_6-6);}.cls-45{fill:url(#Dégradé_sans_nom_22-5);}</style><radialGradient id="Dégradé_sans_nom_12" cx="571.33" cy="-115.5" r="7.61" gradientTransform="matrix(-0.15, 0.92, -0.92, -0.15, 13.99, -503.75)" gradientUnits="userSpaceOnUse"><stop offset="0" stop-color="#fff"/><stop offset="0.24" stop-color="#fffefc"/><stop offset="0.42" stop-color="#fefcf2"/><stop offset="0.58" stop-color="#fcf8e2"/><stop offset="0.73" stop-color="#faf2cb"/><stop offset="0.87" stop-color="#f7ebae"/><stop offset="1" stop-color="#f3e38c"/></radialGradient><radialGradient id="Dégradé_sans_nom_28" cx="508.2" cy="-33.83" r="2.04" gradientTransform="translate(17.93 -459.63) rotate(90)" gradientUnits="userSpaceOnUse"><stop offset="0" stop-color="#f4a6a7"/><stop offset="0.34" stop-color="#f4a9a6"/><stop offset="0.56" stop-color="#f4b2a2"/><stop offset="0.75" stop-color="#f4c19b"/><stop offset="0.92" stop-color="#f3d692"/><stop offset="1" stop-color="#f3e38c"/></radialGradient><radialGradient id="Dégradé_sans_nom_23" cx="508.2" cy="-33.83" r="1.27" gradientTransform="translate(17.93 -459.63) rotate(90)" gradientUnits="userSpaceOnUse"><stop offset="0" stop-color="#fff"/><stop offset="0.44" stop-color="#fffffd"/><stop offset="0.59" stop-color="#fefdf6"/><stop offset="0.71" stop-color="#fdfaeb"/><stop offset="0.8" stop-color="#fbf6da"/><stop offset="0.88" stop-color="#f9f1c4"/><stop offset="0.94" stop-color="#f6eaa9"/><stop offset="1" stop-color="#f3e38c"/></radialGradient><radialGradient id="Dégradé_sans_nom_28-2" cx="515.15" cy="-37.23" r="2.93" xlink:href="#Dégradé_sans_nom_28"/><radialGradient id="Dégradé_sans_nom_20" cx="515.15" cy="-37.23" r="1.82" gradientTransform="translate(17.93 -459.63) rotate(90)" gradientUnits="userSpaceOnUse"><stop offset="0" stop-color="#fff"/><stop offset="0.2" stop-color="#fffefb"/><stop offset="0.39" stop-color="#fdfbf1"/><stop offset="0.56" stop-color="#fcf7de"/><stop offset="0.73" stop-color="#f9f1c5"/><stop offset="0.9" stop-color="#f5e9a4"/><stop offset="1" stop-color="#f3e38c"/></radialGradient><linearGradient id="Dégradé_sans_nom_6" x1="516.94" y1="-34.02" x2="522.04" y2="-34.02" gradientTransform="translate(17.93 -459.63) rotate(90)" gradientUnits="userSpaceOnUse"><stop offset="0" stop-color="#f4a6a7"/><stop offset="1" stop-color="#f3e38c"/></linearGradient><radialGradient id="Dégradé_sans_nom_22" cx="519.49" cy="-34.02" r="1.6" gradientTransform="translate(17.93 -459.63) rotate(90)" gradientUnits="userSpaceOnUse"><stop offset="0" stop-color="#fff"/><stop offset="0.27" stop-color="#fffefc"/><stop offset="0.45" stop-color="#fefcf3"/><stop offset="0.6" stop-color="#fcf9e4"/><stop offset="0.74" stop-color="#faf3cf"/><stop offset="0.86" stop-color="#f7edb4"/><stop offset="0.98" stop-color="#f4e593"/><stop offset="1" stop-color="#f3e38c"/></radialGradient><radialGradient id="Dégradé_sans_nom_26" cx="515.73" cy="-45.16" r="2.32" gradientTransform="translate(17.93 -459.63) rotate(90)" gradientUnits="userSpaceOnUse"><stop offset="0" stop-color="#f4a6a7"/><stop offset="0.39" stop-color="#f4a8a6"/><stop offset="0.6" stop-color="#f4b0a2"/><stop offset="0.76" stop-color="#f4be9c"/><stop offset="0.9" stop-color="#f3d194"/><stop offset="1" stop-color="#f3e38c"/></radialGradient><radialGradient id="Dégradé_sans_nom_24" cx="515.73" cy="-45.12" r="1.44" gradientTransform="translate(17.93 -459.63) rotate(90)" gradientUnits="userSpaceOnUse"><stop offset="0" stop-color="#fff"/><stop offset="0.22" stop-color="#fffefc"/><stop offset="0.4" stop-color="#fefcf2"/><stop offset="0.57" stop-color="#fcf8e0"/><stop offset="0.73" stop-color="#f9f2c8"/><stop offset="0.88" stop-color="#f6eaa9"/><stop offset="1" stop-color="#f3e38c"/></radialGradient><radialGradient id="Dégradé_sans_nom_26-2" cx="513.62" cy="-42.02" r="2.62" xlink:href="#Dégradé_sans_nom_26"/><radialGradient id="Dégradé_sans_nom_24-2" cx="513.62" cy="-42.02" r="1.62" xlink:href="#Dégradé_sans_nom_24"/><radialGradient id="Dégradé_sans_nom_26-3" cx="509.54" cy="-42.54" r="2.28" xlink:href="#Dégradé_sans_nom_26"/><radialGradient id="Dégradé_sans_nom_24-3" cx="509.55" cy="-42.55" r="1.41" xlink:href="#Dégradé_sans_nom_24"/><radialGradient id="Dégradé_sans_nom_28-3" cx="510.89" cy="-38.83" r="2.12" xlink:href="#Dégradé_sans_nom_28"/><radialGradient id="Dégradé_sans_nom_23-2" cx="510.89" cy="-38.83" r="1.31" xlink:href="#Dégradé_sans_nom_23"/><linearGradient id="Dégradé_sans_nom_6-2" x1="515.85" y1="-41.27" x2="520.21" y2="-41.27" xlink:href="#Dégradé_sans_nom_6"/><radialGradient id="Dégradé_sans_nom_21" cx="517.91" cy="-41.27" r="1.31" gradientTransform="translate(17.93 -459.63) rotate(90)" gradientUnits="userSpaceOnUse"><stop offset="0" stop-color="#fff"/><stop offset="0.25" stop-color="#fffefc"/><stop offset="0.43" stop-color="#fefcf3"/><stop offset="0.59" stop-color="#fcf8e3"/><stop offset="0.73" stop-color="#faf3cd"/><stop offset="0.87" stop-color="#f7ecb1"/><stop offset="0.99" stop-color="#f3e48f"/><stop offset="1" stop-color="#f3e38c"/></radialGradient><radialGradient id="Dégradé_sans_nom_11" cx="519.49" cy="-38.11" r="2.12" gradientTransform="translate(17.93 -459.63) rotate(90)" gradientUnits="userSpaceOnUse"><stop offset="0" stop-color="#fff"/><stop offset="1" stop-color="#f3e38c"/></radialGradient><linearGradient id="Dégradé_sans_nom_6-3" x1="513.05" y1="-32.74" x2="517.41" y2="-32.74" xlink:href="#Dégradé_sans_nom_6"/><radialGradient id="Dégradé_sans_nom_22-2" cx="515.23" cy="-32.74" r="1.31" xlink:href="#Dégradé_sans_nom_22"/><radialGradient id="Dégradé_sans_nom_28-4" cx="511.43" cy="-35.18" r="2.12" xlink:href="#Dégradé_sans_nom_28"/><radialGradient id="Dégradé_sans_nom_23-3" cx="511.43" cy="-35.18" r="1.31" xlink:href="#Dégradé_sans_nom_23"/><radialGradient id="Dégradé_sans_nom_28-5" cx="507.21" cy="-38.19" r="2.09" xlink:href="#Dégradé_sans_nom_28"/><radialGradient id="Dégradé_sans_nom_24-4" cx="507.21" cy="-38.19" r="1.29" xlink:href="#Dégradé_sans_nom_24"/><radialGradient id="Dégradé_sans_nom_26-4" cx="511.43" cy="-31.42" r="1.94" xlink:href="#Dégradé_sans_nom_26"/><radialGradient id="Dégradé_sans_nom_23-4" cx="511.43" cy="-31.42" r="1.2" xlink:href="#Dégradé_sans_nom_23"/><radialGradient id="Dégradé_sans_nom_37" cx="514.74" cy="-29.5" r="1.94" gradientTransform="translate(17.93 -459.63) rotate(90)" gradientUnits="userSpaceOnUse"><stop offset="0" stop-color="#f4a6a7"/><stop offset="0.44" stop-color="#f4a8a6"/><stop offset="0.64" stop-color="#f4afa3"/><stop offset="0.78" stop-color="#f4bc9d"/><stop offset="0.9" stop-color="#f3ce95"/><stop offset="1" stop-color="#f3e38c"/></radialGradient><radialGradient id="Dégradé_sans_nom_22-3" cx="514.74" cy="-29.5" r="1.2" xlink:href="#Dégradé_sans_nom_22"/><linearGradient id="Dégradé_sans_nom_6-4" x1="516.19" y1="-30.23" x2="520.09" y2="-30.23" xlink:href="#Dégradé_sans_nom_6"/><radialGradient id="Dégradé_sans_nom_22-4" cx="518.14" cy="-30.23" r="1.2" xlink:href="#Dégradé_sans_nom_22"/><linearGradient id="Dégradé_sans_nom_6-5" x1="521.05" y1="-36.87" x2="524.95" y2="-36.87" xlink:href="#Dégradé_sans_nom_6"/><radialGradient id="Dégradé_sans_nom_21-2" cx="523" cy="-36.87" r="1.2" xlink:href="#Dégradé_sans_nom_21"/><radialGradient id="Dégradé_sans_nom_17" cx="522.04" cy="-41.07" r="1.94" gradientTransform="translate(17.93 -459.63) rotate(90)" gradientUnits="userSpaceOnUse"><stop offset="0" stop-color="#f4a6a7"/><stop offset="0.49" stop-color="#f4a8a6"/><stop offset="0.67" stop-color="#f4afa3"/><stop offset="0.8" stop-color="#f4bb9e"/><stop offset="0.91" stop-color="#f3cb96"/><stop offset="0.99" stop-color="#f3e18d"/><stop offset="1" stop-color="#f3e38c"/></radialGradient><radialGradient id="Dégradé_sans_nom_21-3" cx="522.04" cy="-41.07" r="1.2" xlink:href="#Dégradé_sans_nom_21"/><linearGradient id="Dégradé_sans_nom_6-6" x1="521.05" y1="-32.66" x2="524.95" y2="-32.66" xlink:href="#Dégradé_sans_nom_6"/><radialGradient id="Dégradé_sans_nom_22-5" cx="523" cy="-32.66" r="1.2" xlink:href="#Dégradé_sans_nom_22"/></defs><g class="cls-1"><g id="Calque_1" data-name="Calque 1"><path class="cls-2" d="M100.68,47.81,95.14,32.35c-1.32-3.69-2.7-7.49-5.33-10.4C84.6,16.18,76,15.33,68.25,14.86,60.94,14.42,53.46,14,46.42,16s-13.66,7-15.59,14.08c-.72,2.61-.77,5.39-1.61,8-1,3.06-3.06,5.64-4.8,8.35a38.12,38.12,0,0,0-6.3,19.76A28.63,28.63,0,0,0,25,85.54C29,90.09,34.64,93,40.47,94.83s11.93,2.51,18,3.21a52.25,52.25,0,0,0,12.36.46c4.1-.51,8.22-2.1,11-5.18,3.52-3.91,4.4-9.62,7.71-13.71,2.32-2.87,5.65-4.72,8.3-7.3,6.24-6.08,5.57-15.14,3.12-23.37Z" transform="translate(-17.95 -14.33)"/><path class="cls-3" d="M100.85,47.77,95.31,32.3c-1.46-4.09-3-8.34-6.28-11.39-5.9-5.54-14.8-5.88-22.42-6.32-9.25-.54-19.22-.73-27.33,4.47a20.52,20.52,0,0,0-7.59,8.25c-2,4.26-1.54,9.16-3.8,13.35-1.13,2.11-2.59,4-3.86,6a42.58,42.58,0,0,0-3.22,6.22A35.86,35.86,0,0,0,18,66.38a28.21,28.21,0,0,0,10.3,22.47c7.39,5.85,16.88,7.71,26,8.87,8.68,1.1,19.7,3.2,26.82-3.42,3.1-2.88,4.36-7,6.17-10.68A19.13,19.13,0,0,1,91.31,78c1.65-1.54,3.52-2.82,5.25-4.28a16.86,16.86,0,0,0,5.9-9.69A28.47,28.47,0,0,0,102,52.43c-.35-1.57-.83-3.1-1.17-4.66,0-.22-.39-.13-.34.09.77,3.49,1.8,6.84,2,10.44a18.8,18.8,0,0,1-2.57,11.17c-2.34,3.66-6.26,5.67-9.29,8.66-2.8,2.77-4.13,6.41-5.76,9.9-1.93,4.15-4.66,7.38-9,9.06s-9.36,1.61-14.06,1.15c-9.38-.93-19.31-1.89-27.84-6.2A27.68,27.68,0,0,1,18.8,72.18C17.1,63,19.88,53.64,24.92,46a62.07,62.07,0,0,0,3.47-5.51,19.46,19.46,0,0,0,1.78-5.87,27.69,27.69,0,0,1,1.54-6.48,17.76,17.76,0,0,1,3.29-5c6.14-6.7,15.41-8.41,24.11-8.41,4.47,0,9,.26,13.44.69A35.35,35.35,0,0,1,84.2,18.1a17.87,17.87,0,0,1,8.62,8.84c2.1,4.45,3.52,9.27,5.17,13.89l2.52,7C100.58,48.07,100.92,48,100.85,47.77Z" transform="translate(-17.95 -14.33)"/><g class="cls-4"><path class="cls-5" d="M102.56,61.93c-7.44-3.26-15.44-3.08-23.37-3.47-1-.05-2-.11-3-.19-9.57-1.73-19.1-3.71-29-3.78L44,54.22c-7.45-.62-14.87-1.33-21.92-3.7" transform="translate(-17.95 -14.33)"/><path class="cls-5" d="M100.51,68.79C94.25,67.05,88,64.75,82,62.6l-3.07-1-2.33-.74c-9.26-4-19.12-5.61-28.83-7.78-1.12-.28-2.26-.53-3.39-.77-6.83-1.46-13.71-2.4-19.75-6.14" transform="translate(-17.95 -14.33)"/><path class="cls-5" d="M97.7,72.36a72.38,72.38,0,0,1-17.84-5.64c-1-.43-1.89-.87-2.84-1.34-8.4-7.2-19.57-8.19-29.55-12.78-1-.51-1.92-1-2.88-1.51a65.82,65.82,0,0,0-19-6.51" transform="translate(-17.95 -14.33)"/><line class="cls-5" x1="84.62" y1="45.04" x2="3.45" y2="37.67"/><path class="cls-5" d="M102,52.4c-5.58,1.76-11.16,1.65-17,1.46l-3.54-.11c-8.65-.93-17.53-.06-26.31,1-1.1.13-2.2.25-3.27.34a153,153,0,0,0-32.36,2.31" transform="translate(-17.95 -14.33)"/><path class="cls-5" d="M100.93,48.94c-8.81,1.29-18.18,3.32-27.05,3.65-5.59.33-11.17.66-16.62,1.41l-2.77.32-2.76.32L49,55c-10,1.59-19.83,3.56-30,3.56" transform="translate(-17.95 -14.33)"/><path class="cls-5" d="M98.32,41.13c-1.49,0-2.43.62-3.74,1.28-6.67,4.83-14,6.44-21.38,7.8L70,50.79c-8.31.82-15.87,4.76-24.13,6.07-1.2.25-2.39.52-3.58.79C34,59.57,25.85,62,18.07,66.18" transform="translate(-17.95 -14.33)"/><path class="cls-5" d="M97,37.41c-9.53,1.24-17.67,5.89-26,10.08-.93.47-1.85.93-2.78,1.38-8.45,3.07-17,6.35-24.78,10.8l-3.15,1.47c-7.37,3.38-14,6.4-22.05,8" transform="translate(-17.95 -14.33)"/><path class="cls-5" d="M96.23,35.39c-.62,0-14.47,6.46-26.23,12l-2.17,1c-7.75,3.57-15.64,6.85-23.23,11.2l-2,1C32.5,65.63,18.21,72.9,18.81,72.6" transform="translate(-17.95 -14.33)"/><path class="cls-5" d="M95.41,33.1s-15.6,8.28-27.65,14.57l-2.08,1.09c-3,1.56-5.93,3-8.84,4.56-1,.51-1.94,1-2.9,1.54a59.06,59.06,0,0,0-8.65,5.29C36.75,65.74,29,72.21,19.7,76.34" transform="translate(-17.95 -14.33)"/><path class="cls-5" d="M92.11,25.66c-5.42,5.9-12.65,9.19-19,14.05l-2,1.6-6.27,5L62,48.59c-2.6,2-4.9,4-7.53,6,9.2,2.3,16.43,7.89,24.61,12.2l2.11,1,13.93,6.8" transform="translate(-17.95 -14.33)"/><path class="cls-5" d="M91.25,77.78,80.08,70.71l-1.89-1.2C71.25,64.42,65,59.16,57.12,55.22a16.1,16.1,0,0,1-6-5.18c-.77-.83-1.52-1.68-2.26-2.54A142.37,142.37,0,0,1,33.46,24.69" transform="translate(-17.95 -14.33)"/><path class="cls-5" d="M90.21,23.32c-11.36,7-20,17.2-29.61,26.26-.87.82-5,3.74-5.9,4.54-8.54-2.78-18.05-8.86-25.6-15.72" transform="translate(-17.95 -14.33)"/><path class="cls-5" d="M83.59,90.86a15.75,15.75,0,0,1-5.42-3.11,19.41,19.41,0,0,1-2.3-2,9,9,0,0,1-2.32-3.23C69,71.65,65.66,59.16,54.82,55.55c-1.48-.49-3.2.57-5,2.08-.61.51-1.22,1.06-1.85,1.62-8.24,7.47-17,15-27.2,19.73" transform="translate(-17.95 -14.33)"/><path class="cls-5" d="M67.3,98.5l-.93-3.17c-.3-1-.65-2.19-1-3.53-2.95-12.26-5.58-24.75-10.84-36.25-.6.38-1.19.79-1.76,1.22s-1.13.88-1.69,1.35c-7.39,7.62-15.28,14.52-25,19.53-.82.59-1.53,1.14-2.13,1.59a19.36,19.36,0,0,0-2.1,1.9" transform="translate(-17.95 -14.33)"/><path class="cls-5" d="M61.9,98.52c-4.12-10.11-3.14-21.28-5.47-31.89-.24-1.16-.49-2.33-.73-3.49q-.75-3.48-1.54-6.93c-.06,2.36,0,4.72,0,7.06q0,1.75.12,3.51c.86,10.78-.63,19.88,1,30.86" transform="translate(-17.95 -14.33)"/><path class="cls-5" d="M51.8,97.21c1.53-10.45,1.05-21.29,1.38-31.8.33-2,.33-4.27.86-6.33.14-1.17.29-2.35.45-3.53-.49.86-1,1.74-1.41,2.62C46.61,69,40.75,81.12,37.37,93.76" transform="translate(-17.95 -14.33)"/><path class="cls-5" d="M82.43,17.25c-4.61,9.06-11.18,16.94-18,24.64l-1.37,1.88-2.14,2.94C58.36,50.15,55.68,53.59,53,57l-2,2.58C45.29,70,38.06,78.55,29.41,86.79l-1.35,1.69" transform="translate(-17.95 -14.33)"/><path class="cls-5" d="M73.08,15.18C71.91,23,66.32,29.26,63.19,36.33c-.34.77-.65,1.55-1,2.31L56.46,52.83" transform="translate(-17.95 -14.33)"/><path class="cls-5" d="M57,15.28C58.43,22,53.51,28,53.11,34.84Q53,36.51,53,38.17a64.13,64.13,0,0,0,1.41,16.72" transform="translate(-17.95 -14.33)"/><path class="cls-5" d="M42.6,17.52c5.65,9.77,7.62,20.62,10.5,31.32l1,3.09.94,2.78,2-6.11c.21-.61.43-1.26.65-1.93,2.62-7.88,5.24-15.43,7.75-23.25.23-.69.44-1.35.65-2,1.23-3.78,2.06-6.37,2.06-6.58" transform="translate(-17.95 -14.33)"/><path class="cls-5" d="M41.39,18.05c3.24,12.53,6.86,24.36,13.27,35.4" transform="translate(-17.95 -14.33)"/></g><circle class="cls-6" cx="40.76" cy="48.88" r="3.42"/><circle class="cls-7" cx="35.34" cy="49.14" r="3.42"/><circle class="cls-6" cx="30.99" cy="46.46" r="3.42"/><circle class="cls-6" cx="29.8" cy="36.64" r="3.42"/><circle class="cls-6" cx="39.59" cy="31.99" r="3.42"/><circle class="cls-7" cx="29.07" cy="41.58" r="3.42"/><circle class="cls-7" cx="33.88" cy="32.69" r="3.42"/><circle class="cls-7" cx="44.79" cy="35.68" r="3.42"/><circle class="cls-6" cx="45.89" cy="40.86" r="3.42"/><circle class="cls-7" cx="44.42" cy="45.72" r="3.42"/><circle class="cls-8" cx="36.6" cy="41.64" r="7.12"/><g class="cls-9"><path class="cls-6" d="M53.36,63.8c-.07,0-.07.12-.08.14S53.36,63.76,53.36,63.8Z" transform="translate(-17.95 -14.33)"/><polygon class="cls-6" points="36.62 49.24 36.6 49.3 36.77 49.16 36.62 49.24"/><path class="cls-6" d="M55.66,63.5c-.14-.22-.39.08-.59,0l0,0-.08.2C55.19,63.61,55.48,63.46,55.66,63.5Z" transform="translate(-17.95 -14.33)"/><path class="cls-6" d="M56.34,63.89c-.06-.09.11-.11-.15,0h.15Z" transform="translate(-17.95 -14.33)"/><path class="cls-6" d="M56.22,63.9c-.12,0,.09.06,0,0Z" transform="translate(-17.95 -14.33)"/><path class="cls-6" d="M56.75,63.72l-.13.12c.05,0,.19,0,.15.07C56.92,63.82,56.87,63.78,56.75,63.72Z" transform="translate(-17.95 -14.33)"/><path class="cls-6" d="M56.85,63.51l-.07.06S56.83,63.59,56.85,63.51Z" transform="translate(-17.95 -14.33)"/><path class="cls-6" d="M56.63,63.69l.15-.12s-.05-.1-.07,0C56.71,63.54,56.69,63.62,56.63,63.69Z" transform="translate(-17.95 -14.33)"/><path class="cls-6" d="M56.53,63.68c-.1,0-.21,0-.08-.15C56.17,63.63,56.24,63.78,56.53,63.68Z" transform="translate(-17.95 -14.33)"/><path class="cls-6" d="M55.67,63.25l-.11,0-.09.09S55.69,63.33,55.67,63.25Z" transform="translate(-17.95 -14.33)"/><path class="cls-6" d="M57.74,63.5s-.1-.1-.14-.16l-.08.1C57.59,63.45,57.7,63.43,57.74,63.5Z" transform="translate(-17.95 -14.33)"/><path class="cls-6" d="M57.6,63.34l.13-.14C57.58,63.25,57.57,63.29,57.6,63.34Z" transform="translate(-17.95 -14.33)"/><polygon class="cls-6" points="38.85 48.92 38.64 49.18 38.9 48.91 38.85 48.92"/><polygon class="cls-6" points="40.42 48.88 40.38 49.03 40.46 48.79 40.42 48.88"/><path class="cls-6" d="M58.75,63c0,.13.17.08.14.18a.76.76,0,0,0,.18-.33A.38.38,0,0,1,58.75,63Z" transform="translate(-17.95 -14.33)"/><path class="cls-6" d="M59.14,62.65a.67.67,0,0,0-.07.17A.38.38,0,0,0,59.14,62.65Z" transform="translate(-17.95 -14.33)"/><path class="cls-6" d="M58,63.1a.21.21,0,0,0,.19.06l-.13-.09Z" transform="translate(-17.95 -14.33)"/><path class="cls-6" d="M58.07,63.06h0l.14-.07Z" transform="translate(-17.95 -14.33)"/><path class="cls-6" d="M58,63.1h0S58,63.08,58,63.1Z" transform="translate(-17.95 -14.33)"/><path class="cls-6" d="M57.26,63.23c.07-.11.22-.26,0-.3C57.23,63.05,57.36,63.07,57.26,63.23Z" transform="translate(-17.95 -14.33)"/><path class="cls-6" d="M57.85,63l-.18.05s.07.06,0,.12A2.09,2.09,0,0,1,57.85,63Z" transform="translate(-17.95 -14.33)"/><polygon class="cls-6" points="39.96 48.57 39.9 48.65 39.96 48.63 39.96 48.57"/><path class="cls-6" d="M58.8,62.71A.6.6,0,0,1,59,62.5l-.29.14S58.71,62.78,58.8,62.71Z" transform="translate(-17.95 -14.33)"/><path class="cls-6" d="M58.44,62.88h0S58.43,62.86,58.44,62.88Z" transform="translate(-17.95 -14.33)"/><polygon class="cls-6" points="41.8 47.59 41.78 47.58 41.79 47.6 41.8 47.59"/><path class="cls-6" d="M58.67,62.63a.15.15,0,0,0-.12.14.86.86,0,0,1,.14-.13S58.68,62.61,58.67,62.63Z" transform="translate(-17.95 -14.33)"/><path class="cls-6" d="M59.33,62.44l-.16,0C59.23,62.47,59.34,62.48,59.33,62.44Z" transform="translate(-17.95 -14.33)"/><path class="cls-6" d="M58.5,62.89h0S58.52,62.9,58.5,62.89Z" transform="translate(-17.95 -14.33)"/><path class="cls-6" d="M58.5,62.89a.61.61,0,0,0,0-.12.28.28,0,0,0-.09.1Z" transform="translate(-17.95 -14.33)"/><path class="cls-6" d="M59.35,61.06a.21.21,0,0,1-.2.32c-.06.18.29.45.57.53,0,0-.06-.08,0-.26-.08,0-.4.12-.36-.06s.16-.09.29-.11c-.17-.06.05-.37-.16-.51l-.07.19S59.41,61.05,59.35,61.06Z" transform="translate(-17.95 -14.33)"/><path class="cls-6" d="M59.44,62.12l0,.05a.71.71,0,0,1,.31,0c.06-.13,0-.18,0-.22l-.3.22Z" transform="translate(-17.95 -14.33)"/><path class="cls-6" d="M59.13,62.38c0-.14.07-.31-.11-.36-.16.13-.05.18-.12.3.27-.22,0,.12.22,0a.43.43,0,0,1-.14.13l.19,0h0s0,0,0,0h0s0,0,0,0,0,0,0,0v0h0a2.2,2.2,0,0,0,.24-.28A1.16,1.16,0,0,0,59.13,62.38Z" transform="translate(-17.95 -14.33)"/><path class="cls-6" d="M57.31,62.58l0,0S57.34,62.57,57.31,62.58Z" transform="translate(-17.95 -14.33)"/><path class="cls-6" d="M57.46,62.61s0,.09-.09.1,0-.06,0-.1-.12.15.05.16v0c.14,0,.38.08.37.11A1.48,1.48,0,0,0,57.46,62.61Z" transform="translate(-17.95 -14.33)"/><path class="cls-6" d="M58.28,62.51a2,2,0,0,0,.2-.21l-.18,0,.05.06C58.2,62.39,58.27,62.45,58.28,62.51Z" transform="translate(-17.95 -14.33)"/><path class="cls-6" d="M59.82,62l.07.14c0-.09,0-.19,0-.28Z" transform="translate(-17.95 -14.33)"/><polygon class="cls-6" points="42.15 47.34 42.23 47.44 42.24 47.31 42.15 47.34"/><path class="cls-6" d="M52.22,50.08l0,.06Z" transform="translate(-17.95 -14.33)"/><path class="cls-6" d="M52.7,49.92v-.07S52.68,49.92,52.7,49.92Z" transform="translate(-17.95 -14.33)"/><path class="cls-6" d="M61.87,52.91c.06-.17.18-.38.05-.31l-.11.1A.25.25,0,0,1,61.87,52.91Z" transform="translate(-17.95 -14.33)"/><path class="cls-6" d="M57,49.32l0,0,.12-.09Z" transform="translate(-17.95 -14.33)"/><path class="cls-6" d="M56.75,49.85l-.11-.12A.4.4,0,0,0,56.75,49.85Z" transform="translate(-17.95 -14.33)"/><path class="cls-6" d="M50.06,51.71l0,.16C50.19,51.78,50.1,51.77,50.06,51.71Z" transform="translate(-17.95 -14.33)"/><path class="cls-6" d="M62.09,58.31a.77.77,0,0,0,.17-.24C62.14,58.18,62,58.24,62.09,58.31Z" transform="translate(-17.95 -14.33)"/><path class="cls-6" d="M51.89,48.58a.11.11,0,0,0,0,.11S51.91,48.61,51.89,48.58Z" transform="translate(-17.95 -14.33)"/><path class="cls-6" d="M62.33,57.76l0,.05a.47.47,0,0,1,0,.26A.23.23,0,0,0,62.33,57.76Z" transform="translate(-17.95 -14.33)"/><path class="cls-6" d="M50.24,60.58s0,0,0,0S50.26,60.59,50.24,60.58Z" transform="translate(-17.95 -14.33)"/><path class="cls-6" d="M52.32,63.38l-.14,0A.22.22,0,0,0,52.32,63.38Z" transform="translate(-17.95 -14.33)"/><path class="cls-6" d="M61.15,60.52c0,.07,0,0,0,0Z" transform="translate(-17.95 -14.33)"/><path class="cls-6" d="M60.47,60.5s0,0,0-.06S60.47,60.48,60.47,60.5Z" transform="translate(-17.95 -14.33)"/><path class="cls-6" d="M61.59,56.84Z" transform="translate(-17.95 -14.33)"/><path class="cls-6" d="M61,60.58a.27.27,0,0,0,.1-.06Z" transform="translate(-17.95 -14.33)"/><path class="cls-6" d="M61.09,60.61l-.06,0S61.06,60.68,61.09,60.61Z" transform="translate(-17.95 -14.33)"/><path class="cls-6" d="M61.21,60.42l-.09.1a0,0,0,0,1,0,0Z" transform="translate(-17.95 -14.33)"/><path class="cls-6" d="M47.87,55.79l0,0C47.91,55.88,47.9,55.85,47.87,55.79Z" transform="translate(-17.95 -14.33)"/><polygon class="cls-6" points="41.68 37.66 41.69 37.66 41.69 37.65 41.68 37.66"/><path class="cls-6" d="M59.4,51.87c.2,0,.22,0,.24.11l.27-.32Z" transform="translate(-17.95 -14.33)"/><path class="cls-6" d="M51.17,50.66l.2,0c0,.29-.2.3,0,.37-.23-.41.49-.35.31-.75l.14,0s0,0-.05,0c.27.1,0-.36.28-.41.11,0,.19,0,.15.11l.16-.19c.06,0,.07.06,0,.08l.3-.13h0a1.71,1.71,0,0,1,.14-.27c.1,0,0,.06,0,.1l.15-.15c.1.09,0,.23-.15.26.27.38.12-.16.53,0l-.15.09c.16.22.26.11.46.23,0-.07-.43-.32-.26-.47.06,0,.13,0,.22-.08,0,.16.12.11.25.09v.21c.13-.07.11-.18.18-.28s.2.16.24.3c.24,0-.18-.26.11-.3s.35,0,.61-.11c.14.09,0,.12,0,.19l.14-.15s0,.05,0,.08,0-.21.21-.25c.09-.23.3.39.56.18,0,.07,0,.12,0,.2a2.8,2.8,0,0,0,.57-.22l.15.2c-.09-.2.15-.32.38-.41a1.17,1.17,0,0,0-.08-.21h.33s0,.1-.11.17l.07,0c.07.12,0,.21-.14.29L57,49.37a.67.67,0,0,0-.25.34.15.15,0,0,1,.1,0s0,0,0,.07,0,0,.11,0l0,.24,0-.08.26.28A1.64,1.64,0,0,1,58.36,50c-.18.09-.17.23-.29.39,0-.24-.32-.07-.48-.21.09.07,0,.14,0,.16H58c-.09.14,0,.15,0,.26.11-.32.35,0,.53,0-.06.1-.15.17-.29,0,0,.32.46-.17.48.14,0,0,0-.06-.09,0,.14,0,.3.22.18.25l0,0c.22.2.65.64.9.49a3.37,3.37,0,0,1-.34.21,9.24,9.24,0,0,1,1.09-.15c-.22.11-.57.59-.83.48,0,.08,0,.16.2.24,0-.06.21-.31.26-.26a2.24,2.24,0,0,0-.11.5c0-.08.37-.22.43-.11s-.32.2-.37.19a3.55,3.55,0,0,1,.47.06c-.1,0-.28.14-.34.25,0-.06.1.22.17.27l0-.15c.11.31.61.07.73.4-.09,0-.47.09-.45.26.21,0,1,0,1.21.3l-.09.09a1.24,1.24,0,0,1,.18.21c-.31-.1-1-.33-1.28-.44-.05.15-.11.08-.05.24s-.18,0-.2-.09l0,.4c.22-.07.3.25.47.2a3.07,3.07,0,0,0-.34-.38c.2-.09.7.08.71.41-.07.09-.4,0-.47,0,.09,0,.2.25.15.29l-.14-.1c-.05.17.35.22.15.44,0,.08-.26.23-.13.23a2.74,2.74,0,0,1,1.21-.16,1.67,1.67,0,0,1-.34.52c-.2.12-.47-.17-.64-.07a.32.32,0,0,1,.16.1c0,.07-.19,0-.16.13.22,0,0,.32.19.07.06.17,0,.17,0,.36.15-.06.47.2.52.39a.31.31,0,0,0-.17,0c-.05.35-.21.5-.27.81-.06,0-.16.14-.23.06s.08.11.06.2c-.24.12,0-.21-.23-.14.12,0,.09.28.13.44.2,0,.13-.3.1-.44a.76.76,0,0,1,.48.76c0,.29-.21,0-.19.11-.26.45.28.63-.12.93-.24.07-.31-.16-.44-.18,0-.22.26-.25.31-.4l-.15.14a.35.35,0,0,1,.07-.3c-.18.07-.39.76-.73,1,0,.08,0,.22.08.21l0-.11c.18,0,0,.3.17.21,0,.19,0,.46-.22.59l-.18-.09s.19,0,.19-.13c0,.13-.45.1-.32.36l.22,0c0,.19,0,.52-.23.63.21.06,0-.05.3,0-.3-.09.39-.44,0-.46.31,0,.27-.14.58-.18,0,0-.14,0,0-.15s0,0,0-.07h0a.24.24,0,0,1-.14,0c-.07-.17.1-.41.09-.53s0,.08.13.06a1.1,1.1,0,0,0,0-.18c.13.06.36-.14.3.14l.13-.21a.51.51,0,0,0,.27-.38c.07-.09,0-.34,0-.2l.07-.38h0c.16-.35,0-.79.38-1.13a.88.88,0,0,1,.06-.46l.13,0c0-.17.19-.47.07-.56.38-.14.12-.8.18-1.08h-.17a1.54,1.54,0,0,0-.16-.61l-.14,0c-.13-.19,0-.54,0-.86.06,0,.06.1,0,.16.26-.47-.44-.73-.32-1.13a.2.2,0,0,1-.08-.2l0,0,0,0a.58.58,0,0,0,0-.14.35.35,0,0,0,0,.12,1.21,1.21,0,0,0-.16-.23l.13-.1,0,0c0-.12-.09,0-.18.06a.31.31,0,0,0-.15-.08c.2-.19-.19-.19,0-.42-.14,0-.33-.39-.61-.28,0,0,0-.05.06,0,0-.11-.06-.22-.18-.25l.14-.16-.36,0c0-.19,0-.28.24-.26-.41-.13-.25-.17-.62-.24l.11-.08c-.08-.07-.32-.07-.29-.19,0-.37-.82-.83-1.21-1.34-.1.39-.15-.3-.33,0,0-.1,0-.18.09-.2-.32-.08-.36-.38-.67-.23,0-.1.12-.1.11-.16s-.13,0-.13,0,.07,0,.14-.06c-.32-.13-.46.12-.58.35-.09-.18-.18-.19-.35-.06,0-.1-.08-.21.12-.18-.1,0-.62-.33-.68-.12,0-.06-.15,0-.18,0a2.27,2.27,0,0,0-.5-.12l.06.05c-.13.22-.2,0-.4,0v0c-.43-.23-.19,0-.62-.18l0,.16c-.05.34-.38-.2-.64-.07l.09.09c-.12.11-.41-.43-.57-.47s.05-.05.09-.07c-.41-.17,0,.21-.31.28-.06-.1,0-.29-.16-.28s-.49.45-.78.31c.07.07.15.13,0,.23s-.62-.16-.7.17c0,0,0,0-.06-.05s-.41.29-.43.46c-.37-.43-.7.65-.94.23l-.37.28,0,0a.47.47,0,0,0-.28.47c-.07,0-.07-.05-.08-.08-.41.19-.42.26-.5.69l-.15-.09c0,.12-.62.29-.73.76a.07.07,0,0,1,0-.08c-.14.48-1,.76-.59,1.2,0,.12,0,.24,0,.35.2-.34.21.16.36.06,0,.15-.32.29-.27.1h0c-.26-.19-.31.4-.49.32a9.58,9.58,0,0,0-.63,2.28l.24-.07,0,.26c-.06.07-.19.09-.18-.1-.13.1.12.32.17.32-.1.37-.28-.14-.29,0l0,.16,0,0c.1.13.19.14.2.36s-.14.08-.15.14,0,0,0,.09V57l.17-.16c.11.14,0,.31.22.13-.15.13-.11.44-.06.74a2.91,2.91,0,0,1,.16.63,1.15,1.15,0,0,1,.34.57.13.13,0,0,1,.25,0c-.44.11,0,.43-.2.73.1-.23.35.52.48.15.07.17-.13.1-.14.27.37.27.45.85.87,1.22.05,0,.05-.16.2-.14v.41c.1,0,.29-.17.3.1,0,0,0-.13.1-.1a3.06,3.06,0,0,0,1.24,1,5.28,5.28,0,0,1,1.38.88c-.1-.15,0-.13.1-.1-.06-.05,0-.14.06-.21a3.81,3.81,0,0,0,.36.33c.13-.19.47.09.56-.1H53c.22-.2-.14-.58,0-.88-.26.24-.34-.53-.75-.24,0-.08.09-.07.08-.15-.12.1-.21.09-.34,0l0,0c-.45-.15-.57-.37-1-.71l0,.15a.31.31,0,0,1-.1-.2c-.24.12.25.19,0,.34.05-.34-.66-.47-.49-.83-.13-.11-.08.17-.21.06l0-.1-.12.06c-.08-.09,0-.22,0-.28s.07,0,.09,0c0-.18-.3-.26-.31-.32l.07.15c-.41-.26-.63-.79-1-1.07l-.05.07c-.3-.24-.06-.29-.3-.6h0a.37.37,0,0,1-.21-.23c.12.06.09-.23.22-.15-.27-.29-.18-.12-.52-.27l.1-.1c-.13,0-.19,0-.28-.22.15.13.14-.17.33,0,.13-.44-.4-.53-.06-.78-.37-.13-.12.38-.21.29-.09.11-.27-.11-.27-.25s.4-.28.36-.6c0,0,0,0,0,.07.08-.13-.15-.23,0-.38-.21-.08,0-.19-.25-.22l.06.3c-.07-.16-.37-.33-.22-.62a.66.66,0,0,1,.16.17c.08-.08-.06-.16,0-.24.25,0,.05.37.25.55.11-.09-.19-.34.09-.25-.36-.14,0-.3-.19-.54l.15,0a.3.3,0,0,1-.07-.18l.19.14c-.16-.19.17-.31.12-.48-.06.34-.2,0-.34.17-.12-.47.45-.17.47-.64,0,.07-.14.21-.19.1a.49.49,0,0,1,.24-.21c.06-.3-.17,0-.22-.15.21-.05,0-.18,0-.33l.15.05c.22-.31-.28-.21,0-.48l.14.22,0-.18.15.1a.35.35,0,0,1,.13-.4.2.2,0,0,1-.16-.3c.13-.05.1.13.19-.09.06.1.14.21,0,.23,0,0,.06.09.1.12s.16-.24.2-.31,0,.05-.07.05a1.7,1.7,0,0,1,0-.39c.07,0,.09,0,.11.11s0-.14,0-.23c.09.09.2.16.18.31l.06-.34s.21,0,.22,0c.17-.07.07-.47.3-.58a.12.12,0,0,1,0-.1c.19-.12.41-.15.49-.44l.26.1c.12-.17-.33-.11-.13-.39s.19.1.29.11c0-.15.08-.47.36-.43C51.28,50.61,51.21,50.61,51.17,50.66Zm2.25-1c-.05,0-.12.16-.17.08S53.33,49.64,53.42,49.67Zm3.85.09c-.05,0-.1,0-.13-.1A.2.2,0,0,1,57.27,49.76Zm4.24,9.92h0C61.62,59.59,61.58,59.62,61.51,59.68Zm-.2.21a.05.05,0,0,0,0,0s0-.09,0-.14S61.32,59.8,61.31,59.89ZM46.83,56.62l0-.06C46.92,56.68,46.87,56.65,46.83,56.62Z" transform="translate(-17.95 -14.33)"/><path class="cls-6" d="M56.78,49.79a.11.11,0,0,1,0-.08S56.75,49.75,56.78,49.79Z" transform="translate(-17.95 -14.33)"/><polygon class="cls-6" points="32.1 37.35 32.1 37.35 32.11 37.38 32.1 37.35"/><path class="cls-6" d="M61,55.87a.21.21,0,0,1,.08-.1S61,55.8,61,55.87Z" transform="translate(-17.95 -14.33)"/><path class="cls-6" d="M60.68,61.24l.08-.16a.22.22,0,0,1-.14.09S60.71,61.2,60.68,61.24Z" transform="translate(-17.95 -14.33)"/><path class="cls-6" d="M58.94,61.55s0,0,0,.06l.05.06C59,61.6,59,61.51,58.94,61.55Z" transform="translate(-17.95 -14.33)"/><path class="cls-6" d="M60.18,61c-.11-.08-.14,0-.21.13l0,0C60.1,61.29,60.14,61.16,60.18,61Z" transform="translate(-17.95 -14.33)"/><path class="cls-6" d="M60,61.17a.27.27,0,0,1-.07.08C59.92,61.31,59.92,61.23,60,61.17Z" transform="translate(-17.95 -14.33)"/><path class="cls-6" d="M61.21,60.23c-.06,0,.12.13.06.13C61.37,60.5,61.31,59.92,61.21,60.23Z" transform="translate(-17.95 -14.33)"/><polygon class="cls-6" points="41.85 46.46 41.99 46.54 41.94 46.41 41.85 46.46"/><path class="cls-6" d="M60.44,60.18l-.14.12s0,0,0,.07S60.48,60.2,60.44,60.18Z" transform="translate(-17.95 -14.33)"/><path class="cls-6" d="M60.32,60.37a.24.24,0,0,0-.07.13A.4.4,0,0,0,60.32,60.37Z" transform="translate(-17.95 -14.33)"/><polygon class="cls-6" points="41.97 46.24 42.03 46.23 42.12 46.14 41.97 46.24"/><path class="cls-6" d="M61.38,58.47l0-.2s-.1,0-.1.07S61.32,58.48,61.38,58.47Z" transform="translate(-17.95 -14.33)"/><path class="cls-6" d="M60.74,58.83a.25.25,0,0,1,.15,0l-.19-.09Z" transform="translate(-17.95 -14.33)"/><path class="cls-6" d="M60.91,58.32s-.08-.31-.13-.09C60.83,58.27,60.81,58.46,60.91,58.32Z" transform="translate(-17.95 -14.33)"/><polygon class="cls-6" points="43.63 41.23 43.63 41.28 43.97 41.26 43.63 41.23"/><path class="cls-6" d="M60.24,53.42c0,.22.21,0,.18.18.1,0,0-.18.1-.16C60.4,53.36,60.42,53.28,60.24,53.42Z" transform="translate(-17.95 -14.33)"/><path class="cls-6" d="M60.52,53.44a.2.2,0,0,0,.08,0Z" transform="translate(-17.95 -14.33)"/><polygon class="cls-6" points="34.91 49.38 35.06 49.48 34.98 49.34 34.91 49.38"/><path class="cls-6" d="M53.21,63.53v.21l.13-.17S53.23,63.58,53.21,63.53Z" transform="translate(-17.95 -14.33)"/><path class="cls-6" d="M53.83,50v0c0-.05-.06-.05-.12-.06Z" transform="translate(-17.95 -14.33)"/><polygon class="cls-6" points="34.2 36 34.23 35.99 34.1 35.84 34.2 36"/><path class="cls-6" d="M51,51.25s.08-.1.13-.13S50.88,51.07,51,51.25Z" transform="translate(-17.95 -14.33)"/></g><path class="cls-10" d="M52.45,50.37a1.81,1.81,0,0,0,1.49-1.12c.31-1.19-1.06-2.38-2.43-2.5a1.77,1.77,0,0,0-1.67.72,1.81,1.81,0,0,0,.95,2.73A2.88,2.88,0,0,0,52.45,50.37Z" transform="translate(-17.95 -14.33)"/><path class="cls-11" d="M52.19,49.68a1.1,1.1,0,0,0,.92-.69c.19-.73-.66-1.47-1.5-1.54a1.08,1.08,0,0,0-1,.44,1.12,1.12,0,0,0,.59,1.69A1.76,1.76,0,0,0,52.19,49.68Z" transform="translate(-17.95 -14.33)"/><path class="cls-12" d="M54.23,58.32a2.52,2.52,0,0,1-2-1.75c-.41-1.85,1.42-3.71,3.26-3.89a2.24,2.24,0,0,1,2.24,1.11,3,3,0,0,1-1.27,4.27A3.38,3.38,0,0,1,54.23,58.32Z" transform="translate(-17.95 -14.33)"/><path class="cls-13" d="M54.59,57.25a1.54,1.54,0,0,1-1.24-1.08,2.23,2.23,0,0,1,2-2.41c.63-.12,1,.23,1.39.69A1.88,1.88,0,0,1,56,57.09,2,2,0,0,1,54.59,57.25Z" transform="translate(-17.95 -14.33)"/><path class="cls-14" d="M51.14,62.34a2.18,2.18,0,0,1-1.74-1.55c-.36-1.64,1.24-3.28,2.84-3.45.89-.16,1.42.33,2,1a2.71,2.71,0,0,1-1.11,3.78A2.87,2.87,0,0,1,51.14,62.34Z" transform="translate(-17.95 -14.33)"/><path class="cls-15" d="M51.45,61.4a1.37,1.37,0,0,1-1.08-1,2,2,0,0,1,1.76-2.14c.55-.1.88.21,1.21.61a1.68,1.68,0,0,1-.69,2.35A1.8,1.8,0,0,1,51.45,61.4Z" transform="translate(-17.95 -14.33)"/><path class="cls-16" d="M62.39,58.42A2,2,0,0,1,60.88,57a2.92,2.92,0,0,1,2.46-3.23c.77-.16,1.23.31,1.7.92a2.66,2.66,0,0,1-1,3.55A2.33,2.33,0,0,1,62.39,58.42Z" transform="translate(-17.95 -14.33)"/><path class="cls-17" d="M62.62,57.54a1.23,1.23,0,0,1-.94-.9,1.81,1.81,0,0,1,1.53-2c.48-.1.76.19,1.05.57a1.65,1.65,0,0,1-.59,2.2A1.5,1.5,0,0,1,62.62,57.54Z" transform="translate(-17.95 -14.33)"/><path class="cls-18" d="M59.13,56.52a2.24,2.24,0,0,1-1.77-1.58c-.36-1.68,1.26-3.36,2.89-3.53.9-.17,1.44.34,2,1a2.78,2.78,0,0,1-1.13,3.87A2.91,2.91,0,0,1,59.13,56.52Z" transform="translate(-17.95 -14.33)"/><path class="cls-19" d="M59.44,55.56a1.39,1.39,0,0,1-1.09-1,2,2,0,0,1,1.78-2.19,1.23,1.23,0,0,1,1.23.63,1.71,1.71,0,0,1-.7,2.39A1.8,1.8,0,0,1,59.44,55.56Z" transform="translate(-17.95 -14.33)"/><path class="cls-20" d="M62.84,50.31A1.93,1.93,0,0,1,61.63,52a2.87,2.87,0,0,1-3.46-2c-.26-.72.13-1.23.67-1.76a2.59,2.59,0,0,1,3.57.46A2.28,2.28,0,0,1,62.84,50.31Z" transform="translate(-17.95 -14.33)"/><path class="cls-21" d="M62,50.17a1.18,1.18,0,0,1-.75,1A1.77,1.77,0,0,1,59.05,50c-.15-.45.09-.77.42-1.1a1.61,1.61,0,0,1,2.21.29A1.42,1.42,0,0,1,62,50.17Z" transform="translate(-17.95 -14.33)"/><path class="cls-22" d="M56.12,53.38a1.79,1.79,0,0,1-1.38-1.32,2.67,2.67,0,0,1,2.25-3c.7-.14,1.12.28,1.54.84a2.42,2.42,0,0,1-.87,3.24A2.09,2.09,0,0,1,56.12,53.38Z" transform="translate(-17.95 -14.33)"/><path class="cls-23" d="M56.36,52.58a1.11,1.11,0,0,1-.85-.82,1.66,1.66,0,0,1,1.39-1.83c.43-.09.7.17,1,.52a1.51,1.51,0,0,1-.55,2A1.33,1.33,0,0,1,56.36,52.58Z" transform="translate(-17.95 -14.33)"/><path class="cls-24" d="M58.56,60.52a1.79,1.79,0,0,1-1.38-1.32,2.67,2.67,0,0,1,2.25-3c.7-.14,1.12.28,1.54.84a2.43,2.43,0,0,1-.87,3.24A2.19,2.19,0,0,1,58.56,60.52Z" transform="translate(-17.95 -14.33)"/><path class="cls-25" d="M58.8,59.59a1.08,1.08,0,0,1-.85-.82A1.64,1.64,0,0,1,59.34,57c.43-.09.7.17,1,.52a1.5,1.5,0,0,1-.55,2A1.24,1.24,0,0,1,58.8,59.59Z" transform="translate(-17.95 -14.33)"/><path class="cls-26" d="M55.4,62A1.82,1.82,0,0,1,54,60.66a2.67,2.67,0,0,1,2.25-2.95c.71-.14,1.13.28,1.55.84a2.42,2.42,0,0,1-.88,3.24A2.18,2.18,0,0,1,55.4,62Z" transform="translate(-17.95 -14.33)"/><path class="cls-27" d="M55.64,61.17a1.12,1.12,0,0,1-.85-.81,1.66,1.66,0,0,1,1.39-1.83c.44-.09.7.17,1,.52a1.5,1.5,0,0,1-.54,2A1.31,1.31,0,0,1,55.64,61.17Z" transform="translate(-17.95 -14.33)"/><path class="cls-28" d="M50,57.72a1.79,1.79,0,0,1-1.37-1.32,2.67,2.67,0,0,1,2.25-2.95c.7-.14,1.12.28,1.54.84a2.42,2.42,0,0,1-.88,3.24A2.13,2.13,0,0,1,50,57.72Z" transform="translate(-17.95 -14.33)"/><path class="cls-29" d="M50.28,56.92a1.14,1.14,0,0,1-.86-.82,1.66,1.66,0,0,1,1.4-1.83c.43-.09.69.17,1,.52a1.5,1.5,0,0,1-.54,2A1.33,1.33,0,0,1,50.28,56.92Z" transform="translate(-17.95 -14.33)"/><path class="cls-30" d="M52.47,53.92a1.79,1.79,0,0,1-1.38-1.32,2.67,2.67,0,0,1,2.25-3c.7-.14,1.12.28,1.54.84A2.42,2.42,0,0,1,54,53.73,2.09,2.09,0,0,1,52.47,53.92Z" transform="translate(-17.95 -14.33)"/><path class="cls-31" d="M52.71,53.12a1.11,1.11,0,0,1-.85-.82,1.66,1.66,0,0,1,1.39-1.83c.43-.09.7.17,1,.52a1.51,1.51,0,0,1-.55,2A1.33,1.33,0,0,1,52.71,53.12Z" transform="translate(-17.95 -14.33)"/><path class="cls-32" d="M55.45,49.56A1.77,1.77,0,0,1,54,48.32c-.3-1.31,1-2.63,2.33-2.76a1.6,1.6,0,0,1,1.6.79,2.14,2.14,0,0,1-.91,3A2.39,2.39,0,0,1,55.45,49.56Z" transform="translate(-17.95 -14.33)"/><path class="cls-33" d="M55.71,48.81a1.11,1.11,0,0,1-.89-.77,1.59,1.59,0,0,1,1.45-1.71,1,1,0,0,1,1,.49,1.33,1.33,0,0,1-.56,1.88A1.51,1.51,0,0,1,55.71,48.81Z" transform="translate(-17.95 -14.33)"/><path class="cls-34" d="M49.94,53.7a1.65,1.65,0,0,0,1.29-1.18,2.41,2.41,0,0,0-2.1-2.64c-.66-.13-1.05.25-1.44.75a2.11,2.11,0,0,0,.82,2.9A2,2,0,0,0,49.94,53.7Z" transform="translate(-17.95 -14.33)"/><path class="cls-35" d="M49.72,53a1,1,0,0,0,.79-.73,1.5,1.5,0,0,0-1.3-1.64c-.4-.08-.65.16-.89.47a1.3,1.3,0,0,0,.51,1.79A1.27,1.27,0,0,0,49.72,53Z" transform="translate(-17.95 -14.33)"/><path class="cls-36" d="M48,57a1.63,1.63,0,0,0,1.28-1.18,2.42,2.42,0,0,0-2.1-2.64c-.65-.12-1.05.25-1.44.76a2.1,2.1,0,0,0,.82,2.89A2.06,2.06,0,0,0,48,57Z" transform="translate(-17.95 -14.33)"/><path class="cls-37" d="M47.8,56.28a1,1,0,0,0,.79-.73,1.48,1.48,0,0,0-1.3-1.63c-.4-.08-.65.15-.89.46a1.32,1.32,0,0,0,.51,1.8A1.27,1.27,0,0,0,47.8,56.28Z" transform="translate(-17.95 -14.33)"/><path class="cls-38" d="M48.76,60.41A1.66,1.66,0,0,0,50,59.22a2.42,2.42,0,0,0-2.1-2.64c-.65-.12-1,.25-1.44.76a2.11,2.11,0,0,0,.82,2.89A2.06,2.06,0,0,0,48.76,60.41Z" transform="translate(-17.95 -14.33)"/><path class="cls-39" d="M48.53,59.68a1,1,0,0,0,.79-.73A1.48,1.48,0,0,0,48,57.32c-.4-.08-.65.15-.89.46a1.32,1.32,0,0,0,.51,1.8A1.27,1.27,0,0,0,48.53,59.68Z" transform="translate(-17.95 -14.33)"/><path class="cls-40" d="M55.4,65.27a1.66,1.66,0,0,0,1.28-1.19,2.42,2.42,0,0,0-2.1-2.64c-.65-.12-1,.25-1.44.76A2.11,2.11,0,0,0,54,65.09,2.06,2.06,0,0,0,55.4,65.27Z" transform="translate(-17.95 -14.33)"/><path class="cls-41" d="M55.17,64.54a1,1,0,0,0,.79-.73,1.48,1.48,0,0,0-1.3-1.63c-.4-.08-.65.15-.89.46a1.32,1.32,0,0,0,.51,1.8A1.27,1.27,0,0,0,55.17,64.54Z" transform="translate(-17.95 -14.33)"/><path class="cls-42" d="M59.6,64.31a1.65,1.65,0,0,0,1.28-1.18,2.39,2.39,0,0,0-2.09-2.64c-.66-.13-1,.25-1.44.75a2.11,2.11,0,0,0,.81,2.9A2.08,2.08,0,0,0,59.6,64.31Z" transform="translate(-17.95 -14.33)"/><path class="cls-43" d="M59.37,63.59a1,1,0,0,0,.8-.73,1.5,1.5,0,0,0-1.3-1.64c-.41-.08-.65.16-.89.47a1.28,1.28,0,0,0,1.39,1.9Z" transform="translate(-17.95 -14.33)"/><path class="cls-44" d="M51.19,65.27a1.64,1.64,0,0,0,1.28-1.19,2.4,2.4,0,0,0-2.09-2.64c-.66-.12-1.05.25-1.45.76a2.11,2.11,0,0,0,.82,2.89A2.07,2.07,0,0,0,51.19,65.27Z" transform="translate(-17.95 -14.33)"/><path class="cls-45" d="M51,64.54a1,1,0,0,0,.8-.73,1.49,1.49,0,0,0-1.3-1.63c-.41-.08-.65.15-.89.46a1.31,1.31,0,0,0,.5,1.8A1.29,1.29,0,0,0,51,64.54Z" transform="translate(-17.95 -14.33)"/></g></g></svg>