<svg xmlns="http://www.w3.org/2000/svg" xmlns:xlink="http://www.w3.org/1999/xlink" viewBox="0 0 111.29 117.32"><defs><style>.cls-1{isolation:isolate;}.cls-2{fill:#86c9b3;}.cls-24,.cls-3{fill:none;}.cls-3{stroke:#86c9b3;stroke-width:0.21px;}.cls-10,.cls-11,.cls-12,.cls-13,.cls-14,.cls-15,.cls-16,.cls-17,.cls-18,.cls-19,.cls-20,.cls-21,.cls-22,.cls-23,.cls-24,.cls-25,.cls-26,.cls-27,.cls-28,.cls-29,.cls-3,.cls-30,.cls-31,.cls-32,.cls-33,.cls-34,.cls-35,.cls-36,.cls-37,.cls-38,.cls-39,.cls-40,.cls-41,.cls-42,.cls-7,.cls-8,.cls-9{stroke-miterlimit:10;}.cls-4{fill:#f3e38c;}.cls-5{fill:url(#Dégradé_sans_nom_12);}.cls-6{opacity:0.53;}.cls-11,.cls-13,.cls-15,.cls-17,.cls-19,.cls-21,.cls-23,.cls-25,.cls-27,.cls-29,.cls-31,.cls-33,.cls-35,.cls-37,.cls-39,.cls-41,.cls-7,.cls-9{stroke:#f3e38c;}.cls-7{stroke-width:0.06px;fill:url(#Dégradé_sans_nom_28);}.cls-10,.cls-14,.cls-16,.cls-18,.cls-22,.cls-24,.cls-26,.cls-28,.cls-30,.cls-34,.cls-36,.cls-38,.cls-40,.cls-42,.cls-8{stroke:#50162e;}.cls-10,.cls-12,.cls-14,.cls-16,.cls-18,.cls-20,.cls-22,.cls-24,.cls-26,.cls-28,.cls-30,.cls-32,.cls-34,.cls-36,.cls-38,.cls-40,.cls-42,.cls-8{stroke-width:0.83px;}.cls-8{fill:url(#Dégradé_sans_nom_23);}.cls-9{stroke-width:0.06px;fill:url(#Dégradé_sans_nom_28-2);}.cls-10{fill:url(#Dégradé_sans_nom_20);}.cls-11{stroke-width:0.05px;fill:url(#Dégradé_sans_nom_6);}.cls-12,.cls-20,.cls-32{stroke:#f5df4d;}.cls-12{fill:url(#Dégradé_sans_nom_22);}.cls-13{stroke-width:0.05px;fill:url(#Dégradé_sans_nom_26);}.cls-14{fill:url(#Dégradé_sans_nom_24);}.cls-15{stroke-width:0.06px;fill:url(#Dégradé_sans_nom_26-2);}.cls-16{fill:url(#Dégradé_sans_nom_24-2);}.cls-17{stroke-width:0.05px;fill:url(#Dégradé_sans_nom_26-3);}.cls-18{fill:url(#Dégradé_sans_nom_24-3);}.cls-19,.cls-21,.cls-23,.cls-25,.cls-27{stroke-width:0.04px;}.cls-19{fill:url(#Dégradé_sans_nom_28-3);}.cls-20{fill:url(#Dégradé_sans_nom_23-2);}.cls-21{fill:url(#Dégradé_sans_nom_6-2);}.cls-22{fill:url(#Dégradé_sans_nom_21);}.cls-23{fill:url(#Dégradé_sans_nom_11);}.cls-25{fill:url(#Dégradé_sans_nom_6-3);}.cls-26{fill:url(#Dégradé_sans_nom_22-2);}.cls-27{fill:url(#Dégradé_sans_nom_28-4);}.cls-28{fill:url(#Dégradé_sans_nom_23-3);}.cls-29{stroke-width:0.04px;fill:url(#Dégradé_sans_nom_28-5);}.cls-30{fill:url(#Dégradé_sans_nom_24-4);}.cls-31,.cls-33,.cls-35,.cls-37,.cls-39,.cls-41{stroke-width:0.06px;}.cls-31{fill:url(#Dégradé_sans_nom_26-4);}.cls-32{fill:url(#Dégradé_sans_nom_23-4);}.cls-33{fill:url(#Dégradé_sans_nom_37);}.cls-34{fill:url(#Dégradé_sans_nom_22-3);}.cls-35{fill:url(#Dégradé_sans_nom_6-4);}.cls-36{fill:url(#Dégradé_sans_nom_22-4);}.cls-37{fill:url(#Dégradé_sans_nom_6-5);}.cls-38{fill:url(#Dégradé_sans_nom_21-2);}.cls-39{fill:url(#Dégradé_sans_nom_17);}.cls-40{fill:url(#Dégradé_sans_nom_21-3);}.cls-41{fill:url(#Dégradé_sans_nom_6-6);}.cls-42{fill:url(#Dégradé_sans_nom_22-5);}.cls-43{opacity:0.3;mix-blend-mode:multiply;}</style><radialGradient id="Dégradé_sans_nom_12" cx="153.33" cy="-43.64" r="13.93" gradientTransform="matrix(0.61, 0.11, -0.1, 0.68, -47.27, 77.68)" gradientUnits="userSpaceOnUse"><stop offset="0" stop-color="#fff"/><stop offset="0.24" stop-color="#fffefc"/><stop offset="0.42" stop-color="#fefcf2"/><stop offset="0.58" stop-color="#fcf8e2"/><stop offset="0.73" stop-color="#faf2cb"/><stop offset="0.87" stop-color="#f7ebae"/><stop offset="1" stop-color="#f3e38c"/></radialGradient><radialGradient id="Dégradé_sans_nom_28" cx="107.99" cy="-25.45" r="3.74" gradientTransform="translate(-22.35 105.68) scale(0.66 0.73)" gradientUnits="userSpaceOnUse"><stop offset="0" stop-color="#f4a6a7"/><stop offset="0.34" stop-color="#f4a9a6"/><stop offset="0.56" stop-color="#f4b2a2"/><stop offset="0.75" stop-color="#f4c19b"/><stop offset="0.92" stop-color="#f3d692"/><stop offset="1" stop-color="#f3e38c"/></radialGradient><radialGradient id="Dégradé_sans_nom_23" cx="107.99" cy="-25.45" r="2.32" gradientTransform="translate(-22.35 105.68) scale(0.66 0.73)" gradientUnits="userSpaceOnUse"><stop offset="0" stop-color="#fff"/><stop offset="0.44" stop-color="#fffffd"/><stop offset="0.59" stop-color="#fefdf6"/><stop offset="0.71" stop-color="#fdfaeb"/><stop offset="0.8" stop-color="#fbf6da"/><stop offset="0.88" stop-color="#f9f1c4"/><stop offset="0.94" stop-color="#f6eaa9"/><stop offset="1" stop-color="#f3e38c"/></radialGradient><radialGradient id="Dégradé_sans_nom_28-2" cx="120.72" cy="-31.68" r="5.37" xlink:href="#Dégradé_sans_nom_28"/><radialGradient id="Dégradé_sans_nom_20" cx="120.72" cy="-31.68" r="3.33" gradientTransform="translate(-22.35 105.68) scale(0.66 0.73)" gradientUnits="userSpaceOnUse"><stop offset="0" stop-color="#fff"/><stop offset="0.2" stop-color="#fffefb"/><stop offset="0.39" stop-color="#fdfbf1"/><stop offset="0.56" stop-color="#fcf7de"/><stop offset="0.73" stop-color="#f9f1c5"/><stop offset="0.9" stop-color="#f5e9a4"/><stop offset="1" stop-color="#f3e38c"/></radialGradient><linearGradient id="Dégradé_sans_nom_6" x1="58.96" y1="86.8" x2="65.1" y2="86.8" gradientUnits="userSpaceOnUse"><stop offset="0" stop-color="#f4a6a7"/><stop offset="1" stop-color="#f3e38c"/></linearGradient><radialGradient id="Dégradé_sans_nom_22" cx="128.67" cy="-25.79" r="2.92" gradientTransform="translate(-22.35 105.68) scale(0.66 0.73)" gradientUnits="userSpaceOnUse"><stop offset="0" stop-color="#fff"/><stop offset="0.27" stop-color="#fffefc"/><stop offset="0.45" stop-color="#fefcf3"/><stop offset="0.6" stop-color="#fcf9e4"/><stop offset="0.74" stop-color="#faf3cf"/><stop offset="0.86" stop-color="#f7edb4"/><stop offset="0.98" stop-color="#f4e593"/><stop offset="1" stop-color="#f3e38c"/></radialGradient><radialGradient id="Dégradé_sans_nom_26" cx="121.78" cy="-46.2" r="4.26" gradientTransform="translate(-22.35 105.68) scale(0.66 0.73)" gradientUnits="userSpaceOnUse"><stop offset="0" stop-color="#f4a6a7"/><stop offset="0.39" stop-color="#f4a8a6"/><stop offset="0.6" stop-color="#f4b0a2"/><stop offset="0.76" stop-color="#f4be9c"/><stop offset="0.9" stop-color="#f3d194"/><stop offset="1" stop-color="#f3e38c"/></radialGradient><radialGradient id="Dégradé_sans_nom_24" cx="121.78" cy="-46.13" r="2.64" gradientTransform="translate(-22.35 105.68) scale(0.66 0.73)" gradientUnits="userSpaceOnUse"><stop offset="0" stop-color="#fff"/><stop offset="0.22" stop-color="#fffefc"/><stop offset="0.4" stop-color="#fefcf2"/><stop offset="0.57" stop-color="#fcf8e0"/><stop offset="0.73" stop-color="#f9f2c8"/><stop offset="0.88" stop-color="#f6eaa9"/><stop offset="1" stop-color="#f3e38c"/></radialGradient><radialGradient id="Dégradé_sans_nom_26-2" cx="117.91" cy="-40.45" r="4.8" xlink:href="#Dégradé_sans_nom_26"/><radialGradient id="Dégradé_sans_nom_24-2" cx="117.91" cy="-40.45" r="2.98" xlink:href="#Dégradé_sans_nom_24"/><radialGradient id="Dégradé_sans_nom_26-3" cx="110.44" cy="-41.4" r="4.18" xlink:href="#Dégradé_sans_nom_26"/><radialGradient id="Dégradé_sans_nom_24-3" cx="110.46" cy="-41.41" r="2.59" xlink:href="#Dégradé_sans_nom_24"/><radialGradient id="Dégradé_sans_nom_28-3" cx="112.92" cy="-34.6" r="3.88" xlink:href="#Dégradé_sans_nom_28"/><radialGradient id="Dégradé_sans_nom_23-2" cx="112.92" cy="-34.6" r="2.41" xlink:href="#Dégradé_sans_nom_23"/><linearGradient id="Dégradé_sans_nom_6-2" x1="57.65" y1="77.08" x2="62.9" y2="77.08" xlink:href="#Dégradé_sans_nom_6"/><radialGradient id="Dégradé_sans_nom_21" cx="125.78" cy="-39.07" r="2.41" gradientTransform="translate(-22.35 105.68) scale(0.66 0.73)" gradientUnits="userSpaceOnUse"><stop offset="0" stop-color="#fff"/><stop offset="0.25" stop-color="#fffefc"/><stop offset="0.43" stop-color="#fefcf3"/><stop offset="0.59" stop-color="#fcf8e3"/><stop offset="0.73" stop-color="#faf3cd"/><stop offset="0.87" stop-color="#f7ecb1"/><stop offset="0.99" stop-color="#f3e48f"/><stop offset="1" stop-color="#f3e38c"/></radialGradient><radialGradient id="Dégradé_sans_nom_11" cx="128.67" cy="-33.29" r="3.88" gradientTransform="translate(-22.35 105.68) scale(0.66 0.73)" gradientUnits="userSpaceOnUse"><stop offset="0" stop-color="#fff"/><stop offset="1" stop-color="#f3e38c"/></radialGradient><linearGradient id="Dégradé_sans_nom_6-3" x1="54.29" y1="88.51" x2="59.53" y2="88.51" xlink:href="#Dégradé_sans_nom_6"/><radialGradient id="Dégradé_sans_nom_22-2" cx="120.87" cy="-23.45" r="2.41" xlink:href="#Dégradé_sans_nom_22"/><radialGradient id="Dégradé_sans_nom_28-4" cx="113.91" cy="-27.91" r="3.88" xlink:href="#Dégradé_sans_nom_28"/><radialGradient id="Dégradé_sans_nom_23-3" cx="113.91" cy="-27.91" r="2.41" xlink:href="#Dégradé_sans_nom_23"/><radialGradient id="Dégradé_sans_nom_28-5" cx="106.17" cy="-33.43" r="3.83" xlink:href="#Dégradé_sans_nom_28"/><radialGradient id="Dégradé_sans_nom_24-4" cx="106.17" cy="-33.43" r="2.37" xlink:href="#Dégradé_sans_nom_24"/><radialGradient id="Dégradé_sans_nom_26-4" cx="113.91" cy="-21.02" r="3.55" xlink:href="#Dégradé_sans_nom_26"/><radialGradient id="Dégradé_sans_nom_23-4" cx="113.91" cy="-21.02" r="2.2" xlink:href="#Dégradé_sans_nom_23"/><radialGradient id="Dégradé_sans_nom_37" cx="119.96" cy="-17.51" r="3.55" gradientTransform="translate(-22.35 105.68) scale(0.66 0.73)" gradientUnits="userSpaceOnUse"><stop offset="0" stop-color="#f4a6a7"/><stop offset="0.44" stop-color="#f4a8a6"/><stop offset="0.64" stop-color="#f4afa3"/><stop offset="0.78" stop-color="#f4bc9d"/><stop offset="0.9" stop-color="#f3ce95"/><stop offset="1" stop-color="#f3e38c"/></radialGradient><radialGradient id="Dégradé_sans_nom_22-3" cx="119.96" cy="-17.51" r="2.2" xlink:href="#Dégradé_sans_nom_22"/><linearGradient id="Dégradé_sans_nom_6-4" x1="58.06" y1="91.88" x2="62.75" y2="91.88" xlink:href="#Dégradé_sans_nom_6"/><radialGradient id="Dégradé_sans_nom_22-4" cx="126.2" cy="-18.84" r="2.2" xlink:href="#Dégradé_sans_nom_22"/><linearGradient id="Dégradé_sans_nom_6-5" x1="63.9" y1="82.98" x2="68.59" y2="82.98" xlink:href="#Dégradé_sans_nom_6"/><radialGradient id="Dégradé_sans_nom_21-2" cx="135.1" cy="-31.01" r="2.2" xlink:href="#Dégradé_sans_nom_21"/><radialGradient id="Dégradé_sans_nom_17" cx="133.35" cy="-38.71" r="3.55" gradientTransform="translate(-22.35 105.68) scale(0.66 0.73)" gradientUnits="userSpaceOnUse"><stop offset="0" stop-color="#f4a6a7"/><stop offset="0.49" stop-color="#f4a8a6"/><stop offset="0.67" stop-color="#f4afa3"/><stop offset="0.8" stop-color="#f4bb9e"/><stop offset="0.91" stop-color="#f3cb96"/><stop offset="0.99" stop-color="#f3e18d"/><stop offset="1" stop-color="#f3e38c"/></radialGradient><radialGradient id="Dégradé_sans_nom_21-3" cx="133.35" cy="-38.71" r="2.2" xlink:href="#Dégradé_sans_nom_21"/><linearGradient id="Dégradé_sans_nom_6-6" x1="63.9" y1="88.62" x2="68.59" y2="88.62" xlink:href="#Dégradé_sans_nom_6"/><radialGradient id="Dégradé_sans_nom_22-5" cx="135.1" cy="-23.3" r="2.2" xlink:href="#Dégradé_sans_nom_22"/></defs><g class="cls-1"><g id="Calque_1" data-name="Calque 1"><path class="cls-2" d="M47.53,21.34l-19,7.58c-5,2-10,4.23-13.49,8.51C8.51,45.54,8.27,57.16,7.76,67.08c-.63,12-1,24.79,4.81,35.67a27,27,0,0,0,9.29,10.46,20.22,20.22,0,0,0,7,2.64c3.19.62,6.33,1,9.23,2.57a68.19,68.19,0,0,1,7.39,5.14A50.76,50.76,0,0,0,53,128.1a39.87,39.87,0,0,0,16.62,4.17,32.63,32.63,0,0,0,27.21-13.85c7-9.93,9.13-22.32,10.5-34.13.77-6.73,1.76-13.59,1.41-20.37-.28-5.4-1.58-11-4.89-15.42S95.6,42.28,91,39.82a24,24,0,0,1-6.88-5.23c-2-2.26-3.54-4.83-5.33-7.23-3-4-6.67-6.95-11.54-8.11-4.67-1.12-9.59-.59-14.2.55-1.85.46-3.65,1.09-5.5,1.54a.11.11,0,0,0,.06.21c4.26-1.06,8.31-2.46,12.75-2.67A20.56,20.56,0,0,1,74.42,23c4.21,3.38,6.43,8.5,10.09,12.39,3.49,3.71,8.26,5.41,12.62,7.84a20.37,20.37,0,0,1,6.54,5.41,22.62,22.62,0,0,1,3.53,7.21c1.8,6,1.54,12.42,1,18.61-1.15,12.24-2.21,25-7.29,36.39A38.69,38.69,0,0,1,91.59,124a32,32,0,0,1-14.72,7.35c-11.58,2.4-23.11-1.87-32.33-8.77A46,46,0,0,0,37.63,118a28.25,28.25,0,0,0-7.83-2.14,21.61,21.61,0,0,1-12.89-7.11c-7.8-8.78-9.35-21-9.27-32.32.05-5.76.34-11.56.83-17.3A53.62,53.62,0,0,1,11.56,44,22.84,22.84,0,0,1,22.07,32.07C27.4,29.17,33.35,27.23,39,25l8.61-3.43C47.71,21.5,47.65,21.29,47.53,21.34Z" transform="translate(-7.42 -18.63)"/><path class="cls-3" d="M64.51,18.92c-3.92,10-3.69,20.71-4.17,31.34-.06,1.33-.13,2.66-.22,4C58,67.08,55.66,79.86,55.57,93.18c-.11,1.43-.21,2.86-.32,4.28-.74,10-1.6,20-4.45,29.4" transform="translate(-7.42 -18.63)"/><path class="cls-3" d="M72.75,21.66c-2.09,8.41-4.85,16.78-7.43,24.87-.42,1.37-.83,2.75-1.24,4.13-.3,1-.6,2.07-.89,3.12-4.76,12.42-6.74,25.64-9.34,38.67-.33,1.5-.64,3-.93,4.55-1.75,9.15-2.88,18.37-7.37,26.48" transform="translate(-7.42 -18.63)"/><path class="cls-3" d="M77,25.43a104.78,104.78,0,0,1-6.78,23.93c-.51,1.27-1,2.54-1.6,3.81C60,64.44,58.82,79.42,53.3,92.81c-.61,1.28-1.22,2.57-1.8,3.87a94.87,94.87,0,0,0-7.83,25.4" transform="translate(-7.42 -18.63)"/><line class="cls-3" x1="54.01" y1="0.29" x2="45.16" y2="109.15"/><path class="cls-3" d="M53.06,19.72c2.12,7.49,2,15,1.76,22.83,0,1.58-.09,3.15-.13,4.75-1.12,11.6-.07,23.51,1.15,35.29.15,1.47.3,2.94.41,4.38A228.76,228.76,0,0,0,59,130.37" transform="translate(-7.42 -18.63)"/><path class="cls-3" d="M48.9,21.11c1.56,11.8,4,24.38,4.4,36.28.39,7.49.79,15,1.69,22.29.12,1.24.25,2.48.38,3.72l.38,3.69.38,3.64c1.9,13.37,4.27,26.59,4.28,40.19" transform="translate(-7.42 -18.63)"/><path class="cls-3" d="M39.53,24.6c-.05,2,.74,3.26,1.53,5,5.8,8.94,7.74,18.75,9.38,28.67.23,1.41.46,2.83.7,4.25,1,11.14,5.71,21.28,7.28,32.36.31,1.61.62,3.21.95,4.81,2.3,11.17,5.18,22.08,10.25,32.52" transform="translate(-7.42 -18.63)"/><path class="cls-3" d="M35.06,26.44c1.49,12.78,7.08,23.7,12.11,34.84.56,1.24,1.11,2.48,1.65,3.73,3.69,11.33,7.63,22.79,13,33.22.59,1.41,1.18,2.82,1.76,4.23,4.07,9.89,7.7,18.74,9.64,29.57" transform="translate(-7.42 -18.63)"/><path class="cls-3" d="M32.63,27.41c0,.83,7.76,19.41,14.37,35.17.42,1,.83,2,1.23,2.92,4.28,10.4,8.22,21,13.44,31.15l1.19,2.64c6.09,13.59,14.83,32.76,14.47,32" transform="translate(-7.42 -18.63)"/><path class="cls-3" d="M29.88,28.51s9.94,20.92,17.5,37.08l1.31,2.8c1.88,4,3.66,7.94,5.48,11.85.61,1.31,1.22,2.61,1.84,3.89,1.63,4.11,4,7.63,6.36,11.6,6.71,11.46,14.49,21.9,19.46,34.32" transform="translate(-7.42 -18.63)"/><path class="cls-3" d="M20.94,32.93c7.1,7.27,11,17,16.88,25.49l1.92,2.69,6,8.39c1,1.33,1.86,2.6,2.73,3.79,2.44,3.49,4.81,6.57,7.17,10.1,2.77-12.34,9.48-22,14.66-33l1.24-2.83,8.17-18.68" transform="translate(-7.42 -18.63)"/><path class="cls-3" d="M83.55,34.09l-8.49,15-1.44,2.54c-6.11,9.3-12.43,17.68-17.17,28.25a21.1,21.1,0,0,1-6.22,8q-1.5,1.55-3,3c-8.28,7.9-17.85,14.68-27.4,20.67" transform="translate(-7.42 -18.63)"/><path class="cls-3" d="M18.14,35.48c8.35,15.24,20.65,26.87,31.54,39.71,1,1.17,4.49,6.72,5.45,7.91-3.34,11.47-10.64,24.22-18.89,34.34" transform="translate(-7.42 -18.63)"/><path class="cls-3" d="M99.27,44.36c-.77,3.09-2.26,5-3.74,7.26a24,24,0,0,1-2.44,3.09,10.85,10.85,0,0,1-3.88,3.12C76.19,64,61.19,68.41,56.85,83c-.59,2,.69,4.3,2.5,6.73.61.82,1.27,1.64,1.94,2.48,9,11.06,18.06,22.79,23.71,36.49" transform="translate(-7.42 -18.63)"/><path class="cls-3" d="M108.44,66.21l-3.81,1.25-4.23,1.4c-14.74,4-29.74,7.48-43.55,14.53.46.81.95,1.59,1.47,2.36s1.06,1.52,1.62,2.26c9.14,9.92,17.43,20.5,23.46,33.48.71,1.1,1.37,2.06,1.91,2.86a25.4,25.4,0,0,0,2.28,2.82" transform="translate(-7.42 -18.63)"/><path class="cls-3" d="M108.46,73.46C96.32,79,82.9,77.66,70.16,80.79l-4.19,1q-4.19,1-8.33,2.06c2.84.09,5.67.07,8.48,0,1.41,0,2.81-.1,4.22-.16,13-1.15,23.88.85,37.06-1.28" transform="translate(-7.42 -18.63)"/><path class="cls-3" d="M106.9,87c-12.56-2.06-25.58-1.41-38.21-1.85-2.37-.44-5.13-.44-7.6-1.16-1.4-.19-2.82-.38-4.24-.6,1,.66,2.08,1.29,3.14,1.89,13,8.69,27.57,16.53,42.76,21.07" transform="translate(-7.42 -18.63)"/><path class="cls-3" d="M10.84,45.92c10.88,6.18,20.35,15,29.59,24.15.77.62,1.53,1.23,2.26,1.84l3.55,2.87c4.12,3.43,8.25,7,12.39,10.63l3.11,2.71c12.48,7.61,22.74,17.3,32.63,28.9l2,1.82" transform="translate(-7.42 -18.63)"/><path class="cls-3" d="M8.35,58.46C17.77,60,25.27,67.52,33.76,71.72c.93.45,1.86.88,2.78,1.29l17,7.74" transform="translate(-7.42 -18.63)"/><path class="cls-3" d="M8.47,80.05c8.12-2,15.22,4.66,23.5,5.2,1.33.08,2.67.15,4,.19a69.1,69.1,0,0,0,20.09-1.89" transform="translate(-7.42 -18.63)"/><path class="cls-3" d="M11.16,99.33c11.75-7.57,24.77-10.21,37.63-14.07l3.71-1.41,3.34-1.26L48.5,79.83,46.18,79c-9.46-3.5-18.54-7-27.93-10.39l-2.38-.87C11.34,66,8.22,64.94,8,64.94" transform="translate(-7.42 -18.63)"/><path class="cls-3" d="M11.8,101c15.05-4.35,29.26-9.2,42.52-17.8" transform="translate(-7.42 -18.63)"/><ellipse class="cls-4" cx="58.63" cy="59.11" rx="4.11" ry="4.59"/><ellipse class="cls-2" cx="58.94" cy="66.37" rx="4.11" ry="4.59"/><ellipse class="cls-4" cx="55.72" cy="72.21" rx="4.11" ry="4.59"/><ellipse class="cls-4" cx="43.92" cy="73.8" rx="4.11" ry="4.59"/><ellipse class="cls-4" cx="38.33" cy="60.68" rx="4.11" ry="4.59"/><ellipse class="cls-2" cx="49.85" cy="74.78" rx="4.11" ry="4.59"/><ellipse class="cls-2" cx="39.18" cy="68.33" rx="4.11" ry="4.59"/><ellipse class="cls-2" cx="42.77" cy="53.7" rx="4.11" ry="4.59"/><ellipse class="cls-4" cx="48.99" cy="52.23" rx="4.11" ry="4.59"/><ellipse class="cls-2" cx="54.83" cy="54.2" rx="4.11" ry="4.59"/><ellipse class="cls-5" cx="49.93" cy="64.68" rx="8.56" ry="9.55"/><g class="cls-6"><path class="cls-4" d="M66.81,84.88c0,.09.16.09.19.1C67,84.82,66.77,84.88,66.81,84.88Z" transform="translate(-7.42 -18.63)"/><polygon class="cls-4" points="59.09 64.74 59.17 64.76 58.99 64.55 59.09 64.74"/><path class="cls-4" d="M66.45,82c-.28.16.09.49,0,.74l-.07,0,.25.1C66.58,82.58,66.39,82.21,66.45,82Z" transform="translate(-7.42 -18.63)"/><path class="cls-4" d="M67,81.16c-.1.07-.13-.15,0,.18l0,0A1.13,1.13,0,0,1,67,81.16Z" transform="translate(-7.42 -18.63)"/><path class="cls-4" d="M67,81.3c0,.15.08-.11,0,0Z" transform="translate(-7.42 -18.63)"/><path class="cls-4" d="M66.79,80.63l.15.17c.06-.06,0-.24.09-.18C66.92,80.43,66.87,80.49,66.79,80.63Z" transform="translate(-7.42 -18.63)"/><path class="cls-4" d="M66.53,80.5l.07.08S66.63,80.53,66.53,80.5Z" transform="translate(-7.42 -18.63)"/><path class="cls-4" d="M66.75,80.77l-.15-.19s-.13.07.06.09C66.57,80.68,66.66,80.7,66.75,80.77Z" transform="translate(-7.42 -18.63)"/><path class="cls-4" d="M66.72,80.9c0,.13-.06.27-.19.1C66.63,81.36,66.83,81.27,66.72,80.9Z" transform="translate(-7.42 -18.63)"/><path class="cls-4" d="M66.14,82l-.08.14.11.11S66.23,82,66.14,82Z" transform="translate(-7.42 -18.63)"/><path class="cls-4" d="M66.58,79.38c-.06,0-.14.12-.21.16l.12.11C66.51,79.57,66.5,79.42,66.58,79.38Z" transform="translate(-7.42 -18.63)"/><path class="cls-4" d="M66.37,79.54l-.17-.17C66.25,79.55,66.31,79.57,66.37,79.54Z" transform="translate(-7.42 -18.63)"/><polygon class="cls-4" points="58.78 61.91 59.09 62.2 58.76 61.85 58.78 61.91"/><polygon class="cls-4" points="58.85 59.94 59.04 60 58.74 59.88 58.85 59.94"/><path class="cls-4" d="M66,78.07c.15,0,.13-.21.24-.16a.87.87,0,0,0-.39-.26A.42.42,0,0,1,66,78.07Z" transform="translate(-7.42 -18.63)"/><path class="cls-4" d="M65.64,77.54a.9.9,0,0,0,.22.11A.9.9,0,0,0,65.64,77.54Z" transform="translate(-7.42 -18.63)"/><path class="cls-4" d="M66.1,79a.31.31,0,0,0,.1-.23l-.13.14Z" transform="translate(-7.42 -18.63)"/><path class="cls-4" d="M66.06,78.93h0L66,78.75A1.7,1.7,0,0,1,66.06,78.93Z" transform="translate(-7.42 -18.63)"/><path class="cls-4" d="M66.1,79v0S66.08,79,66.1,79Z" transform="translate(-7.42 -18.63)"/><path class="cls-4" d="M66.21,80c-.13-.09-.32-.3-.38,0C66,80,66,79.82,66.21,80Z" transform="translate(-7.42 -18.63)"/><path class="cls-4" d="M65.93,79.21l0,.23s.1-.09.16,0Z" transform="translate(-7.42 -18.63)"/><polygon class="cls-4" points="58.42 60.49 58.51 60.58 58.49 60.49 58.42 60.49"/><path class="cls-4" d="M65.7,78a.78.78,0,0,1-.26-.25,3.17,3.17,0,0,0,.15.37C65.65,78.1,65.76,78.1,65.7,78Z" transform="translate(-7.42 -18.63)"/><path class="cls-4" d="M65.86,78.45v0S65.84,78.46,65.86,78.45Z" transform="translate(-7.42 -18.63)"/><polygon class="cls-4" points="57.36 58.07 57.34 58.11 57.37 58.09 57.36 58.07"/><path class="cls-4" d="M65.57,78.14c0,.11.08.14.15.17a1.07,1.07,0,0,1-.13-.21S65.55,78.12,65.57,78.14Z" transform="translate(-7.42 -18.63)"/><path class="cls-4" d="M65.39,77.29a1.41,1.41,0,0,0,0,.2C65.42,77.42,65.44,77.28,65.39,77.29Z" transform="translate(-7.42 -18.63)"/><path class="cls-4" d="M65.88,78.38h0S65.89,78.35,65.88,78.38Z" transform="translate(-7.42 -18.63)"/><path class="cls-4" d="M65.88,78.38a.56.56,0,0,0-.16-.07.74.74,0,0,0,.13.12A.05.05,0,0,1,65.88,78.38Z" transform="translate(-7.42 -18.63)"/><path class="cls-4" d="M63.66,77.11a.26.26,0,0,1,.38.28c.22.1.6-.31.73-.65-.07,0-.12.07-.33,0,0,.12.12.52-.11.46s-.09-.23-.11-.4c-.08.22-.46-.1-.65.15a2.53,2.53,0,0,1,.23.12S63.66,77,63.66,77.11Z" transform="translate(-7.42 -18.63)"/><path class="cls-4" d="M65,77.1l.07.07a.85.85,0,0,1,0-.4c-.16-.08-.22-.07-.28,0l.26.4Z" transform="translate(-7.42 -18.63)"/><path class="cls-4" d="M65.3,77.53c-.2,0-.37-.12-.47.1.15.22.22.08.37.18-.26-.35.15.06.08-.26a.86.86,0,0,1,.16.18,2,2,0,0,1,0-.24h0s0,0,0,0h0l-.07,0c0-.13,0,0,.07,0h0l-.31-.33A1.31,1.31,0,0,0,65.3,77.53Z" transform="translate(-7.42 -18.63)"/><path class="cls-4" d="M65.39,79.86s0,0,0,0S65.37,79.81,65.39,79.86Z" transform="translate(-7.42 -18.63)"/><path class="cls-4" d="M65.43,79.66s.11,0,.13.12-.08,0-.14,0,.2.15.21,0l0,0c0-.18.13-.47.17-.45A1.42,1.42,0,0,0,65.43,79.66Z" transform="translate(-7.42 -18.63)"/><path class="cls-4" d="M65.38,78.62l-.24-.28-.06.23.08,0C65.21,78.72,65.3,78.63,65.38,78.62Z" transform="translate(-7.42 -18.63)"/><polygon class="cls-4" points="57.41 57.98 57.59 57.91 57.24 57.9 57.41 57.98"/><polygon class="cls-4" points="57.09 57.61 57.23 57.52 57.07 57.48 57.09 57.61"/><path class="cls-4" d="M50.26,86.28l.07.07A.23.23,0,0,0,50.26,86.28Z" transform="translate(-7.42 -18.63)"/><path class="cls-4" d="M50.09,85.65H50C50.06,85.67,50.1,85.68,50.09,85.65Z" transform="translate(-7.42 -18.63)"/><path class="cls-4" d="M53.51,73.61c-.22-.07-.5-.2-.39,0l.13.13A.39.39,0,0,1,53.51,73.61Z" transform="translate(-7.42 -18.63)"/><path class="cls-4" d="M49.35,80.07l.06,0-.13-.15Z" transform="translate(-7.42 -18.63)"/><path class="cls-4" d="M50,80.4l-.17.13A.59.59,0,0,0,50,80.4Z" transform="translate(-7.42 -18.63)"/><path class="cls-4" d="M52.14,89.21l.2,0C52.24,89.05,52.22,89.16,52.14,89.21Z" transform="translate(-7.42 -18.63)"/><path class="cls-4" d="M60.44,73.34a1,1,0,0,0-.3-.22C60.27,73.28,60.35,73.47,60.44,73.34Z" transform="translate(-7.42 -18.63)"/><path class="cls-4" d="M48.34,86.58c0,.06.1.08.13.06S48.38,86.56,48.34,86.58Z" transform="translate(-7.42 -18.63)"/><path class="cls-4" d="M59.75,73l.06,0a.78.78,0,0,1,.33.07C60.05,73,59.92,72.9,59.75,73Z" transform="translate(-7.42 -18.63)"/><path class="cls-4" d="M62.91,89.05h0S62.91,89,62.91,89.05Z" transform="translate(-7.42 -18.63)"/><path class="cls-4" d="M66.32,86.2a1.68,1.68,0,0,1,0,.18A.34.34,0,0,0,66.32,86.2Z" transform="translate(-7.42 -18.63)"/><path class="cls-4" d="M63.17,74.77c.1,0,0,0,0,0Z" transform="translate(-7.42 -18.63)"/><path class="cls-4" d="M63.07,75.63a.1.1,0,0,0-.08,0A.2.2,0,0,1,63.07,75.63Z" transform="translate(-7.42 -18.63)"/><path class="cls-4" d="M58.54,73.88h0S58.55,73.91,58.54,73.88Z" transform="translate(-7.42 -18.63)"/><path class="cls-4" d="M63.25,74.93a.83.83,0,0,0-.07-.13A.23.23,0,0,0,63.25,74.93Z" transform="translate(-7.42 -18.63)"/><path class="cls-4" d="M63.29,74.85l.05.07S63.38,74.89,63.29,74.85Z" transform="translate(-7.42 -18.63)"/><path class="cls-4" d="M63.05,74.68l.13.12a.08.08,0,0,1,0,0Z" transform="translate(-7.42 -18.63)"/><path class="cls-4" d="M57.06,92.3l0,0C57.17,92.25,57.13,92.26,57.06,92.3Z" transform="translate(-7.42 -18.63)"/><polygon class="cls-4" points="45.1 57.9 45.1 57.89 45.09 57.89 45.1 57.9"/><path class="cls-4" d="M52.39,76.83c-.06-.25,0-.28.12-.31l-.43-.31Z" transform="translate(-7.42 -18.63)"/><path class="cls-4" d="M50.91,87.69l.06-.26c.33.11.36.28.46,0-.53.24-.39-.68-.92-.48l.06-.17s0,0,0,.07c.16-.35-.45,0-.5-.41,0-.13.05-.24.14-.18a1.45,1.45,0,0,1-.21-.22c0-.08.09-.09.1,0L50,85.66h0a2,2,0,0,1-.35-.2c.06-.12.07,0,.14,0l-.18-.21c.13-.12.3,0,.31.21.51-.33-.17-.17.07-.69l.11.21c.29-.2.14-.34.31-.59-.11.06-.42.54-.6.31a.27.27,0,0,0-.09-.29c.2,0,.14-.15.11-.31h.27c-.09-.17-.23-.15-.36-.25s.23-.25.4-.3c0-.31-.33.23-.38-.14.11-.27,0-.45-.14-.79.11-.18.16,0,.24,0l-.2-.18s.08,0,.11,0c-.07-.15-.27,0-.32-.27-.29-.11.49-.4.22-.72.08,0,.15.06.25.06a2.88,2.88,0,0,0-.3-.72l.24-.22c-.24.14-.4-.17-.52-.46l-.26.11c0-.13,0-.27,0-.41s.13,0,.22.13l0-.08c.14-.1.26,0,.37.16l-.2.07a.92.92,0,0,0,.43.3.25.25,0,0,1,0-.13.2.2,0,0,0,.09.06s0-.06-.06-.14l.31,0-.11,0,.34-.36a2.16,2.16,0,0,1-.29-1.42c.13.23.3.2.52.33-.3,0-.07.42-.24.63a.12.12,0,0,1,.21,0v-.53c.18.11.18,0,.31-.09-.41-.12-.05-.44-.05-.67.12.06.22.18.06.36.41-.05-.23-.55.14-.63,0,.05-.07.07,0,.13,0-.19.26-.4.31-.26l0,0c.25-.3.75-.89.54-1.19,0,0,.27.34.31.41a7.86,7.86,0,0,1-.3-1.36c.16.27.8.66.68,1a.35.35,0,0,0,.28-.27c-.07,0-.4-.24-.35-.32a2.84,2.84,0,0,0,.65.1c-.11,0-.32-.44-.18-.53,0,.08.28.38.27.45,0-.19,0-.4,0-.6,0,.12.2.34.34.41-.08-.06.27-.15.33-.23l-.19,0c.39-.15,0-.8.46-1,0,.11.14.59.35.56,0-.27-.05-1.25.31-1.55l.12.1c.09-.08.17-.17.26-.24l-.49,1.65c.18,0,.1.14.31,0,.11.1-.05.22-.1.25l.49-.08c-.1-.27.29-.39.22-.6a4.89,4.89,0,0,0-.46.45c-.11-.25.07-.9.49-.92.12.09,0,.5.07.59,0-.1.31-.25.36-.2l-.13.19c.21,0,.27-.45.56-.2.09,0,.28.33.28.16a3.48,3.48,0,0,1-.21-1.53,2,2,0,0,1,.66.43c.16.25-.22.6-.08.81a.39.39,0,0,1,.11-.2c.1.07,0,.24.17.21,0-.29.4,0,.1-.24.2-.08.21,0,.44.07-.06-.19.27-.6.51-.65a.35.35,0,0,0,0,.21c.43.1.62.29,1,.39,0,.08.16.22.05.31.07,0,.15-.1.26-.07.14.31-.26-.05-.19.29.07-.16.36-.12.56-.15.05-.26-.36-.19-.55-.14a1,1,0,0,1,1-.56c.37.07.05.27.13.25.56.34.81-.28,1.17.24.07.31-.24.38-.28.54-.28-.07-.29-.35-.46-.44l.15.21a.44.44,0,0,1-.37-.12c.07.24.93.57,1.18,1,.12,0,.29,0,.29-.09l-.15-.07c0-.23.4,0,.29-.2a.84.84,0,0,1,.73.35l-.14.23c.05-.06,0-.25-.15-.26.17,0,.1.57.43.44l0-.28c.26,0,.64.1.77.37.1-.27-.06,0,0-.38-.14.37-.49-.56-.58-.08.1-.39-.15-.36-.16-.76-.05.07,0,.18-.19,0a.13.13,0,0,1-.09,0h0s0,0,0,0a.38.38,0,0,1,0,.18c-.21.06-.51-.17-.67-.17s.1,0,.1-.16h-.24c.1-.16-.12-.48.21-.36a1.5,1.5,0,0,0-.25-.19.67.67,0,0,0-.46-.37c-.11-.12-.42,0-.24-.08l-.49-.11,0,0c-.43-.25-1-.09-1.43-.59a1.07,1.07,0,0,1-.6-.09v-.17c-.21,0-.6-.27-.72-.11-.09-.23-.35-.29-.63-.29a3.57,3.57,0,0,1-.77,0v.21a2.14,2.14,0,0,0-.8.2l0,.19c-.24.16-.68,0-1.1.09,0-.08.12-.08.2-.06a.65.65,0,0,0-.76.17c-.22.17-.42.34-.68.3a.24.24,0,0,1-.25.11l0,0,0,0-.19,0a.62.62,0,0,0,.16,0,1.13,1.13,0,0,0-.28.21l-.14-.16,0,0c-.14,0,0,.14.09.24a.82.82,0,0,0-.09.19c-.25-.23-.23.26-.53,0,0,.17-.47.47-.31.79,0,0-.07,0,0-.07-.14,0-.27.1-.31.25L51.84,75v.46c-.24,0-.36,0-.35-.28-.13.53-.22.32-.25.81l-.11-.13c-.09.11-.07.41-.22.38-.47,0-1,1.12-1.59,1.65.5.1-.35.22,0,.43-.13,0-.23.06-.27-.1-.08.4-.43.47-.24.86-.12,0-.12-.15-.2-.14s.05.16,0,.18-.07-.09-.09-.17c-.14.4.18.55.48.69-.22.14-.22.25,0,.45-.13,0-.27.12-.24-.14,0,.13-.4.79-.12.87-.08,0-.06.18,0,.23a3.36,3.36,0,0,0-.13.63l.06-.08c.29.16,0,.26,0,.51l0,0c-.28.54.07.25-.22.79l.2,0c.43.06-.26.48-.1.8l.12-.11c.14.16-.56.51-.6.71,0,0-.07-.06-.1-.12-.21.51.27,0,.36.39-.14.08-.37,0-.37.2s.57.63.35,1c.1-.1.19-.19.3,0s-.22.77.16.89a.12.12,0,0,1-.07.07c.14.16.35.55.56.59-.6.44.78.92.2,1.2.1.17.22.33.33.5l-.07,0a.58.58,0,0,0,.56.4c0,.1-.07.08-.1.09.22.52.26.58.81.71l-.13.17c.16,0,.3.83.88,1a.14.14,0,0,1-.1,0c.58.23.85,1.41,1.47.88l.43,0c-.4-.32.23-.24.11-.46.18.07.34.43.1.36v0c-.27.31.5.4.38.64a10.19,10.19,0,0,0,2.89.94l-.09-.31a1.87,1.87,0,0,0,.34,0c.08.08.11.24-.14.23.13.17.42-.14.42-.21.48.13-.18.36,0,.36l.2,0,0,0c.16-.13.17-.25.46-.26s.11.18.18.19,0,0,.12,0l.44,0-.21-.22c.17-.13.4,0,.16-.28.17.19.57.14,1,.06a3,3,0,0,1,.81-.23,1.37,1.37,0,0,1,.71-.48.16.16,0,0,1,0-.32c.18.56.54,0,1,.2-.31-.1.63-.5.15-.63.21-.1.13.16.35.16a2.34,2.34,0,0,1,.69-.58,2.52,2.52,0,0,0,.78-.64c0-.06-.21,0-.19-.23l.52,0c.06-.13-.25-.36.1-.4-.07,0-.18,0-.14-.11a3.85,3.85,0,0,0,1.13-1.65c.14-.31.28-.62.43-.92a4.74,4.74,0,0,1,.6-.88c-.19.14-.17,0-.13-.12-.06.08-.18,0-.28-.06a6,6,0,0,0,.41-.47c-.25-.16.1-.6-.15-.7v.18c-.26-.28-.74.18-1.12.06.31.33-.66.46-.27,1-.1.06-.1-.11-.2-.09.14.14.14.27,0,.44l0,0c-.17.59-.44.76-.85,1.29L64,88a.47.47,0,0,1-.24.14c.17.29.22-.34.43-.05-.45,0-.55.89-1,.71-.13.17.23.09.09.26l-.13,0,.09.14a.28.28,0,0,1-.35,0s0-.1,0-.13c-.22.06-.31.41-.38.43l.2-.1c-.31.53-.95.88-1.27,1.41l.08,0c-.26.41-.35.11-.72.43v0a.42.42,0,0,1-.26.29c.06-.15-.3-.1-.21-.27-.35.36-.14.22-.31.68l-.12-.12c-.06.16,0,.24-.27.36.15-.2-.23-.18-.07-.42-.55-.15-.65.53-1,.1-.15.47.48.14.37.26.14.11-.13.35-.31.35s-.37-.5-.76-.45c0,0,0,0,.08,0-.15-.1-.28.18-.47,0-.1.25-.24,0-.27.31l.38-.07c-.21.08-.43.47-.79.27a.86.86,0,0,1,.22-.2c-.1-.09-.2.06-.3,0,.05-.31.46,0,.68-.3-.1-.14-.42.23-.3-.12-.18.46-.38-.08-.68.23l0-.2s-.14.11-.22.1l.18-.24c-.25.2-.37-.25-.59-.18.41.09,0,.25.2.44-.6.12-.2-.56-.77-.64.08,0,.24.21.1.26a.68.68,0,0,1-.24-.32c-.38-.09,0,.21-.21.27,0-.27-.22,0-.42,0l.08-.19c-.36-.31-.29.33-.6,0l.28-.17-.22,0,.14-.18c-.29.06-.32,0-.48-.21a.28.28,0,0,1-.4.19c-.06-.18.17-.12-.09-.25.12-.06.27-.17.27.06.05,0,.13-.08.17-.12,0-.19-.29-.22-.37-.29a.17.17,0,0,1,.06.11l-.49,0c0-.1.07-.11.15-.13-.08,0-.19,0-.3-.06.13-.1.24-.24.42-.19a2.75,2.75,0,0,1-.41-.11c0-.07,0-.28.06-.29-.08-.21-.6-.13-.69-.45a.19.19,0,0,1-.14,0c-.16-.23-.13-.54-.5-.67l.14-.31c-.2-.18-.17.41-.5.11s.16-.23.18-.36c-.2,0-.62-.13-.52-.5C50.86,87.54,50.85,87.63,50.91,87.69Zm-1.1-3c.06.06.21.16.1.22S49.77,84.83,49.81,84.71Zm.08-5c0,.07,0,.12-.12.18A.24.24,0,0,1,49.89,79.73Zm12.26-5.51h0C62,74.07,62.07,74.13,62.15,74.22Zm.25.26s.05,0,.06-.06-.12,0-.19-.07S62.28,74.46,62.4,74.48ZM58.11,93.63l-.08,0C58.18,93.51,58.14,93.57,58.11,93.63Z" transform="translate(-7.42 -18.63)"/><path class="cls-4" d="M50,80.36h-.12A.07.07,0,0,0,50,80.36Z" transform="translate(-7.42 -18.63)"/><polygon class="cls-4" points="44.68 70.59 44.68 70.6 44.72 70.58 44.68 70.59"/><path class="cls-4" d="M57.29,74.59a.23.23,0,0,1-.11-.11S57.2,74.57,57.29,74.59Z" transform="translate(-7.42 -18.63)"/><path class="cls-4" d="M64,75.44l-.2-.12c.09.07.08.13.1.19S64,75.4,64,75.44Z" transform="translate(-7.42 -18.63)"/><path class="cls-4" d="M64.24,77.68s0,0,.07.06l.08-.06C64.32,77.58,64.2,77.55,64.24,77.68Z" transform="translate(-7.42 -18.63)"/><path class="cls-4" d="M63.7,76.06c-.12.12,0,.18.13.28v0C64,76.19,63.86,76.12,63.7,76.06Z" transform="translate(-7.42 -18.63)"/><path class="cls-4" d="M63.86,76.36l.1.1C64,76.41,63.93,76.4,63.86,76.36Z" transform="translate(-7.42 -18.63)"/><path class="cls-4" d="M62.82,74.66c0,.08.17-.14.16-.06C63.17,74.48,62.42,74.5,62.82,74.66Z" transform="translate(-7.42 -18.63)"/><polygon class="cls-4" points="55.94 57.89 56.06 57.71 55.88 57.77 55.94 57.89"/><path class="cls-4" d="M62.67,75.62l.13.2s.05,0,.09,0S62.7,75.57,62.67,75.62Z" transform="translate(-7.42 -18.63)"/><path class="cls-4" d="M62.89,75.81s.1.1.16.1A.49.49,0,0,0,62.89,75.81Z" transform="translate(-7.42 -18.63)"/><polygon class="cls-4" points="55.69 57.7 55.67 57.63 55.56 57.51 55.69 57.7"/><path class="cls-4" d="M60.59,74.26l-.25-.05c-.06.06,0,.12.09.13S60.6,74.34,60.59,74.26Z" transform="translate(-7.42 -18.63)"/><path class="cls-4" d="M61,75.1a.41.41,0,0,1,0-.19l-.13.22A.8.8,0,0,1,61,75.1Z" transform="translate(-7.42 -18.63)"/><path class="cls-4" d="M60.36,74.85c0,.05-.38,0-.12.15C60.29,75,60.53,75,60.36,74.85Z" transform="translate(-7.42 -18.63)"/><polygon class="cls-4" points="49.49 55.25 49.55 55.24 49.52 54.82 49.49 55.25"/><path class="cls-4" d="M54.28,75.64c.27,0-.07-.26.2-.24,0-.12-.22,0-.2-.12C54.18,75.44,54.08,75.42,54.28,75.64Z" transform="translate(-7.42 -18.63)"/><path class="cls-4" d="M54.28,75.28a.36.36,0,0,0,0-.09A.21.21,0,0,0,54.28,75.28Z" transform="translate(-7.42 -18.63)"/><polygon class="cls-4" points="59.28 66.89 59.41 66.7 59.24 66.81 59.28 66.89"/><path class="cls-4" d="M66.47,85.08h.28l-.22-.15S66.54,85.05,66.47,85.08Z" transform="translate(-7.42 -18.63)"/><path class="cls-4" d="M50.3,84.18h-.06c-.07,0-.07.07-.08.15Z" transform="translate(-7.42 -18.63)"/><polygon class="cls-4" points="43.16 67.76 43.15 67.73 42.95 67.88 43.16 67.76"/><path class="cls-4" d="M51.66,87.92c0-.07-.12-.12-.15-.19C51.63,87.85,51.41,88.1,51.66,87.92Z" transform="translate(-7.42 -18.63)"/></g><path class="cls-7" d="M50.62,86.12c-.2-1-.63-1.79-1.34-2-1.43-.41-2.86,1.42-3,3.26a2.53,2.53,0,0,0,.86,2.24,2.1,2.1,0,0,0,3.28-1.27A4.26,4.26,0,0,0,50.62,86.12Z" transform="translate(-7.42 -18.63)"/><path class="cls-8" d="M49.8,86.47c-.12-.6-.39-1.11-.83-1.23-.88-.25-1.77.88-1.86,2a1.59,1.59,0,0,0,.53,1.39,1.31,1.31,0,0,0,2-.79A2.56,2.56,0,0,0,49.8,86.47Z" transform="translate(-7.42 -18.63)"/><path class="cls-9" d="M60.17,83.74a3.24,3.24,0,0,1-2.09,2.67C55.85,87,53.62,84.5,53.4,82a3.13,3.13,0,0,1,1.33-3,3.48,3.48,0,0,1,5.14,1.71A4.94,4.94,0,0,1,60.17,83.74Z" transform="translate(-7.42 -18.63)"/><path class="cls-10" d="M58.89,83.26a2,2,0,0,1-1.29,1.66c-1.39.34-2.77-1.19-2.9-2.71a1.94,1.94,0,0,1,.82-1.86A2.15,2.15,0,0,1,58.7,81.4,3,3,0,0,1,58.89,83.26Z" transform="translate(-7.42 -18.63)"/><path class="cls-11" d="M65,87.89a2.87,2.87,0,0,1-1.86,2.33c-2,.48-3.95-1.67-4.15-3.81a2.73,2.73,0,0,1,1.19-2.62,3.08,3.08,0,0,1,4.54,1.48A4.34,4.34,0,0,1,65,87.89Z" transform="translate(-7.42 -18.63)"/><path class="cls-12" d="M63.87,87.47a1.77,1.77,0,0,1-1.15,1.45c-1.22.3-2.44-1-2.57-2.36a1.71,1.71,0,0,1,.74-1.63,1.91,1.91,0,0,1,2.81.92A2.6,2.6,0,0,1,63.87,87.47Z" transform="translate(-7.42 -18.63)"/><path class="cls-13" d="M60.3,72.8a2.52,2.52,0,0,1-1.74,2c-1.85.42-3.7-1.44-3.89-3.3a2.3,2.3,0,0,1,1.11-2.27A3,3,0,0,1,60,70.53,3.47,3.47,0,0,1,60.3,72.8Z" transform="translate(-7.42 -18.63)"/><path class="cls-14" d="M59.24,72.49a1.57,1.57,0,0,1-1.08,1.25,2.23,2.23,0,0,1-2.41-2,1.41,1.41,0,0,1,.69-1.4,1.85,1.85,0,0,1,2.64.79A2.17,2.17,0,0,1,59.24,72.49Z" transform="translate(-7.42 -18.63)"/><path class="cls-15" d="M58,77.17a2.91,2.91,0,0,1-1.9,2.37c-2,.48-4-1.69-4.23-3.87A2.76,2.76,0,0,1,53.09,73a3.18,3.18,0,0,1,4.65,1.51A4.28,4.28,0,0,1,58,77.17Z" transform="translate(-7.42 -18.63)"/><path class="cls-16" d="M56.86,76.75a1.82,1.82,0,0,1-1.18,1.47c-1.25.3-2.5-1-2.62-2.4a1.68,1.68,0,0,1,.75-1.64,2,2,0,0,1,2.87.93A2.66,2.66,0,0,1,56.86,76.75Z" transform="translate(-7.42 -18.63)"/><path class="cls-17" d="M50.55,72.19a2.35,2.35,0,0,1,2,1.62,3.92,3.92,0,0,1-2.35,4.65c-.88.34-1.49-.18-2.12-.9-.92-1.49-.83-3.75.55-4.79A2.54,2.54,0,0,1,50.55,72.19Z" transform="translate(-7.42 -18.63)"/><path class="cls-18" d="M50.38,73.39a1.46,1.46,0,0,1,1.24,1,2.43,2.43,0,0,1-1.46,2.88c-.54.21-.92-.11-1.32-.56a2.33,2.33,0,0,1,.34-3A1.61,1.61,0,0,1,50.38,73.39Z" transform="translate(-7.42 -18.63)"/><path class="cls-19" d="M54.25,81.21a2.33,2.33,0,0,1-1.59,1.85c-1.69.37-3.38-1.32-3.55-3a2.08,2.08,0,0,1,1-2.07A2.73,2.73,0,0,1,54,79.14,3.15,3.15,0,0,1,54.25,81.21Z" transform="translate(-7.42 -18.63)"/><path class="cls-20" d="M53.28,80.88a1.44,1.44,0,0,1-1,1.15,2,2,0,0,1-2.19-1.87,1.29,1.29,0,0,1,.62-1.28,1.69,1.69,0,0,1,2.41.72A1.92,1.92,0,0,1,53.28,80.88Z" transform="translate(-7.42 -18.63)"/><path class="cls-21" d="M62.82,77.94a2.3,2.3,0,0,1-1.59,1.84c-1.69.38-3.37-1.32-3.54-3a2.07,2.07,0,0,1,1-2.07,2.74,2.74,0,0,1,3.89,1.17A3.2,3.2,0,0,1,62.82,77.94Z" transform="translate(-7.42 -18.63)"/><path class="cls-22" d="M61.71,77.61a1.41,1.41,0,0,1-1,1.14,2,2,0,0,1-2.19-1.86,1.3,1.3,0,0,1,.62-1.29,1.71,1.71,0,0,1,2.41.73A1.92,1.92,0,0,1,61.71,77.61Z" transform="translate(-7.42 -18.63)"/><path class="cls-23" d="M64.57,82.17A2.28,2.28,0,0,1,63,84c-1.69.38-3.38-1.31-3.55-3a2.09,2.09,0,0,1,1-2.07,2.74,2.74,0,0,1,3.89,1.17A3.08,3.08,0,0,1,64.57,82.17Z" transform="translate(-7.42 -18.63)"/><path class="cls-24" d="M63.61,81.84a1.46,1.46,0,0,1-1,1.15,2,2,0,0,1-2.19-1.87,1.3,1.3,0,0,1,.62-1.29,1.71,1.71,0,0,1,2.41.73A2,2,0,0,1,63.61,81.84Z" transform="translate(-7.42 -18.63)"/><path class="cls-25" d="M59.46,89.37a2.3,2.3,0,0,1-1.59,1.84c-1.69.38-3.38-1.32-3.55-3a2.1,2.1,0,0,1,1-2.07,2.74,2.74,0,0,1,3.89,1.17A3.2,3.2,0,0,1,59.46,89.37Z" transform="translate(-7.42 -18.63)"/><path class="cls-26" d="M58.49,89a1.42,1.42,0,0,1-1,1.14,2,2,0,0,1-2.2-1.86A1.31,1.31,0,0,1,55.94,87a1.71,1.71,0,0,1,2.41.73A2,2,0,0,1,58.49,89Z" transform="translate(-7.42 -18.63)"/><path class="cls-27" d="M54.9,86.11A2.32,2.32,0,0,1,53.31,88c-1.69.38-3.38-1.32-3.55-3a2.1,2.1,0,0,1,1-2.08A2.74,2.74,0,0,1,54.66,84,3.14,3.14,0,0,1,54.9,86.11Z" transform="translate(-7.42 -18.63)"/><path class="cls-28" d="M53.93,85.78a1.41,1.41,0,0,1-1,1.14,2,2,0,0,1-2.19-1.87,1.29,1.29,0,0,1,.62-1.28,1.7,1.7,0,0,1,2.41.73A1.91,1.91,0,0,1,53.93,85.78Z" transform="translate(-7.42 -18.63)"/><path class="cls-29" d="M49.66,82.1A2.33,2.33,0,0,1,48.17,84c-1.58.39-3.16-1.37-3.32-3.13a2.25,2.25,0,0,1,.95-2.15A2.45,2.45,0,0,1,49.44,80,3.59,3.59,0,0,1,49.66,82.1Z" transform="translate(-7.42 -18.63)"/><path class="cls-30" d="M48.75,81.76a1.43,1.43,0,0,1-.92,1.18c-1,.25-2-.84-2.06-1.93a1.41,1.41,0,0,1,.59-1.34,1.53,1.53,0,0,1,2.26.76A2.27,2.27,0,0,1,48.75,81.76Z" transform="translate(-7.42 -18.63)"/><path class="cls-31" d="M54.63,89.49a2.14,2.14,0,0,0-1.42-1.72c-1.51-.36-3,1.23-3.17,2.81a2,2,0,0,0,.9,1.93,2.4,2.4,0,0,0,3.48-1.09A3.13,3.13,0,0,0,54.63,89.49Z" transform="translate(-7.42 -18.63)"/><path class="cls-32" d="M53.76,89.79a1.3,1.3,0,0,0-.88-1.06c-.93-.22-1.87.76-2,1.74a1.21,1.21,0,0,0,.56,1.2A1.49,1.49,0,0,0,53.63,91,1.86,1.86,0,0,0,53.76,89.79Z" transform="translate(-7.42 -18.63)"/><path class="cls-33" d="M58.6,92.06a2.14,2.14,0,0,0-1.43-1.72c-1.5-.35-3,1.23-3.17,2.81a2,2,0,0,0,.91,1.94A2.41,2.41,0,0,0,58.39,94,3.12,3.12,0,0,0,58.6,92.06Z" transform="translate(-7.42 -18.63)"/><path class="cls-34" d="M57.73,92.37a1.3,1.3,0,0,0-.88-1.07c-.94-.22-1.87.76-2,1.74a1.21,1.21,0,0,0,.56,1.2,1.48,1.48,0,0,0,2.15-.68A1.84,1.84,0,0,0,57.73,92.37Z" transform="translate(-7.42 -18.63)"/><path class="cls-35" d="M62.68,91.08a2.12,2.12,0,0,0-1.42-1.72c-1.51-.35-3,1.23-3.17,2.81A2,2,0,0,0,59,94.11,2.4,2.4,0,0,0,62.47,93,3,3,0,0,0,62.68,91.08Z" transform="translate(-7.42 -18.63)"/><path class="cls-36" d="M61.82,91.39a1.35,1.35,0,0,0-.88-1.07c-.94-.22-1.88.76-2,1.74a1.24,1.24,0,0,0,.56,1.2,1.49,1.49,0,0,0,2.16-.68A1.9,1.9,0,0,0,61.82,91.39Z" transform="translate(-7.42 -18.63)"/><path class="cls-37" d="M68.52,82.18a2.13,2.13,0,0,0-1.42-1.73c-1.51-.35-3,1.24-3.17,2.82a2,2,0,0,0,.9,1.93,2.4,2.4,0,0,0,3.48-1.09A3.06,3.06,0,0,0,68.52,82.18Z" transform="translate(-7.42 -18.63)"/><path class="cls-38" d="M67.65,82.48a1.29,1.29,0,0,0-.88-1.06c-.93-.22-1.87.76-2,1.74a1.23,1.23,0,0,0,.56,1.2,1.49,1.49,0,0,0,2.15-.68A1.87,1.87,0,0,0,67.65,82.48Z" transform="translate(-7.42 -18.63)"/><path class="cls-39" d="M67.37,76.54A2.13,2.13,0,0,0,66,74.81c-1.51-.35-3,1.23-3.17,2.82a2,2,0,0,0,.91,1.93,2.4,2.4,0,0,0,3.47-1.09A3,3,0,0,0,67.37,76.54Z" transform="translate(-7.42 -18.63)"/><path class="cls-40" d="M66.51,76.84a1.34,1.34,0,0,0-.89-1.07c-.93-.21-1.87.77-2,1.75a1.25,1.25,0,0,0,.56,1.2A1.5,1.5,0,0,0,66.38,78,2,2,0,0,0,66.51,76.84Z" transform="translate(-7.42 -18.63)"/><path class="cls-41" d="M68.52,87.82a2.13,2.13,0,0,0-1.42-1.73c-1.51-.35-3,1.24-3.17,2.82a2,2,0,0,0,.9,1.93,2.4,2.4,0,0,0,3.48-1.09A3.06,3.06,0,0,0,68.52,87.82Z" transform="translate(-7.42 -18.63)"/><path class="cls-42" d="M67.65,88.12a1.29,1.29,0,0,0-.88-1.06c-.93-.22-1.87.76-2,1.74a1.23,1.23,0,0,0,.56,1.2,1.49,1.49,0,0,0,2.15-.68A1.87,1.87,0,0,0,67.65,88.12Z" transform="translate(-7.42 -18.63)"/><g class="cls-43"><path class="cls-2" d="M57.58,25.22,39,32.64c-4.44,1.78-9,3.63-12.5,7.16-6.92,7-7.94,18.52-8.51,28.92-.53,9.8-1,19.83,1.4,29.27s8.43,18.33,16.92,20.92c3.14,1,6.47,1,9.56,2.16,3.68,1.34,6.77,4.1,10,6.43,7.08,5.07,15.33,8.3,23.74,8.44a32.19,32.19,0,0,0,23.25-9.19c5.47-5.44,9-13,11.17-20.78s3-16,3.85-24.12c.58-5.51,1.15-11.08.55-16.58s-2.53-11-6.22-14.73c-4.7-4.72-11.55-5.9-16.47-10.34C92.32,37.09,90.1,32.62,87,29.07c-7.31-8.38-18.2-7.47-28.09-4.18Z" transform="translate(-7.42 -18.63)"/></g></g></g></svg>