<svg id="Calque_1" data-name="Calque 1" xmlns="http://www.w3.org/2000/svg" viewBox="0 0 152.61 148.93"><defs><style>.cls-1{opacity:0.3;}.cls-2{fill:#f5df4d;}.cls-3{fill:none;stroke:#f5df4d;stroke-width:0.81px;}.cls-3,.cls-4{stroke-miterlimit:10;}.cls-4{fill:#86c9b3;stroke:#f4a6a7;stroke-width:0.16px;}</style></defs><g class="cls-1"><path class="cls-2" d="M365.23,418.93c-1.05-29.82-29.55-57.79-56.24-60-17.76-1.46-35.37,6.35-52.21,14-14.74,6.7-31.5,15.88-35.34,33-3.29,14.66,4.64,28.81,13.45,39.57a151.71,151.71,0,0,0,54.22,42.1c13.95,6.35,29.28,10.44,44.55,7.79s29.3-13.61,36.76-28.94-1.58-26.09-4.39-40.76Z" transform="translate(-220.68 -347.29)"/></g><path class="cls-2" d="M338.7,377.44c-4.51-9.88-12.75-17.67-22.2-22.83-9.17-5-19.85-7.89-30.34-7.22-12.25.77-22.75,7.38-31.69,15.39-5.17,4.63-10,9.69-14.68,14.79-4.44,4.8-8.7,9.92-11.76,15.74-2.92,5.54-4.61,11.77-3.86,18.06a29.26,29.26,0,0,0,7.49,15.85,54.65,54.65,0,0,0,14.25,11,125.43,125.43,0,0,0,19.89,9,117.9,117.9,0,0,0,43.7,6.94c13.14-.54,26.9-4.26,36.19-14.08A43.62,43.62,0,0,0,355,424.55c2-5.6,3.22-12.08,2.21-18-1.8-10.55-11.47-16.38-16.39-25.23l-2.15-3.88c-.31-.57-1.19-.06-.87.51a61.76,61.76,0,0,0,5.45,8.66c3.2,4,7,7.64,9.74,12a23.76,23.76,0,0,1,3.28,16,44.65,44.65,0,0,1-6.05,17.79C335.43,457,301.35,455.7,277,449.53a124.72,124.72,0,0,1-20.58-7.16,89.89,89.89,0,0,1-17-9.53,38,38,0,0,1-11.65-13.13,26.15,26.15,0,0,1-1.8-18.38c1.67-6.33,5.31-12,9.38-17.05s8.46-9.56,12.92-14.1c8.78-8.92,18.89-17.91,31.41-20.83,9.8-2.29,20.3-.69,29.57,2.95,9.84,3.87,18.95,10.4,25,19.17a42.61,42.61,0,0,1,3.66,6.48C338.1,378.54,339,378,338.7,377.44Z" transform="translate(-220.68 -347.29)"/><path class="cls-3" d="M292.62,452.93c-3.56-4.08-4.49-10.8-7.35-14.57,10.55,3.8,21.92,6.84,31.85,14.1" transform="translate(-220.68 -347.29)"/><path class="cls-3" d="M300.78,453.06c-4.09-4.25-8.06-10.4-13.26-13.58a69.59,69.59,0,0,1,24,14.06" transform="translate(-220.68 -347.29)"/><path class="cls-3" d="M323.16,451.62c-14.34-7.94-38.77-24.51-46.6-1.39" transform="translate(-220.68 -347.29)"/><path class="cls-3" d="M287.7,439c15.2.58,29.53,5.68,44.31,9.91" transform="translate(-220.68 -347.29)"/><path class="cls-3" d="M258.21,444.07c9.14-1.79,18.46-3.28,27.16-7.41-7.17,4.31-14.25,6.91-22.15,9.54" transform="translate(-220.68 -347.29)"/><path class="cls-3" d="M244.9,437.07q3.19,0,6.4,0c2.14,0,4.28.11,6.43.19,9.1.65,18.37,0,27.64-.62-7.74.81-14.82,3.42-22.2,3.65-1.74.2-3.44.39-5.12.61s-3.33.45-5,.72" transform="translate(-220.68 -347.29)"/><path class="cls-3" d="M228.52,422.67a180.94,180.94,0,0,1,26.9,6.47l6.67,2.07c7.33,1.88,14.11,4.38,21.75,5.27-8.35-1.83-16.1-1-24.45-3.61-2.55-.56-5.1-1.1-7.66-1.6-5.12-1-12.08-1-17.3-1.39" transform="translate(-220.68 -347.29)"/><path class="cls-3" d="M225.26,415.49c10.15,2.26,19.88,6.08,29.52,10.15l7.23,3.09c7.51,2.65,15,6.95,23.36,7.93a182.13,182.13,0,0,1-24.12-2.19q-3.74-.45-7.49-.81c-5-.48-10.06-.82-15.23-.91" transform="translate(-220.68 -347.29)"/><path class="cls-3" d="M246.28,371.64c4.26,2.66,7.07,7.27,9.06,12.65,6.55,19.62,11.47,40.78,27.69,52.95-20.09-11.77-23.33-35.3-35.18-56.4-.67-1.79-2-4.52-5.33-5" transform="translate(-220.68 -347.29)"/><path class="cls-3" d="M251.1,366.47c2.08,2.13,3.56,3.16,4.94,5.9,11,22.71,9.44,49.11,28.52,65.05-17.95-8.95-28.52-25.61-37.36-45.51-2-4.52-5.71-7.52-10-9.77" transform="translate(-220.68 -347.29)"/><path class="cls-3" d="M255.09,362.55c2.88,3.18,4.2,6.77,6.35,9.59,8.79,20.74,5.77,46.11,21.46,63.62" transform="translate(-220.68 -347.29)"/><path class="cls-3" d="M297.94,349.53c-1.19,24.15-12.42,45.14-13.54,69.94q-.07,4.5.06,9t.51,9.1" transform="translate(-220.68 -347.29)"/><path class="cls-3" d="M306.1,350.4c-1.05,26-16.81,45.56-19.53,70.13-.34,3.07-.56,6.17-.84,9.28-.19,2-.66-6.82-1.17,7.61a87.55,87.55,0,0,1-3.05-16.32c-.36-3-.6-6-.74-9.06-.19-12,2.8-23.6,4.26-35.44.55-9.36,1.86-18.64,1.07-28.42" transform="translate(-220.68 -347.29)"/><path class="cls-3" d="M319.26,356c-4.32,22.41-17.64,39.72-26.11,59-.95,2.51-1.79,5-2.62,7.55-1.67,5.05-3.38,10.06-5.21,15q.39-4.59.93-9.1t1.23-9a74,74,0,0,1,3.6-14.69c7.16-17.18,16.62-34.08,18-53.41" transform="translate(-220.68 -347.29)"/><path class="cls-3" d="M348.92,393.6c-20.19,12.1-37.33,29-57,40.87a49.28,49.28,0,0,1-6.58,2.19,61.76,61.76,0,0,0,6.4-2.89c18.44-13.94,35.54-29.95,53.14-44.9" transform="translate(-220.68 -347.29)"/><path class="cls-3" d="M354.45,400.82c-19.95,11.56-40.52,21.16-60.17,33.31a45.77,45.77,0,0,1-6.57,2" transform="translate(-220.68 -347.29)"/><path class="cls-3" d="M357.85,407.39A41.05,41.05,0,0,1,346,413.71c-19.46,3.74-35.49,14.73-53.32,22a68.07,68.07,0,0,1-7,1.44" transform="translate(-220.68 -347.29)"/><path class="cls-4" d="M287.77,411.31c-7.38.43-8.37,9.6-2.67,27.9C291.3,427.54,294.75,417.09,287.77,411.31Z" transform="translate(-220.68 -347.29)"/><path class="cls-4" d="M269.62,415.24c-5,5.86-.25,13.65,14.81,23.46C281.87,425.08,278.09,414.46,269.62,415.24Z" transform="translate(-220.68 -347.29)"/><path class="cls-4" d="M306.14,423.76c-5.44-5.87-12.23-.84-20.45,15.6C297.79,437.06,307.15,433.26,306.14,423.76Z" transform="translate(-220.68 -347.29)"/></svg>