<svg xmlns="http://www.w3.org/2000/svg" viewBox="0 0 92.49 83.33"><defs><style>.cls-1{isolation:isolate;}.cls-2{opacity:0.3;mix-blend-mode:multiply;}.cls-3{fill:#ec6569;}.cls-4{fill:none;stroke:#ec6569;stroke-width:0.51px;}.cls-4,.cls-5{stroke-miterlimit:10;}.cls-5{fill:#f5df4d;stroke:#50162e;stroke-width:0.1px;}</style></defs><g class="cls-1"><g id="Calque_1" data-name="Calque 1"><g class="cls-2"><path class="cls-3" d="M334.31,427.45c3.93-15.86-8.19-36.19-23.2-42.64-10-4.28-21.29-3.68-32.14-3-9.49.59-20.52,2.08-25.33,10.29-4.12,7-1.72,16,1.72,23.44a98.21,98.21,0,0,0,24.75,32.85c7.05,6.1,15.24,11.29,24.42,12.93a29.31,29.31,0,0,0,25.54-7.89c6.6-6.55,3.06-14,3.67-22.26Z" transform="translate(-251.47 -378.44)"/></g><path class="cls-3" d="M343.26,420.23c3.25-13.53-5.25-28.7-16.37-36.11-7.14-4.75-15.84-5.78-24.23-5.67-4.39.06-8.81.28-13.18.72a41,41,0,0,0-10.34,2.16,17.45,17.45,0,0,0-7.92,5.54,15.66,15.66,0,0,0-2.87,10.74,35.43,35.43,0,0,0,3.47,12,89.35,89.35,0,0,0,6.38,11.43,87.37,87.37,0,0,0,17.49,19.46c6.46,5.3,14.19,9.85,22.67,10.64a26.38,26.38,0,0,0,21.45-7.93,13.47,13.47,0,0,0,3.31-9.71c-.05-3.47-.82-7.05-.28-10.51l.42-2.77c.06-.4-.55-.57-.61-.17a34.86,34.86,0,0,0-.59,6.12c.09,3.6.84,7.29.17,10.88-.76,4.06-3.69,7-7,9.2A26.18,26.18,0,0,1,324,450.42c-8.18,1-16.16-2.17-22.86-6.64A79.8,79.8,0,0,1,283,426.66c-5.13-6.53-9.8-14-12.49-21.89-1.31-3.88-2.14-8.15-1.24-12.21a13.9,13.9,0,0,1,6.21-8.75c6-3.84,13.75-4.09,20.67-4.48,8.72-.49,17.93-.66,26.09,3,6.21,2.76,11.33,7.78,15,13.44s6.22,12.56,6,19.46a23.56,23.56,0,0,1-.64,4.87A.32.32,0,0,0,343.26,420.23Z" transform="translate(-251.47 -378.44)"/><path class="cls-4" d="M289.86,434.8c-.24-3.31,1.91-6.71,1.9-9.59,4,6.11,8.67,12.22,11,19.62" transform="translate(-251.47 -378.44)"/><path class="cls-4" d="M294,438.27c-.46-3.61-.11-8-1.56-11.63A45.52,45.52,0,0,1,299.41,443" transform="translate(-251.47 -378.44)"/><path class="cls-4" d="M306.19,447c-4.32-9.55-10.48-27.17-23.59-20.08" transform="translate(-251.47 -378.44)"/><path class="cls-4" d="M292.78,426.5c7.64,6.61,13.06,14.87,19.06,22.94" transform="translate(-251.47 -378.44)"/><path class="cls-4" d="M275.51,416.46c5.44,3,10.84,6.24,17,8a78.18,78.18,0,0,1-15.21-5" transform="translate(-251.47 -378.44)"/><path class="cls-4" d="M271.36,407.77c1.11.87,2.21,1.77,3.31,2.68s2.17,1.83,3.25,2.77a147.88,147.88,0,0,0,14.56,11.26c-4.33-2.87-9-4.65-12.93-7.63-1-.64-1.93-1.26-2.89-1.87s-1.9-1.19-2.85-1.75" transform="translate(-251.47 -378.44)"/><path class="cls-4" d="M268.52,394.47a129.64,129.64,0,0,1,11.39,14.13c.89,1.24,1.77,2.47,2.65,3.72,3.06,3.9,5.59,7.85,9.2,11.45-3.61-4.32-7.94-7.19-11.25-11.84-1.1-1.31-2.21-2.62-3.34-3.91a114.09,114.09,0,0,0-8.42-7.85" transform="translate(-251.47 -378.44)"/><path class="cls-4" d="M269.64,389.89A121,121,0,0,1,281,406.77q1.28,2.19,2.53,4.4c2.86,4.33,5,9.36,9,13.31a134.93,134.93,0,0,1-11.64-11.05c-1.17-1.18-2.35-2.34-3.56-3.5-2.4-2.3-4.89-4.57-7.53-6.76" transform="translate(-251.47 -378.44)"/><path class="cls-4" d="M297.69,379c1.17,3,.81,6.21-.26,9.45-4.29,11.53-10,23.07-6.39,35.3-5.8-13.67,1.73-25.57,3.86-40a4.21,4.21,0,0,0-.79-4.47" transform="translate(-251.47 -378.44)"/><path class="cls-4" d="M302.21,378.71c.24,1.83.6,2.91.25,4.71-3.21,14.77-14.34,25.95-10.7,41.07-5.79-11.51-4.74-23.39-1.53-36,.71-2.89,0-5.76-1.35-8.55" transform="translate(-251.47 -378.44)"/><path class="cls-4" d="M305.81,378.62c.24,2.63-.47,4.79-.47,6.95-3.56,13-15.06,23.08-13.79,37.48" transform="translate(-251.47 -378.44)"/><path class="cls-4" d="M333.1,390.68C323,401,309,405.72,298.71,416.37c-1.21,1.33-2.38,2.68-3.51,4.08s-2.24,2.82-3.3,4.29" transform="translate(-251.47 -378.44)"/><path class="cls-4" d="M337,394.48c-10.7,11.2-26.54,13.4-37.57,23.28-1.37,1.23-2.7,2.53-4.07,3.8-.87.82,2.33-3.33-3.58,2.93a45.73,45.73,0,0,1,4.81-8.59c1-1.51,2.06-3,3.17-4.37,4.57-5.44,10.69-9.41,16.07-14.1,4-4,8.27-7.59,11.69-12.3" transform="translate(-251.47 -378.44)"/><path class="cls-4" d="M341.62,402.47c-11,8.24-24.69,10.43-36.62,15.54-1.48.73-2.9,1.51-4.32,2.29-2.84,1.56-5.68,3.1-8.56,4.55q2-1.91,4-3.7t4.15-3.51a41.38,41.38,0,0,1,7.62-5.07c10.43-4.71,21.94-8.34,30.25-16.41" transform="translate(-251.47 -378.44)"/><path class="cls-4" d="M342.24,431.73c-15.19-3-30.67-2.61-45.5-5.48a35.5,35.5,0,0,1-4.26-1.77,44.42,44.42,0,0,0,4.44,1.38c15,1.46,30.13,1.42,45.1,2.07" transform="translate(-251.47 -378.44)"/><path class="cls-4" d="M342.28,437.27c-14.85-3.15-29.27-7.44-44.2-10.2a33.51,33.51,0,0,1-4.17-1.87" transform="translate(-251.47 -378.44)"/><path class="cls-4" d="M341.47,441.64a30.41,30.41,0,0,1-8.63-2.13c-11.54-6.46-24.14-8.22-36.21-12.42-1.41-.68-2.79-1.44-4.17-2.27" transform="translate(-251.47 -378.44)"/><path class="cls-5" d="M305.8,415.3c-4-2.89-8.09.8-12.31,11.39C301.27,424.05,307.15,420.81,305.8,415.3Z" transform="translate(-251.47 -378.44)"/><path class="cls-5" d="M294.87,409.48c-4.91.52-5.48,6-1.53,16.7C297.36,419,299.55,412.67,294.87,409.48Z" transform="translate(-251.47 -378.44)"/><path class="cls-5" d="M310.44,428.55c-.52-4.9-6-5.48-16.7-1.55C300.91,431,307.24,433.23,310.44,428.55Z" transform="translate(-251.47 -378.44)"/></g></g></svg>