<svg id="Calque_1" data-name="Calque 1" xmlns="http://www.w3.org/2000/svg" xmlns:xlink="http://www.w3.org/1999/xlink" viewBox="0 0 120.95 120.47"><defs><style>.cls-1{fill:#50162e;}.cls-2{fill:#f4a6a7;}.cls-24,.cls-3{fill:none;}.cls-3{stroke:#f4a6a7;stroke-width:0.23px;}.cls-10,.cls-11,.cls-12,.cls-13,.cls-14,.cls-15,.cls-16,.cls-17,.cls-18,.cls-19,.cls-20,.cls-21,.cls-22,.cls-23,.cls-24,.cls-25,.cls-26,.cls-27,.cls-28,.cls-29,.cls-3,.cls-30,.cls-31,.cls-32,.cls-33,.cls-34,.cls-35,.cls-36,.cls-37,.cls-38,.cls-39,.cls-40,.cls-41,.cls-42,.cls-7,.cls-8,.cls-9{stroke-miterlimit:10;}.cls-4{fill:#f3e38c;}.cls-5{fill:url(#Dégradé_sans_nom_12);}.cls-6{opacity:0.53;}.cls-11,.cls-13,.cls-15,.cls-17,.cls-19,.cls-21,.cls-23,.cls-25,.cls-27,.cls-29,.cls-31,.cls-33,.cls-35,.cls-37,.cls-39,.cls-41,.cls-7,.cls-9{stroke:#f3e38c;}.cls-7{stroke-width:0.07px;fill:url(#Dégradé_sans_nom_28);}.cls-10,.cls-14,.cls-16,.cls-18,.cls-22,.cls-24,.cls-26,.cls-28,.cls-30,.cls-34,.cls-36,.cls-38,.cls-40,.cls-42,.cls-8{stroke:#50162e;}.cls-10,.cls-12,.cls-14,.cls-16,.cls-18,.cls-20,.cls-22,.cls-24,.cls-26,.cls-28,.cls-30,.cls-32,.cls-34,.cls-36,.cls-38,.cls-40,.cls-42,.cls-8{stroke-width:0.93px;}.cls-8{fill:url(#Dégradé_sans_nom_23);}.cls-9{stroke-width:0.07px;fill:url(#Dégradé_sans_nom_28-2);}.cls-10{fill:url(#Dégradé_sans_nom_20);}.cls-11{stroke-width:0.06px;fill:url(#Dégradé_sans_nom_6);}.cls-12,.cls-20,.cls-32{stroke:#f5df4d;}.cls-12{fill:url(#Dégradé_sans_nom_22);}.cls-13{stroke-width:0.05px;fill:url(#Dégradé_sans_nom_30);}.cls-14{fill:url(#Dégradé_sans_nom_24);}.cls-15{stroke-width:0.06px;fill:url(#Dégradé_sans_nom_30-2);}.cls-16{fill:url(#Dégradé_sans_nom_24-2);}.cls-17{stroke-width:0.05px;fill:url(#Dégradé_sans_nom_30-3);}.cls-18{fill:url(#Dégradé_sans_nom_24-3);}.cls-19,.cls-21,.cls-23,.cls-25,.cls-27{stroke-width:0.05px;}.cls-19{fill:url(#Dégradé_sans_nom_28-3);}.cls-20{fill:url(#Dégradé_sans_nom_23-2);}.cls-21{fill:url(#Dégradé_sans_nom_6-2);}.cls-22{fill:url(#Dégradé_sans_nom_21);}.cls-23{fill:url(#Dégradé_sans_nom_11);}.cls-25{fill:url(#Dégradé_sans_nom_6-3);}.cls-26{fill:url(#Dégradé_sans_nom_22-2);}.cls-27{fill:url(#Dégradé_sans_nom_28-4);}.cls-28{fill:url(#Dégradé_sans_nom_23-3);}.cls-29{stroke-width:0.05px;fill:url(#Dégradé_sans_nom_28-5);}.cls-30{fill:url(#Dégradé_sans_nom_24-4);}.cls-31,.cls-33,.cls-35,.cls-37,.cls-39,.cls-41{stroke-width:0.07px;}.cls-31{fill:url(#Dégradé_sans_nom_30-4);}.cls-32{fill:url(#Dégradé_sans_nom_23-4);}.cls-33{fill:url(#Dégradé_sans_nom_37);}.cls-34{fill:url(#Dégradé_sans_nom_22-3);}.cls-35{fill:url(#Dégradé_sans_nom_6-4);}.cls-36{fill:url(#Dégradé_sans_nom_22-4);}.cls-37{fill:url(#Dégradé_sans_nom_6-5);}.cls-38{fill:url(#Dégradé_sans_nom_21-2);}.cls-39{fill:url(#Dégradé_sans_nom_17);}.cls-40{fill:url(#Dégradé_sans_nom_21-3);}.cls-41{fill:url(#Dégradé_sans_nom_6-6);}.cls-42{fill:url(#Dégradé_sans_nom_22-5);}</style><radialGradient id="Dégradé_sans_nom_12" cx="808.46" cy="251.26" r="10.79" gradientTransform="matrix(-0.15, 0.92, -0.92, -0.15, 403.68, -651.33)" gradientUnits="userSpaceOnUse"><stop offset="0" stop-color="#fff"/><stop offset="0.24" stop-color="#fffefc"/><stop offset="0.42" stop-color="#fefcf2"/><stop offset="0.58" stop-color="#fcf8e2"/><stop offset="0.73" stop-color="#faf2cb"/><stop offset="0.87" stop-color="#f7ebae"/><stop offset="1" stop-color="#f3e38c"/></radialGradient><radialGradient id="Dégradé_sans_nom_28" cx="741.82" cy="333.91" r="2.9" gradientTransform="translate(618.93 -332.63) rotate(90)" gradientUnits="userSpaceOnUse"><stop offset="0" stop-color="#f4a6a7"/><stop offset="0.34" stop-color="#f4a9a6"/><stop offset="0.56" stop-color="#f4b2a2"/><stop offset="0.75" stop-color="#f4c19b"/><stop offset="0.92" stop-color="#f3d692"/><stop offset="1" stop-color="#f3e38c"/></radialGradient><radialGradient id="Dégradé_sans_nom_23" cx="741.82" cy="333.91" r="1.79" gradientTransform="translate(618.93 -332.63) rotate(90)" gradientUnits="userSpaceOnUse"><stop offset="0" stop-color="#fff"/><stop offset="0.44" stop-color="#fffffd"/><stop offset="0.59" stop-color="#fefdf6"/><stop offset="0.71" stop-color="#fdfaeb"/><stop offset="0.8" stop-color="#fbf6da"/><stop offset="0.88" stop-color="#f9f1c4"/><stop offset="0.94" stop-color="#f6eaa9"/><stop offset="1" stop-color="#f3e38c"/></radialGradient><radialGradient id="Dégradé_sans_nom_28-2" cx="751.67" cy="329.08" r="4.16" xlink:href="#Dégradé_sans_nom_28"/><radialGradient id="Dégradé_sans_nom_20" cx="751.67" cy="329.08" r="2.58" gradientTransform="translate(618.93 -332.63) rotate(90)" gradientUnits="userSpaceOnUse"><stop offset="0" stop-color="#fff"/><stop offset="0.2" stop-color="#fffefb"/><stop offset="0.39" stop-color="#fdfbf1"/><stop offset="0.56" stop-color="#fcf7de"/><stop offset="0.73" stop-color="#f9f1c5"/><stop offset="0.9" stop-color="#f5e9a4"/><stop offset="1" stop-color="#f3e38c"/></radialGradient><linearGradient id="Dégradé_sans_nom_6" x1="754.21" y1="333.64" x2="761.45" y2="333.64" gradientTransform="translate(618.93 -332.63) rotate(90)" gradientUnits="userSpaceOnUse"><stop offset="0" stop-color="#f4a6a7"/><stop offset="1" stop-color="#f3e38c"/></linearGradient><radialGradient id="Dégradé_sans_nom_22" cx="757.83" cy="333.64" r="2.26" gradientTransform="translate(618.93 -332.63) rotate(90)" gradientUnits="userSpaceOnUse"><stop offset="0" stop-color="#fff"/><stop offset="0.27" stop-color="#fffefc"/><stop offset="0.45" stop-color="#fefcf3"/><stop offset="0.6" stop-color="#fcf9e4"/><stop offset="0.74" stop-color="#faf3cf"/><stop offset="0.86" stop-color="#f7edb4"/><stop offset="0.98" stop-color="#f4e593"/><stop offset="1" stop-color="#f3e38c"/></radialGradient><radialGradient id="Dégradé_sans_nom_30" cx="752.49" cy="317.84" r="3.3" gradientTransform="translate(618.93 -332.63) rotate(90)" gradientUnits="userSpaceOnUse"><stop offset="0" stop-color="#f4a6a7"/><stop offset="0.39" stop-color="#f4a8a6"/><stop offset="0.6" stop-color="#f4b0a2"/><stop offset="0.76" stop-color="#f4be9c"/><stop offset="0.9" stop-color="#f3d194"/><stop offset="1" stop-color="#f3e38c"/></radialGradient><radialGradient id="Dégradé_sans_nom_24" cx="752.49" cy="317.89" r="2.04" gradientTransform="translate(618.93 -332.63) rotate(90)" gradientUnits="userSpaceOnUse"><stop offset="0" stop-color="#fff"/><stop offset="0.22" stop-color="#fffefc"/><stop offset="0.4" stop-color="#fefcf2"/><stop offset="0.57" stop-color="#fcf8e0"/><stop offset="0.73" stop-color="#f9f2c8"/><stop offset="0.88" stop-color="#f6eaa9"/><stop offset="1" stop-color="#f3e38c"/></radialGradient><radialGradient id="Dégradé_sans_nom_30-2" cx="749.5" cy="322.29" r="3.72" xlink:href="#Dégradé_sans_nom_30"/><radialGradient id="Dégradé_sans_nom_24-2" cx="749.5" cy="322.29" r="2.3" xlink:href="#Dégradé_sans_nom_24"/><radialGradient id="Dégradé_sans_nom_30-3" cx="743.72" cy="321.56" r="3.24" xlink:href="#Dégradé_sans_nom_30"/><radialGradient id="Dégradé_sans_nom_24-3" cx="743.73" cy="321.54" r="2" xlink:href="#Dégradé_sans_nom_24"/><radialGradient id="Dégradé_sans_nom_28-3" cx="745.64" cy="326.82" r="3.01" xlink:href="#Dégradé_sans_nom_28"/><radialGradient id="Dégradé_sans_nom_23-2" cx="745.64" cy="326.82" r="1.86" xlink:href="#Dégradé_sans_nom_23"/><linearGradient id="Dégradé_sans_nom_6-2" x1="752.66" y1="323.36" x2="758.85" y2="323.36" xlink:href="#Dégradé_sans_nom_6"/><radialGradient id="Dégradé_sans_nom_21" cx="755.59" cy="323.36" r="1.86" gradientTransform="translate(618.93 -332.63) rotate(90)" gradientUnits="userSpaceOnUse"><stop offset="0" stop-color="#fff"/><stop offset="0.25" stop-color="#fffefc"/><stop offset="0.43" stop-color="#fefcf3"/><stop offset="0.59" stop-color="#fcf8e3"/><stop offset="0.73" stop-color="#faf3cd"/><stop offset="0.87" stop-color="#f7ecb1"/><stop offset="0.99" stop-color="#f3e48f"/><stop offset="1" stop-color="#f3e38c"/></radialGradient><radialGradient id="Dégradé_sans_nom_11" cx="757.83" cy="327.84" r="3.01" gradientTransform="translate(618.93 -332.63) rotate(90)" gradientUnits="userSpaceOnUse"><stop offset="0" stop-color="#fff"/><stop offset="1" stop-color="#f3e38c"/></radialGradient><linearGradient id="Dégradé_sans_nom_6-3" x1="748.7" y1="335.45" x2="754.89" y2="335.45" xlink:href="#Dégradé_sans_nom_6"/><radialGradient id="Dégradé_sans_nom_22-2" cx="751.79" cy="335.45" r="1.86" xlink:href="#Dégradé_sans_nom_22"/><radialGradient id="Dégradé_sans_nom_28-4" cx="746.4" cy="332" r="3.01" xlink:href="#Dégradé_sans_nom_28"/><radialGradient id="Dégradé_sans_nom_23-3" cx="746.4" cy="332" r="1.86" xlink:href="#Dégradé_sans_nom_23"/><radialGradient id="Dégradé_sans_nom_28-5" cx="740.41" cy="327.73" r="2.96" xlink:href="#Dégradé_sans_nom_28"/><radialGradient id="Dégradé_sans_nom_24-4" cx="740.41" cy="327.73" r="1.84" xlink:href="#Dégradé_sans_nom_24"/><radialGradient id="Dégradé_sans_nom_30-4" cx="746.4" cy="337.33" r="2.75" xlink:href="#Dégradé_sans_nom_30"/><radialGradient id="Dégradé_sans_nom_23-4" cx="746.4" cy="337.33" r="1.7" xlink:href="#Dégradé_sans_nom_23"/><radialGradient id="Dégradé_sans_nom_37" cx="751.09" cy="340.05" r="2.75" gradientTransform="translate(618.93 -332.63) rotate(90)" gradientUnits="userSpaceOnUse"><stop offset="0" stop-color="#f4a6a7"/><stop offset="0.44" stop-color="#f4a8a6"/><stop offset="0.64" stop-color="#f4afa3"/><stop offset="0.78" stop-color="#f4bc9d"/><stop offset="0.9" stop-color="#f3ce95"/><stop offset="1" stop-color="#f3e38c"/></radialGradient><radialGradient id="Dégradé_sans_nom_22-3" cx="751.09" cy="340.05" r="1.7" xlink:href="#Dégradé_sans_nom_22"/><linearGradient id="Dégradé_sans_nom_6-4" x1="753.15" y1="339.02" x2="758.68" y2="339.02" xlink:href="#Dégradé_sans_nom_6"/><radialGradient id="Dégradé_sans_nom_22-4" cx="755.91" cy="339.02" r="1.7" xlink:href="#Dégradé_sans_nom_22"/><linearGradient id="Dégradé_sans_nom_6-5" x1="760.04" y1="329.6" x2="765.57" y2="329.6" xlink:href="#Dégradé_sans_nom_6"/><radialGradient id="Dégradé_sans_nom_21-2" cx="762.81" cy="329.6" r="1.7" xlink:href="#Dégradé_sans_nom_21"/><radialGradient id="Dégradé_sans_nom_17" cx="761.45" cy="323.64" r="2.75" gradientTransform="translate(618.93 -332.63) rotate(90)" gradientUnits="userSpaceOnUse"><stop offset="0" stop-color="#f4a6a7"/><stop offset="0.49" stop-color="#f4a8a6"/><stop offset="0.67" stop-color="#f4afa3"/><stop offset="0.8" stop-color="#f4bb9e"/><stop offset="0.91" stop-color="#f3cb96"/><stop offset="0.99" stop-color="#f3e18d"/><stop offset="1" stop-color="#f3e38c"/></radialGradient><radialGradient id="Dégradé_sans_nom_21-3" cx="761.45" cy="323.64" r="1.7" xlink:href="#Dégradé_sans_nom_21"/><linearGradient id="Dégradé_sans_nom_6-6" x1="760.04" y1="335.57" x2="765.57" y2="335.57" xlink:href="#Dégradé_sans_nom_6"/><radialGradient id="Dégradé_sans_nom_22-5" cx="762.81" cy="335.57" r="1.7" xlink:href="#Dégradé_sans_nom_22"/></defs><path class="cls-1" d="M354.4,408.12l-7.85-21.94c-1.87-5.24-3.83-10.62-7.57-14.75-7.39-8.18-19.58-9.39-30.58-10.05-10.36-.62-21-1.23-30.95,1.65s-19.38,10-22.12,20c-1,3.71-1.08,7.64-2.28,11.3-1.43,4.33-4.34,8-6.8,11.83a54,54,0,0,0-8.93,28c-.15,9.93,3.11,20,9.72,27.45,5.75,6.46,13.7,10.64,22,13.18s16.92,3.55,25.51,4.56c5.82.67,11.71,1.35,17.53.64s11.65-3,15.57-7.34c5-5.56,6.24-13.65,10.94-19.45,3.29-4.07,8-6.7,11.77-10.35,8.86-8.62,7.9-21.48,4.42-33.15Z" transform="translate(-236.81 -360.37)"/><path class="cls-2" d="M354.88,408,347,386.05c-2-5.74-4.24-11.7-8.72-16-8.29-8-20.94-8.61-31.79-9.24-13.21-.78-27.47-1.14-39.09,6.19a29.67,29.67,0,0,0-11,11.73c-2.94,6-2.23,12.94-5.34,18.87-1.52,2.92-3.51,5.55-5.29,8.32a60.69,60.69,0,0,0-4.72,8.91,52,52,0,0,0-4.27,18.94c-.31,12.47,4.76,24.91,14.64,32.73,10.52,8.33,24,11,37,12.66,12.55,1.6,28.62,4.64,38.73-5.25,4.26-4.16,6-10,8.59-15.18a26.24,26.24,0,0,1,5.42-7.53c2.31-2.18,4.93-4,7.37-6a24.31,24.31,0,0,0,8.62-14c1.13-5.51.57-11.25-.64-16.7-.48-2.18-1.15-4.31-1.63-6.49-.14-.62-1.1-.36-1,.27,1.09,4.91,2.54,9.64,2.79,14.71.28,5.51-.64,11.15-3.68,15.84-3.34,5.15-8.91,8-13.17,12.23-4.09,4.08-5.94,9.47-8.38,14.57a26.14,26.14,0,0,1-4.76,7.29,21.49,21.49,0,0,1-7.78,4.93c-6.33,2.38-13.18,2.2-19.8,1.55-13.3-1.32-27.38-2.68-39.45-8.84a40.2,40.2,0,0,1-14.27-11.7,39.62,39.62,0,0,1-7-16.65c-2.26-12.95,1.8-26.1,8.94-36.87a74.36,74.36,0,0,0,4.88-7.81,30.64,30.64,0,0,0,2.55-9.15,31.66,31.66,0,0,1,2.34-8.83,25.34,25.34,0,0,1,4.63-6.69c8.86-9.32,22-11.55,34.31-11.47,6.35.05,12.76.4,19.08,1,5.57.57,11.28,1.57,16.33,4.08A25.22,25.22,0,0,1,343.21,379c2.85,6.17,4.83,12.8,7.12,19.2l3.59,10C354.13,408.85,355.1,408.59,354.88,408Z" transform="translate(-236.81 -360.37)"/><path class="cls-3" d="M357.07,428.13c-10.55-4.62-21.9-4.36-33.14-4.92-1.41-.07-2.81-.15-4.21-.26-13.58-2.47-27.1-5.26-41.18-5.37L274,417.2c-10.55-.88-21.09-1.89-31.09-5.25" transform="translate(-236.81 -360.37)"/><path class="cls-3" d="M354.17,437.86c-8.89-2.46-17.74-5.73-26.3-8.78-1.45-.49-2.91-1-4.36-1.45l-3.3-1.06c-13.14-5.62-27.12-7.95-40.9-11-1.59-.39-3.19-.75-4.8-1.09-9.69-2.07-19.44-3.4-28-8.71" transform="translate(-236.81 -360.37)"/><path class="cls-3" d="M350.18,442.93a102.38,102.38,0,0,1-25.3-8c-1.35-.61-2.69-1.24-4-1.9-11.92-10.22-27.76-11.61-41.91-18.13-1.37-.72-2.73-1.44-4.1-2.13A92.78,92.78,0,0,0,248,403.53" transform="translate(-236.81 -360.37)"/><line class="cls-3" x1="120.26" y1="64.13" x2="5.14" y2="53.68"/><path class="cls-3" d="M356.22,414.62c-7.92,2.5-15.83,2.35-24.14,2.07l-5-.16c-12.26-1.31-24.85-.08-37.31,1.36-1.56.18-3.11.36-4.64.49a217.72,217.72,0,0,0-45.89,3.27" transform="translate(-236.81 -360.37)"/><path class="cls-3" d="M354.75,409.71c-12.48,1.84-25.78,4.72-38.36,5.18-7.92.47-15.85.93-23.57,2l-3.93.45-3.91.45-3.85.45c-14.14,2.24-28.12,5-42.5,5.05" transform="translate(-236.81 -360.37)"/><path class="cls-3" d="M351.06,398.64c-2.11-.06-3.45.87-5.31,1.81-9.46,6.85-19.84,9.13-30.32,11.07l-4.5.82c-11.78,1.15-22.5,6.75-34.22,8.6q-2.55.54-5.08,1.13c-11.82,2.71-23.35,6.11-34.39,12.1" transform="translate(-236.81 -360.37)"/><path class="cls-3" d="M349.12,393.36c-13.52,1.76-25.06,8.36-36.85,14.3-1.31.66-2.62,1.31-3.94,1.95-12,4.35-24.1,9-35.13,15.32L268.72,427c-10.45,4.8-19.81,9.08-31.26,11.37" transform="translate(-236.81 -360.37)"/><path class="cls-3" d="M348.09,390.5c-.88,0-20.52,9.16-37.19,17l-3.09,1.45c-11,5-22.18,9.71-32.94,15.87l-2.8,1.4c-14.36,7.2-34.63,17.52-33.78,17.09" transform="translate(-236.81 -360.37)"/><path class="cls-3" d="M346.93,387.25S324.8,399,307.72,407.9l-3,1.55c-4.2,2.22-8.4,4.32-12.54,6.48-1.38.71-2.75,1.44-4.11,2.17-4.34,1.92-8.07,4.71-12.26,7.51-12.12,7.92-23.17,17.1-36.29,23" transform="translate(-236.81 -360.37)"/><path class="cls-3" d="M342.25,376.69c-7.69,8.38-17.94,13-26.95,19.93l-2.84,2.27L303.58,406l-4,3.22c-3.69,2.88-6.95,5.67-10.68,8.47,13.05,3.26,23.3,11.18,34.91,17.3l3,1.46,19.75,9.65" transform="translate(-236.81 -360.37)"/><path class="cls-3" d="M341,450.61l-15.83-10-2.69-1.7c-9.84-7.22-18.69-14.68-29.88-20.27-3.26-1.4-6.06-4.19-8.49-7.35q-1.65-1.77-3.21-3.6c-8.36-9.78-15.53-21.08-21.86-32.35" transform="translate(-236.81 -360.37)"/><path class="cls-3" d="M339.56,373.38c-16.11,9.86-28.42,24.39-42,37.24-1.23,1.17-7.11,5.3-8.36,6.43-12.12-3.94-25.61-12.55-36.31-22.29" transform="translate(-236.81 -360.37)"/><path class="cls-3" d="M330.16,469.17c-3.26-.91-5.32-2.66-7.68-4.41a27.18,27.18,0,0,1-3.26-2.88,13,13,0,0,1-3.3-4.58c-6.52-15.38-11.18-33.09-26.56-38.21-2.1-.7-4.54.81-7.12,3-.86.72-1.74,1.5-2.62,2.3-11.7,10.59-24.1,21.31-38.59,28" transform="translate(-236.81 -360.37)"/><path class="cls-3" d="M307.06,480l-1.32-4.5c-.42-1.41-.92-3.09-1.48-5-4.18-17.39-7.91-35.1-15.37-51.41-.85.54-1.68,1.12-2.49,1.73s-1.61,1.25-2.4,1.91c-10.48,10.8-21.67,20.59-35.4,27.7-1.16.84-2.18,1.62-3,2.26a28.35,28.35,0,0,0-3,2.7" transform="translate(-236.81 -360.37)"/><path class="cls-3" d="M299.4,480c-5.85-14.34-4.45-30.19-7.76-45.22-.34-1.66-.68-3.31-1-4.95q-1.05-5-2.17-9.84c-.1,3.35-.08,6.69,0,10,0,1.67.1,3.33.17,5,1.22,15.3-.9,28.21,1.36,43.77" transform="translate(-236.81 -360.37)"/><path class="cls-3" d="M285.08,478.18c2.17-14.83,1.48-30.2,1.95-45.11.47-2.8.47-6.06,1.23-9,.2-1.66.4-3.34.63-5-.69,1.22-1.36,2.46-2,3.71-9.19,15.39-17.49,32.55-22.28,50.48" transform="translate(-236.81 -360.37)"/><path class="cls-3" d="M328.52,364.76c-6.54,12.85-15.86,24-25.54,34.95L301,402.37,298,406.55c-3.61,4.87-7.4,9.75-11.23,14.64-.95,1.23-1.91,2.45-2.87,3.68-8,14.72-18.3,26.84-30.56,38.52l-1.92,2.39" transform="translate(-236.81 -360.37)"/><path class="cls-3" d="M315.25,361.83c-1.66,11.12-9.58,20-14,30-.48,1.09-.92,2.19-1.36,3.28l-8.18,20.11" transform="translate(-236.81 -360.37)"/><path class="cls-3" d="M292.42,362c2.07,9.58-4.92,18-5.49,27.74-.09,1.57-.16,3.15-.2,4.73a90.58,90.58,0,0,0,2,23.72" transform="translate(-236.81 -360.37)"/><path class="cls-3" d="M272,365.14c8,13.87,10.8,29.25,14.88,44.44L288.4,414l1.34,3.94s1.17-3.45,2.92-8.66l.92-2.74c3.7-11.17,7.43-21.89,11-33l.92-2.8c1.75-5.36,2.91-9,2.91-9.33" transform="translate(-236.81 -360.37)"/><path class="cls-3" d="M270.31,365.89c4.6,17.78,9.73,34.56,18.83,50.22" transform="translate(-236.81 -360.37)"/><circle class="cls-4" cx="58.05" cy="69.58" r="4.85"/><circle class="cls-2" cx="50.38" cy="69.95" r="4.85"/><circle class="cls-4" cx="44.21" cy="66.15" r="4.85"/><circle class="cls-4" cx="42.52" cy="52.21" r="4.85"/><circle class="cls-4" cx="56.4" cy="45.62" r="4.85"/><circle class="cls-2" cx="41.48" cy="59.22" r="4.85"/><circle class="cls-2" cx="48.31" cy="46.61" r="4.85"/><circle class="cls-2" cx="63.77" cy="50.85" r="4.85"/><circle class="cls-4" cx="65.33" cy="58.2" r="4.85"/><circle class="cls-2" cx="63.25" cy="65.09" r="4.85"/><circle class="cls-5" cx="52.17" cy="59.31" r="10.1"/><g class="cls-6"><path class="cls-4" d="M287.29,430.79c-.1,0-.09.17-.11.2C287.36,431,287.29,430.74,287.29,430.79Z" transform="translate(-236.81 -360.37)"/><polygon class="cls-4" points="52.19 70.09 52.16 70.17 52.4 69.97 52.19 70.09"/><path class="cls-4" d="M290.54,430.37c-.18-.32-.54.1-.83,0l0-.07-.11.28C289.89,430.52,290.3,430.3,290.54,430.37Z" transform="translate(-236.81 -360.37)"/><path class="cls-4" d="M291.51,430.91c-.08-.12.16-.15-.21,0l.05,0Z" transform="translate(-236.81 -360.37)"/><path class="cls-4" d="M291.35,430.94c-.17,0,.13.08,0,0Z" transform="translate(-236.81 -360.37)"/><path class="cls-4" d="M292.1,430.67l-.18.18c.06.06.26,0,.2.09C292.34,430.81,292.27,430.75,292.1,430.67Z" transform="translate(-236.81 -360.37)"/><path class="cls-4" d="M292.24,430.38l-.1.08S292.2,430.48,292.24,430.38Z" transform="translate(-236.81 -360.37)"/><path class="cls-4" d="M291.93,430.63l.21-.17s-.08-.15-.1.07C292,430.43,292,430.53,291.93,430.63Z" transform="translate(-236.81 -360.37)"/><path class="cls-4" d="M291.79,430.62c-.14,0-.31-.05-.12-.21C291.27,430.54,291.38,430.77,291.79,430.62Z" transform="translate(-236.81 -360.37)"/><path class="cls-4" d="M290.57,430l-.17-.07-.12.12C290.34,430,290.6,430.12,290.57,430Z" transform="translate(-236.81 -360.37)"/><path class="cls-4" d="M293.5,430.36c0-.07-.14-.15-.19-.22l-.12.14C293.28,430.29,293.45,430.27,293.5,430.36Z" transform="translate(-236.81 -360.37)"/><path class="cls-4" d="M293.31,430.14l.18-.21C293.28,430,293.27,430.07,293.31,430.14Z" transform="translate(-236.81 -360.37)"/><polygon class="cls-4" points="55.36 69.64 55.05 70 55.43 69.61 55.36 69.64"/><polygon class="cls-4" points="57.58 69.58 57.52 69.79 57.63 69.45 57.58 69.58"/><path class="cls-4" d="M294.94,429.61c0,.18.24.12.19.25a1,1,0,0,0,.26-.46A.53.53,0,0,1,294.94,429.61Z" transform="translate(-236.81 -360.37)"/><path class="cls-4" d="M295.49,429.15a1.45,1.45,0,0,0-.1.25A.72.72,0,0,0,295.49,429.15Z" transform="translate(-236.81 -360.37)"/><path class="cls-4" d="M293.89,429.79a.29.29,0,0,0,.26.09l-.18-.13Z" transform="translate(-236.81 -360.37)"/><path class="cls-4" d="M294,429.74h0l.19-.09Z" transform="translate(-236.81 -360.37)"/><path class="cls-4" d="M293.86,429.8h0S293.86,429.77,293.86,429.8Z" transform="translate(-236.81 -360.37)"/><path class="cls-4" d="M292.82,430c.1-.16.32-.38,0-.44C292.77,429.72,293,429.75,292.82,430Z" transform="translate(-236.81 -360.37)"/><path class="cls-4" d="M293.65,429.63l-.25.06s.1.1.05.17A2.2,2.2,0,0,0,293.65,429.63Z" transform="translate(-236.81 -360.37)"/><polygon class="cls-4" points="56.92 69.14 56.84 69.25 56.93 69.23 56.92 69.14"/><path class="cls-4" d="M295,429.25a.67.67,0,0,1,.25-.3,2.17,2.17,0,0,0-.41.19C294.87,429.21,294.87,429.34,295,429.25Z" transform="translate(-236.81 -360.37)"/><path class="cls-4" d="M294.5,429.49l0,0S294.48,429.46,294.5,429.49Z" transform="translate(-236.81 -360.37)"/><polygon class="cls-4" points="59.54 67.75 59.5 67.73 59.52 67.76 59.54 67.75"/><path class="cls-4" d="M294.81,429.13c-.11,0-.14.1-.16.19l.2-.18S294.84,429.1,294.81,429.13Z" transform="translate(-236.81 -360.37)"/><path class="cls-4" d="M295.76,428.85l-.23,0C295.62,428.9,295.77,428.91,295.76,428.85Z" transform="translate(-236.81 -360.37)"/><path class="cls-4" d="M294.58,429.5h0C294.62,429.53,294.61,429.51,294.58,429.5Z" transform="translate(-236.81 -360.37)"/><path class="cls-4" d="M294.58,429.5a1.34,1.34,0,0,0,.07-.18.61.61,0,0,0-.13.15Z" transform="translate(-236.81 -360.37)"/><path class="cls-4" d="M295.78,426.9a.29.29,0,0,1-.27.46c-.09.25.41.63.8.75-.05-.07-.09-.12,0-.38-.12,0-.57.18-.52-.08s.24-.12.42-.16c-.25-.07.06-.52-.22-.71l-.12.27S295.87,426.89,295.78,426.9Z" transform="translate(-236.81 -360.37)"/><path class="cls-4" d="M295.92,428.4l-.07.08a1.14,1.14,0,0,1,.45,0c.08-.18.06-.25,0-.31l-.42.31Z" transform="translate(-236.81 -360.37)"/><path class="cls-4" d="M295.48,428.77c-.05-.2.09-.43-.16-.51-.23.19-.07.26-.17.43.38-.31-.06.17.31.07a.89.89,0,0,1-.2.19l.27-.07h0s0,0,0,0h0a.24.24,0,0,1,0-.08c.14,0,0,0,0,.08v0h0c.12-.12.22-.27.33-.4A1.64,1.64,0,0,0,295.48,428.77Z" transform="translate(-236.81 -360.37)"/><path class="cls-4" d="M292.89,429.06s0,0,0,0S292.94,429,292.89,429.06Z" transform="translate(-236.81 -360.37)"/><path class="cls-4" d="M293.11,429.1s0,.12-.13.15,0-.09-.06-.15-.16.22.07.23l0,0c.2,0,.53.13.51.17A1.8,1.8,0,0,0,293.11,429.1Z" transform="translate(-236.81 -360.37)"/><path class="cls-4" d="M294.27,429c.1-.09.19-.19.29-.29l-.26,0,.06.08C294.15,428.79,294.25,428.87,294.27,429Z" transform="translate(-236.81 -360.37)"/><path class="cls-4" d="M296.46,428.16l.09.2c0-.13,0-.26,0-.39Z" transform="translate(-236.81 -360.37)"/><polygon class="cls-4" points="60.02 67.39 60.14 67.54 60.17 67.36 60.02 67.39"/><path class="cls-4" d="M285.67,411.32l-.07.09A.18.18,0,0,0,285.67,411.32Z" transform="translate(-236.81 -360.37)"/><path class="cls-4" d="M286.35,411.1V411C286.33,411.06,286.32,411.1,286.35,411.1Z" transform="translate(-236.81 -360.37)"/><path class="cls-4" d="M299.36,415.34c.09-.23.25-.54.07-.43l-.16.13A.42.42,0,0,1,299.36,415.34Z" transform="translate(-236.81 -360.37)"/><path class="cls-4" d="M292.48,410.26l0,.07.17-.14Z" transform="translate(-236.81 -360.37)"/><path class="cls-4" d="M292.09,411l-.14-.18A.89.89,0,0,0,292.09,411Z" transform="translate(-236.81 -360.37)"/><path class="cls-4" d="M282.61,413.64l.07.22C282.8,413.73,282.67,413.72,282.61,413.64Z" transform="translate(-236.81 -360.37)"/><path class="cls-4" d="M299.67,423a1,1,0,0,0,.24-.34C299.74,422.81,299.53,422.9,299.67,423Z" transform="translate(-236.81 -360.37)"/><path class="cls-4" d="M285.21,409.2q-.09.09-.06.15C285.21,409.29,285.24,409.24,285.21,409.2Z" transform="translate(-236.81 -360.37)"/><path class="cls-4" d="M300,422.22s0,0-.06.07a1,1,0,0,1,0,.37A.34.34,0,0,0,300,422.22Z" transform="translate(-236.81 -360.37)"/><path class="cls-4" d="M282.87,426.22v0S282.89,426.23,282.87,426.22Z" transform="translate(-236.81 -360.37)"/><path class="cls-4" d="M285.82,430.2l-.2-.05A.46.46,0,0,0,285.82,430.2Z" transform="translate(-236.81 -360.37)"/><path class="cls-4" d="M298.33,426.13c-.05.1,0,0,0,0Z" transform="translate(-236.81 -360.37)"/><path class="cls-4" d="M297.37,426.11a.14.14,0,0,0-.05-.09A.14.14,0,0,1,297.37,426.11Z" transform="translate(-236.81 -360.37)"/><path class="cls-4" d="M299,420.92h0S298.93,420.93,299,420.92Z" transform="translate(-236.81 -360.37)"/><path class="cls-4" d="M298.16,426.22a.51.51,0,0,0,.13-.09Z" transform="translate(-236.81 -360.37)"/><path class="cls-4" d="M298.25,426.26l-.08.07S298.22,426.36,298.25,426.26Z" transform="translate(-236.81 -360.37)"/><path class="cls-4" d="M298.42,426a.58.58,0,0,1-.13.14h0Z" transform="translate(-236.81 -360.37)"/><path class="cls-4" d="M279.5,419.43l0,0C279.56,419.55,279.55,419.51,279.5,419.43Z" transform="translate(-236.81 -360.37)"/><polygon class="cls-4" points="59.37 53.66 59.38 53.66 59.38 53.65 59.37 53.66"/><path class="cls-4" d="M295.85,413.87c.29-.05.32,0,.34.15l.39-.45Z" transform="translate(-236.81 -360.37)"/><path class="cls-4" d="M284.18,412.15l.29,0c-.07.41-.28.42,0,.52-.33-.57.69-.49.44-1.05l.19,0s0,.06-.07.07c.39.13,0-.51.4-.58.15,0,.27,0,.21.14l.23-.26c.09,0,.1.09,0,.11.13-.07.28-.12.42-.18v0a1.78,1.78,0,0,1,.2-.39c.14.05,0,.08,0,.15l.21-.23c.14.14,0,.34-.2.38.38.54.16-.23.75,0l-.22.12c.22.32.37.16.66.33-.07-.1-.61-.45-.37-.66.08,0,.18,0,.31-.12,0,.23.17.16.35.13l0,.3c.18-.11.15-.26.26-.4s.27.23.33.43c.34.05-.25-.37.16-.42.29.12.49,0,.86-.17.2.13-.05.18,0,.27l.21-.21s0,.08,0,.11c.16-.07,0-.29.3-.34.12-.33.43.54.79.25.06.09-.07.17-.08.28a4.12,4.12,0,0,0,.81-.31l.23.28c-.14-.28.21-.45.53-.57a2.26,2.26,0,0,0-.11-.3,2.36,2.36,0,0,1,.46,0c0,.06-.05.14-.15.23l.09,0c.1.17,0,.29-.19.41l-.07-.23a1,1,0,0,0-.36.47.24.24,0,0,1,.15,0s-.07.07-.07.11.07,0,.15-.07l0,.35.07-.12.37.39a2.37,2.37,0,0,1,1.6-.23c-.26.12-.24.32-.4.56,0-.35-.46-.11-.69-.31a.13.13,0,0,1,0,.23l.6,0c-.13.19,0,.2.06.36.17-.45.5,0,.76,0a.24.24,0,0,1-.41.05c0,.45.64-.23.68.2-.05,0-.06-.08-.13,0,.2,0,.42.32.26.37l-.05,0c.31.3.92.91,1.28.7l-.48.3a15,15,0,0,1,1.54-.22c-.31.16-.8.84-1.17.69a.41.41,0,0,0,.27.33c0-.08.31-.43.39-.37a2.4,2.4,0,0,0-.16.72c0-.12.51-.32.6-.16-.09,0-.44.29-.52.27a4.76,4.76,0,0,1,.66.09c-.13-.05-.39.2-.48.35.07-.09.15.31.25.38l0-.2c.15.43.87.09,1,.56-.12,0-.67.12-.64.36.29,0,1.38,0,1.71.43l-.12.12a3.88,3.88,0,0,1,.26.31c-.44-.15-1.44-.47-1.83-.62-.06.2-.15.1-.07.34-.11.13-.25-.06-.27-.13l.07.57c.3-.11.42.35.66.27a6,6,0,0,0-.48-.53c.28-.13,1,.11,1,.58-.1.13-.57,0-.66.06.11,0,.27.36.21.41l-.2-.15c-.07.24.49.31.21.64,0,.1-.38.32-.19.32a3.77,3.77,0,0,1,1.72-.23,2.43,2.43,0,0,1-.48.73c-.28.18-.67-.24-.91-.09a.46.46,0,0,1,.22.13c-.07.11-.26,0-.22.19.31,0,0,.46.26.11.09.23,0,.24-.06.5.21-.07.67.29.73.55a.45.45,0,0,0-.24,0c-.06.49-.3.71-.38,1.14-.08,0-.22.21-.33.09,0,.07.12.15.08.28-.34.17.05-.29-.32-.19.17.06.14.39.19.62.29,0,.19-.42.13-.63a1.1,1.1,0,0,1,.69,1.09c0,.41-.3.07-.27.15-.36.64.4.89-.16,1.32-.35.1-.45-.23-.63-.26.07-.31.36-.35.44-.56l-.21.19a.4.4,0,0,1,.1-.41c-.27.09-.56,1.07-1.05,1.4,0,.13,0,.32.12.31l.07-.17c.26,0,0,.44.25.3,0,.27,0,.66-.32.85l-.26-.13c.07.05.28-.07.27-.19,0,.19-.63.15-.45.51l.31-.06c-.05.28,0,.74-.33.9.31.09,0-.07.43,0-.43-.13.56-.62,0-.66.44.06.4-.2.84-.25-.08-.05-.21,0,0-.22l0-.1h0s0,0,0,0a.34.34,0,0,1-.19,0c-.1-.24.14-.58.13-.75s.05.11.19.09l0-.27c.18.1.5-.19.42.21l.18-.3a.73.73,0,0,0,.38-.54c.11-.13,0-.47.05-.27l.09-.55,0,0c.23-.5,0-1.12.55-1.61a1.23,1.23,0,0,1,.07-.66l.2,0c0-.23.26-.67.09-.79.54-.21.17-1.13.25-1.54h-.24a2.23,2.23,0,0,0-.22-.88l-.2.05c-.18-.27,0-.76-.07-1.22.08,0,.08.14.05.23.37-.67-.62-1-.45-1.61a.25.25,0,0,1-.11-.28l0,0,0,0a1.18,1.18,0,0,0,0-.2.49.49,0,0,0-.05.18,1.35,1.35,0,0,0-.22-.33l.18-.15,0,0c0-.17-.14-.06-.26.07a.7.7,0,0,0-.21-.11c.28-.26-.27-.27,0-.58-.19,0-.47-.56-.85-.4,0,0,0-.08.08,0-.05-.15-.09-.31-.26-.36l.2-.22-.51,0c0-.26,0-.39.34-.36-.58-.18-.36-.25-.87-.35l.15-.11c-.11-.1-.46-.1-.41-.27,0-.51-1.16-1.17-1.72-1.9-.14.55-.22-.42-.47-.07,0-.13-.05-.26.13-.28-.46-.11-.51-.53-.95-.33,0-.14.17-.13.16-.22s-.18,0-.19,0,.1-.07.19-.09c-.45-.17-.64.18-.81.51-.14-.26-.26-.27-.49-.09,0-.14-.12-.3.16-.25-.14-.07-.87-.48-1-.18,0-.08-.2-.07-.25,0a3.5,3.5,0,0,0-.71-.17l.09.07c-.19.32-.29,0-.57.05v0c-.6-.32-.27.08-.88-.25l0,.23c-.07.48-.54-.29-.91-.11l.14.13c-.18.16-.59-.61-.82-.65-.05,0,.07-.08.13-.11-.58-.23,0,.29-.43.4-.1-.15,0-.41-.24-.4s-.69.64-1.11.44c.11.1.22.19.06.33s-.87-.23-1,.23c0,0-.07,0-.08-.07-.17.18-.59.42-.62.66-.52-.61-1,.93-1.32.33l-.53.4,0-.07a.67.67,0,0,0-.4.67c-.1,0-.09-.07-.11-.11-.57.27-.59.37-.71,1l-.2-.12c0,.17-.89.42-1.05,1.08a.17.17,0,0,1-.05-.12c-.08.37-.46.6-.72.87s-.42.54-.11.84a4.17,4.17,0,0,0,0,.5c.29-.5.3.23.52.07,0,.22-.46.41-.39.15l.05,0c-.35-.27-.42.58-.68.46a13.75,13.75,0,0,0-.9,3.24l.34-.11,0,.37c-.08.1-.26.13-.25-.14-.19.14.16.46.24.46-.15.52-.4-.2-.41-.05l0,.23,0-.05c.15.18.27.19.29.5s-.2.12-.2.21,0,0,0,.12v.48l.25-.22c.15.19,0,.44.31.18-.21.19-.16.63-.08,1a4.17,4.17,0,0,1,.22.91,1.6,1.6,0,0,1,.49.81c0-.11.28-.27.35,0-.62.16,0,.61-.28,1,.14-.33.49.74.68.22.1.24-.19.13-.21.37.53.39.65,1.22,1.25,1.73.07,0,.07-.22.27-.19v.58c.14.08.41-.24.43.15,0-.08,0-.19.14-.15a4.24,4.24,0,0,0,1.76,1.39,8,8,0,0,1,2,1.25c-.15-.21,0-.18.14-.14-.09-.07.06-.19.08-.31.16.16.33.33.51.48.19-.27.67.13.79-.15h-.2c.32-.29-.19-.83,0-1.25-.37.34-.48-.76-1.06-.34-.05-.11.13-.11.12-.22-.17.15-.31.13-.49,0l0,0c-.64-.22-.81-.54-1.36-1l-.07.21a.46.46,0,0,1-.14-.28c-.34.17.36.27,0,.49,0-.25-.19-.41-.42-.58s-.4-.37-.28-.6c-.19-.16-.12.24-.3.08l0-.14-.17.09a.34.34,0,0,1,.05-.41s.09.06.13.08c0-.26-.44-.37-.45-.46l.1.23c-.58-.38-.89-1.14-1.47-1.53l-.07.1c-.42-.34-.09-.41-.43-.85h0a.45.45,0,0,1-.29-.32c.16.08.12-.33.31-.21-.39-.42-.26-.18-.74-.39l.14-.14c-.19-.07-.27-.05-.39-.31.2.18.2-.25.46-.06.19-.62-.56-.75-.08-1.1-.53-.19-.17.53-.3.4-.13.16-.39-.15-.38-.34s.56-.41.51-.85c0,0,0,0,0,.09.11-.18-.21-.33,0-.54-.28-.11,0-.27-.34-.31l.08.43c-.1-.23-.53-.48-.32-.88a.66.66,0,0,1,.23.24c.11-.11-.08-.23.05-.34.35.05.07.52.35.77.16-.12-.27-.48.13-.35-.51-.19.07-.43-.27-.76l.21,0c0-.05-.12-.16-.1-.25l.27.19c-.22-.27.25-.43.17-.67-.09.47-.29.06-.48.24-.17-.67.64-.25.67-.91,0,.09-.2.3-.27.13a.65.65,0,0,1,.34-.29c.09-.43-.24,0-.32-.22.31-.07,0-.24-.05-.47l.21.07c.31-.43-.39-.29,0-.67l.2.3,0-.25.21.15a.49.49,0,0,1,.19-.57.3.3,0,0,1-.24-.43c.19-.07.14.19.28-.12.08.14.2.29-.05.32.05,0,.09.13.14.17.22-.07.23-.34.29-.44a.28.28,0,0,1-.11.08,3.51,3.51,0,0,1,0-.56c.11,0,.13.07.16.15,0-.09,0-.2.05-.32.12.13.28.23.25.44l.08-.48c.08,0,.3,0,.32,0,.24-.1.1-.67.43-.82a.14.14,0,0,1,0-.14c.26-.18.57-.22.7-.62l.36.13c.17-.23-.47-.15-.18-.55s.26.15.41.16c0-.22.1-.67.5-.61C284.34,412.08,284.25,412.08,284.18,412.15Zm3.19-1.4c-.06.06-.16.23-.24.11C287.15,410.59,287.24,410.7,287.37,410.75Zm5.47.13c-.08,0-.14,0-.19-.14A.27.27,0,0,1,292.84,410.88Zm6,14.07v0C299,424.81,298.94,424.85,298.84,425Zm-.27.29c0,.05,0,.06.07.06s0-.13.06-.21S298.58,425.11,298.57,425.24ZM278,420.6l.05-.08C278.15,420.68,278.09,420.64,278,420.6Z" transform="translate(-236.81 -360.37)"/><path class="cls-4" d="M292.14,410.92a.25.25,0,0,1,0-.12S292.1,410.87,292.14,410.92Z" transform="translate(-236.81 -360.37)"/><polygon class="cls-4" points="45.78 53.22 45.77 53.23 45.8 53.27 45.78 53.22"/><path class="cls-4" d="M298.15,419.54a.43.43,0,0,1,.12-.14S298.17,419.43,298.15,419.54Z" transform="translate(-236.81 -360.37)"/><path class="cls-4" d="M297.67,427.16l.12-.24a.28.28,0,0,1-.21.13C297.63,427.08,297.72,427.09,297.67,427.16Z" transform="translate(-236.81 -360.37)"/><path class="cls-4" d="M295.2,427.6s-.05,0-.06.09l.07.07C295.32,427.67,295.34,427.54,295.2,427.6Z" transform="translate(-236.81 -360.37)"/><path class="cls-4" d="M297,426.84c-.16-.12-.2.05-.29.19l0,0C296.84,427.22,296.91,427,297,426.84Z" transform="translate(-236.81 -360.37)"/><path class="cls-4" d="M296.64,427.06a.52.52,0,0,1-.1.11C296.6,427.26,296.6,427.14,296.64,427.06Z" transform="translate(-236.81 -360.37)"/><path class="cls-4" d="M298.42,425.73c-.09,0,.17.17.08.17C298.66,426.11,298.57,425.28,298.42,425.73Z" transform="translate(-236.81 -360.37)"/><polygon class="cls-4" points="59.6 66.15 59.81 66.26 59.73 66.07 59.6 66.15"/><path class="cls-4" d="M297.33,425.65l-.2.17s0,.06,0,.1C297.26,425.8,297.39,425.68,297.33,425.65Z" transform="translate(-236.81 -360.37)"/><path class="cls-4" d="M297.16,425.92a.39.39,0,0,0-.1.19A.82.82,0,0,0,297.16,425.92Z" transform="translate(-236.81 -360.37)"/><polygon class="cls-4" points="59.77 65.84 59.86 65.81 59.98 65.69 59.77 65.84"/><path class="cls-4" d="M298.67,423.23l0-.29c-.07-.05-.14,0-.14.11S298.58,423.24,298.67,423.23Z" transform="translate(-236.81 -360.37)"/><path class="cls-4" d="M297.76,423.74c.07,0,.12,0,.2,0l-.26-.13Z" transform="translate(-236.81 -360.37)"/><path class="cls-4" d="M298,423c-.06-.05-.1-.43-.18-.12C297.88,423,297.85,423.22,298,423Z" transform="translate(-236.81 -360.37)"/><polygon class="cls-4" points="62.13 58.73 62.14 58.8 62.61 58.76 62.13 58.73"/><path class="cls-4" d="M297.05,416.07c0,.31.29-.05.26.25.13,0,0-.25.14-.22C297.27,416,297.3,415.87,297.05,416.07Z" transform="translate(-236.81 -360.37)"/><path class="cls-4" d="M297.45,416.1l.1.06Z" transform="translate(-236.81 -360.37)"/><polygon class="cls-4" points="49.77 70.28 49.98 70.42 49.86 70.24 49.77 70.28"/><path class="cls-4" d="M287.08,430.4v.31l.18-.24C287.21,430.47,287.1,430.47,287.08,430.4Z" transform="translate(-236.81 -360.37)"/><path class="cls-4" d="M288,411.27v-.07c0-.07-.07-.08-.16-.08Z" transform="translate(-236.81 -360.37)"/><polygon class="cls-4" points="48.76 51.31 48.8 51.3 48.62 51.08 48.76 51.31"/><path class="cls-4" d="M284,413c.07-.05.12-.15.19-.18C284.06,412.94,283.78,412.73,284,413Z" transform="translate(-236.81 -360.37)"/></g><path class="cls-7" d="M286,411.73a2.57,2.57,0,0,0,2.11-1.58c.43-1.69-1.51-3.37-3.45-3.54a2.52,2.52,0,0,0-2.37,1,2.58,2.58,0,0,0,1.34,3.88A4.07,4.07,0,0,0,286,411.73Z" transform="translate(-236.81 -360.37)"/><path class="cls-8" d="M285.63,410.77a1.58,1.58,0,0,0,1.31-1c.27-1-.94-2.08-2.14-2.19a1.55,1.55,0,0,0-.63,3A2.46,2.46,0,0,0,285.63,410.77Z" transform="translate(-236.81 -360.37)"/><path class="cls-9" d="M288.53,423a3.54,3.54,0,0,1-2.83-2.48c-.58-2.63,2-5.26,4.62-5.52,1.45-.26,2.31.53,3.18,1.58a4.3,4.3,0,0,1-1.8,6.06A4.78,4.78,0,0,1,288.53,423Z" transform="translate(-236.81 -360.37)"/><path class="cls-10" d="M289,421.5a2.2,2.2,0,0,1-1.75-1.53c-.36-1.63,1.25-3.26,2.86-3.42.9-.17,1.43.32,2,1a2.67,2.67,0,0,1-1.12,3.76A2.94,2.94,0,0,1,289,421.5Z" transform="translate(-236.81 -360.37)"/><path class="cls-11" d="M284.14,428.72a3.12,3.12,0,0,1-2.47-2.2c-.51-2.33,1.76-4.66,4-4.89,1.26-.23,2,.47,2.78,1.4a3.85,3.85,0,0,1-1.58,5.37A4.15,4.15,0,0,1,284.14,428.72Z" transform="translate(-236.81 -360.37)"/><path class="cls-12" d="M284.57,427.38a1.92,1.92,0,0,1-1.52-1.36,2.78,2.78,0,0,1,2.49-3c.79-.14,1.25.29,1.72.87a2.37,2.37,0,0,1-1,3.32A2.56,2.56,0,0,1,284.57,427.38Z" transform="translate(-236.81 -360.37)"/><path class="cls-13" d="M300.09,423.16A2.8,2.8,0,0,1,298,421.1a4.15,4.15,0,0,1,3.5-4.58c1.09-.22,1.75.43,2.4,1.31.87,1.74.44,4.15-1.36,5A3.33,3.33,0,0,1,300.09,423.16Z" transform="translate(-236.81 -360.37)"/><path class="cls-14" d="M300.42,421.91a1.73,1.73,0,0,1-1.32-1.28,2.57,2.57,0,0,1,2.16-2.84c.68-.13,1.08.27,1.49.81a2.33,2.33,0,0,1-.84,3.12A2.05,2.05,0,0,1,300.42,421.91Z" transform="translate(-236.81 -360.37)"/><path class="cls-15" d="M295.47,420.46a3.17,3.17,0,0,1-2.5-2.24c-.51-2.38,1.79-4.76,4.09-5,1.27-.24,2,.47,2.81,1.43a3.94,3.94,0,0,1-1.6,5.48A4.08,4.08,0,0,1,295.47,420.46Z" transform="translate(-236.81 -360.37)"/><path class="cls-16" d="M295.91,419.1a2,2,0,0,1-1.55-1.39,2.86,2.86,0,0,1,2.54-3.1c.79-.15,1.26.29,1.74.88a2.45,2.45,0,0,1-1,3.4A2.56,2.56,0,0,1,295.91,419.1Z" transform="translate(-236.81 -360.37)"/><path class="cls-17" d="M300.73,411.65A2.72,2.72,0,0,1,299,414a4.05,4.05,0,0,1-4.91-2.78c-.36-1,.19-1.75.95-2.5,1.58-1.08,4-1,5.06.65A3.2,3.2,0,0,1,300.73,411.65Z" transform="translate(-236.81 -360.37)"/><path class="cls-18" d="M299.47,411.45a1.69,1.69,0,0,1-1.06,1.46,2.53,2.53,0,0,1-3.05-1.73c-.22-.63.12-1.08.59-1.55a2.28,2.28,0,0,1,3.14.41A2,2,0,0,1,299.47,411.45Z" transform="translate(-236.81 -360.37)"/><path class="cls-19" d="M291.2,416a2.54,2.54,0,0,1-1.95-1.87,3.79,3.79,0,0,1,3.18-4.19c1-.2,1.6.4,2.2,1.2a3.43,3.43,0,0,1-1.25,4.59A3,3,0,0,1,291.2,416Z" transform="translate(-236.81 -360.37)"/><path class="cls-20" d="M291.54,414.87a1.61,1.61,0,0,1-1.21-1.16,2.35,2.35,0,0,1,2-2.59c.62-.13,1,.24,1.36.74a2.13,2.13,0,0,1-.77,2.84A1.85,1.85,0,0,1,291.54,414.87Z" transform="translate(-236.81 -360.37)"/><path class="cls-21" d="M294.66,426.14a2.55,2.55,0,0,1-2-1.88,3.78,3.78,0,0,1,3.19-4.18c1-.2,1.59.39,2.19,1.19a3.42,3.42,0,0,1-1.25,4.59A3,3,0,0,1,294.66,426.14Z" transform="translate(-236.81 -360.37)"/><path class="cls-22" d="M295,424.82a1.55,1.55,0,0,1-1.2-1.16,2.34,2.34,0,0,1,2-2.59c.62-.13,1,.25,1.36.74a2.13,2.13,0,0,1-.77,2.84A1.85,1.85,0,0,1,295,424.82Z" transform="translate(-236.81 -360.37)"/><path class="cls-23" d="M290.18,428.21a2.55,2.55,0,0,1-1.95-1.88,3.79,3.79,0,0,1,3.19-4.18c1-.2,1.6.4,2.19,1.19a3.42,3.42,0,0,1-1.24,4.59A3,3,0,0,1,290.18,428.21Z" transform="translate(-236.81 -360.37)"/><path class="cls-24" d="M290.53,427.06a1.56,1.56,0,0,1-1.21-1.16,2.35,2.35,0,0,1,2-2.59c.61-.12,1,.25,1.35.74a2.11,2.11,0,0,1-.77,2.84A1.83,1.83,0,0,1,290.53,427.06Z" transform="translate(-236.81 -360.37)"/><path class="cls-25" d="M282.57,422.17a2.56,2.56,0,0,1-1.95-1.88,3.79,3.79,0,0,1,3.19-4.18c1-.2,1.59.39,2.19,1.19a3.42,3.42,0,0,1-1.24,4.59A3,3,0,0,1,282.57,422.17Z" transform="translate(-236.81 -360.37)"/><path class="cls-26" d="M282.92,421a1.56,1.56,0,0,1-1.21-1.16,2.34,2.34,0,0,1,2-2.59c.62-.12,1,.25,1.36.74a2.11,2.11,0,0,1-.77,2.84A1.83,1.83,0,0,1,282.92,421Z" transform="translate(-236.81 -360.37)"/><path class="cls-27" d="M286,416.78a2.55,2.55,0,0,1-1.95-1.88,3.78,3.78,0,0,1,3.19-4.18c1-.2,1.59.4,2.19,1.2a3.42,3.42,0,0,1-1.24,4.59A3.08,3.08,0,0,1,286,416.78Z" transform="translate(-236.81 -360.37)"/><path class="cls-28" d="M286.37,415.64a1.59,1.59,0,0,1-1.21-1.17,2.35,2.35,0,0,1,2-2.59c.62-.12,1,.25,1.36.74a2.13,2.13,0,0,1-.77,2.85A1.94,1.94,0,0,1,286.37,415.64Z" transform="translate(-236.81 -360.37)"/><path class="cls-29" d="M290.26,410.6a2.57,2.57,0,0,1-2-1.76c-.41-1.87,1.45-3.74,3.31-3.92a2.28,2.28,0,0,1,2.28,1.12,3,3,0,0,1-1.29,4.3A3.47,3.47,0,0,1,290.26,410.6Z" transform="translate(-236.81 -360.37)"/><path class="cls-30" d="M290.62,409.52a1.59,1.59,0,0,1-1.26-1.08,2.26,2.26,0,0,1,2.05-2.43,1.41,1.41,0,0,1,1.41.69,1.88,1.88,0,0,1-.8,2.67A2.13,2.13,0,0,1,290.62,409.52Z" transform="translate(-236.81 -360.37)"/><path class="cls-31" d="M282.44,416.46a2.33,2.33,0,0,0,1.83-1.67,3.43,3.43,0,0,0-3-3.75c-.93-.18-1.49.36-2,1.07a3,3,0,0,0,1.15,4.11A3,3,0,0,0,282.44,416.46Z" transform="translate(-236.81 -360.37)"/><path class="cls-32" d="M282.12,415.44a1.45,1.45,0,0,0,1.13-1,2.12,2.12,0,0,0-1.84-2.32c-.58-.11-.92.22-1.27.66a1.86,1.86,0,0,0,.72,2.55A1.8,1.8,0,0,0,282.12,415.44Z" transform="translate(-236.81 -360.37)"/><path class="cls-33" d="M279.72,421.15a2.33,2.33,0,0,0,1.82-1.68c.38-1.78-1.3-3.56-3-3.74-.93-.18-1.49.35-2.05,1.07a3,3,0,0,0,1.16,4.1A2.9,2.9,0,0,0,279.72,421.15Z" transform="translate(-236.81 -360.37)"/><path class="cls-34" d="M279.4,420.13a1.47,1.47,0,0,0,1.13-1,2.12,2.12,0,0,0-1.84-2.32c-.58-.11-.93.22-1.27.66a1.85,1.85,0,0,0,.72,2.54A1.8,1.8,0,0,0,279.4,420.13Z" transform="translate(-236.81 -360.37)"/><path class="cls-35" d="M280.76,426a2.33,2.33,0,0,0,1.82-1.67,3.42,3.42,0,0,0-3-3.75c-.93-.18-1.49.36-2.05,1.07a3,3,0,0,0,1.16,4.11A2.94,2.94,0,0,0,280.76,426Z" transform="translate(-236.81 -360.37)"/><path class="cls-36" d="M280.44,425a1.44,1.44,0,0,0,1.12-1,2.12,2.12,0,0,0-1.84-2.32c-.57-.11-.92.22-1.27.66a1.86,1.86,0,0,0,.72,2.55A1.83,1.83,0,0,0,280.44,425Z" transform="translate(-236.81 -360.37)"/><path class="cls-37" d="M290.18,432.87a2.36,2.36,0,0,0,1.82-1.68,3.42,3.42,0,0,0-3-3.75c-.93-.17-1.48.36-2,1.07a3,3,0,0,0,1.16,4.11A2.94,2.94,0,0,0,290.18,432.87Z" transform="translate(-236.81 -360.37)"/><path class="cls-38" d="M289.85,431.84a1.41,1.41,0,0,0,1.13-1,2.12,2.12,0,0,0-1.84-2.32c-.58-.11-.92.22-1.27.67a1.85,1.85,0,0,0,.72,2.54A1.8,1.8,0,0,0,289.85,431.84Z" transform="translate(-236.81 -360.37)"/><path class="cls-39" d="M296.14,431.51a2.33,2.33,0,0,0,1.82-1.68,3.42,3.42,0,0,0-3-3.74c-.93-.18-1.49.35-2.05,1.07a3,3,0,0,0,1.16,4.1A2.9,2.9,0,0,0,296.14,431.51Z" transform="translate(-236.81 -360.37)"/><path class="cls-40" d="M295.82,430.49a1.47,1.47,0,0,0,1.13-1,2.12,2.12,0,0,0-1.85-2.32c-.57-.11-.92.22-1.26.66a1.81,1.81,0,0,0,2,2.7Z" transform="translate(-236.81 -360.37)"/><path class="cls-41" d="M284.21,432.87a2.34,2.34,0,0,0,1.82-1.68,3.42,3.42,0,0,0-3-3.75c-.93-.17-1.49.36-2.05,1.07a3,3,0,0,0,1.16,4.11A3,3,0,0,0,284.21,432.87Z" transform="translate(-236.81 -360.37)"/><path class="cls-42" d="M283.89,431.84a1.44,1.44,0,0,0,1.13-1,2.12,2.12,0,0,0-1.85-2.32c-.57-.11-.92.22-1.26.67a1.85,1.85,0,0,0,.72,2.54A1.8,1.8,0,0,0,283.89,431.84Z" transform="translate(-236.81 -360.37)"/></svg>